<?xml version="1.0" encoding="utf-8"?>
<!-- Generator: Adobe Illustrator 19.0.1, SVG Export Plug-In . SVG Version: 6.00 Build 0)  -->
<svg version="1.1" id="Layer_1" xmlns="http://www.w3.org/2000/svg" xmlns:xlink="http://www.w3.org/1999/xlink" x="0px" y="0px"
	 viewBox="283 -283.9 1417.3 1417.3" style="enable-background:new 283 -283.9 1417.3 1417.3;" xml:space="preserve">
<style type="text/css">
	.st0{fill:#FFFFFF;}
	.st1{fill-rule:evenodd;clip-rule:evenodd;fill:#FFFFFF;}
</style>
<g>
	<path class="st0" d="M1329.2,571.3l-4.7-5.2l2.4-6.6c17.7-45.1,2.9-83.3-10.5-105.4c-5.6,26.1-14.9,45.2-19.9,54
		c10.9,25.6,11.9,49.7,2.8,71.8c-1.8,4.5-4.1,8.6-6.5,12.5c15,33.4,16.7,61.1,4.7,82.5c-12.5,22.2-36,30.7-49.2,33.8
		c-9.9,87.5-97.9,93.6-98.8,93.7c-0.2,0-0.4,0-0.6,0c-5.9,0-10.8-4.6-11.2-10.6c-0.4-6.2,4.3-11.5,10.5-11.8
		c3-0.2,74.7-5.6,78.4-81.3l0.5-9.7l9.7-0.9c0.3,0,29.6-3.3,41.3-24.2c7.1-12.7,6.6-30.1-1.3-51.5c-14.6,14.2-31.1,23-40.4,27.2
		c-0.6,11.6-3.5,22.2-9,31.8c-12.5,21.9-38,37.7-71.8,44.4c-1.7,0.3-4.4,0.7-8,1.1c-16.7,1.8-55.9,6.2-69.7,30.5
		c-8.7,15.5-6.5,37.8,6.7,66.5c12.7,27.6,29,43.4,48.6,47.1c37.5,6.9,77.4-31.5,77.8-31.9C1397.4,650.9,1329.9,572,1329.2,571.3z"/>
	<path class="st0" d="M1130.8,574.8c-0.9,0-1.7,0.1-2.6,0.1c-11.9,0-22.9-4.8-32.9-14.2c-5.9-5.6-11.1-12.7-15.8-20.7
		c-3.1,11.1-6.7,33.7-6.7,78.5c0,64,9.8,84.9,14.4,91.2c20.8-11,45.1-13.7,58.1-15.2c2.7-0.3,4.8-0.5,6.1-0.8
		c27.4-5.4,47.5-17.3,56.7-33.5c8.2-14.5,8.3-33.2,0.3-55.8c-2.1-5.8,1-12.2,6.8-14.3c5.8-2.1,12.2,1,14.3,6.8
		c2.3,6.4,3.9,12.5,5.1,18.5c13.9-7.4,35.1-21.9,44.2-44.1c7.1-17.5,5.5-37.3-4.9-59l-2.7-5.7l3.5-5.3c1.2-1.9,19.8-31.1,23.5-75.2
		c0-0.4,0-0.7,0.1-1.1c1.9-24.7-0.9-54.1-14.2-85.9c-19.8-47.5-35.3-66.3-44.5-73.8c0.2,17.1-4,30.6-7.3,38.4
		c18.9,19.6,34.5,48.7,29,89.5c14.8,2.9,19.7,11,21.1,14.9c2.2,5.8-0.7,12.3-6.5,14.5c-1.3,0.5-2.6,0.7-4,0.7
		c-4.1,0-7.9-2.2-9.9-5.9c-1.2-1-11-7.2-45.5,3.4c2.8,15.7,2.7,35.5-3.3,60.8c-1.2,5.2-5.8,8.7-10.9,8.7c-0.9,0-1.7-0.1-2.6-0.3
		c-6-1.4-9.8-7.4-8.3-13.5c16.7-70.9-18-87.9-18.4-88.1c-5.6-2.6-8.1-9.3-5.5-14.9c2.6-5.6,9.3-8.1,14.9-5.5
		c1.2,0.6,17.5,8.5,27.8,31.3c11.1-3.4,20.5-5.4,28.5-6.3c11.8-74.4-61.4-100.9-64.6-102c-5.8-2-8.9-8.4-6.9-14.3
		c2-5.9,8.4-8.9,14.3-6.9c0.4,0.1,15.6,5.7,32.7,18.1c4.4-15.1,7.3-43.5-16.4-75.8c-23.1-31.6-69.7-60.1-97.4-51
		c-22.7,7.4-27.5,39.3-27.5,64.8v62.7c-0.1,11.3,2.7,43.4,16.7,57.5c4.7,4.7,9.9,6.9,16.6,6.9c6.2,0,11.2,5,11.2,11.2
		c0,6.2-5,11.2-11.2,11.2c-7.4,0-14.3-1.6-20.4-4.7c-3.8,16.2-8.9,42.7-8.9,70c0,34.5,12.9,83.9,33.8,103.6
		c6.1,5.8,12.2,8.4,18.8,8.1c6.3-0.4,11.5,4.4,11.8,10.5C1141.7,569.1,1137,574.4,1130.8,574.8z"/>
	<path class="st0" d="M861.3,716.8c-3.5-0.4-6.3-0.7-8-1.1c-33.8-6.7-59.3-22.5-71.8-44.4c-5.4-9.6-8.4-20.2-9-31.8
		c-9.3-4.2-25.8-13-40.4-27.2c-7.9,21.5-8.4,38.8-1.3,51.5c11.7,21,41,24.2,41.3,24.2l9.7,0.9l0.5,9.7c3.7,75.7,75.4,81.1,78.4,81.3
		c6.2,0.4,10.9,5.7,10.5,11.8c-0.3,6-5.3,10.6-11.2,10.6c-0.2,0-0.4,0-0.6,0c-0.9-0.1-88.9-6.1-98.8-93.7
		c-13.2-3.1-36.7-11.6-49.2-33.8c-12-21.3-10.2-49.1,4.7-82.5c-2.4-3.9-4.7-8.1-6.5-12.5c-9.1-22-8.1-46.2,2.9-71.8
		c-5-8.9-14.3-27.9-19.9-54c-13.4,22.1-28.2,60.2-10.5,105.4l2.4,6.6l-4.7,5.2c-0.7,0.8-68.2,79.6,118.2,257.7
		c0.4,0.4,40.3,38.8,77.8,31.9c19.5-3.6,35.9-19.5,48.6-47.1c13.2-28.6,15.4-51,6.7-66.5C917.3,722.9,878.1,718.6,861.3,716.8z"/>
	<path class="st0" d="M908.8,161c-27.7-9-74.3,19.5-97.4,51c-23.6,32.3-20.8,60.7-16.4,75.8c17.1-12.5,32.3-18,32.6-18.1
		c5.9-2,12.2,1,14.3,6.9c2,5.8-1,12.2-6.9,14.3c-3.2,1.1-76.4,27.6-64.6,102c8,0.9,17.4,3,28.5,6.3c10.2-22.8,26.6-30.8,27.8-31.3
		c5.6-2.6,12.3-0.2,14.9,5.5c2.6,5.6,0.2,12.3-5.5,14.9c-0.3,0.2-35.1,17.1-18.4,88.1c1.4,6-2.3,12.1-8.3,13.5
		c-0.9,0.2-1.7,0.3-2.6,0.3c-5.1,0-9.7-3.5-10.9-8.7c-5.9-25.2-6-45.1-3.3-60.8c-34.5-10.6-44.3-4.4-45.5-3.4
		c-2,3.7-5.8,5.9-9.9,5.9c-1.3,0-2.7-0.2-4-0.7c-5.8-2.2-8.7-8.7-6.5-14.5c1.5-3.8,6.3-12,21.1-14.9c-5.4-40.8,10.1-69.9,29-89.5
		c-3.2-7.7-7.5-21.2-7.3-38.4c-9.2,7.5-24.8,26.3-44.5,73.8c-13.2,31.8-16.1,61.2-14.2,85.9c0,0.4,0.1,0.7,0.1,1.1
		c3.6,44.1,22.2,73.4,23.5,75.2l3.5,5.3l-2.7,5.7c-10.4,21.7-12,41.5-4.9,59c9.1,22.2,30.3,36.7,44.2,44.1c1.2-6,2.9-12.1,5.1-18.5
		c2.1-5.8,8.5-8.9,14.3-6.8c5.8,2.1,8.9,8.5,6.8,14.3c-8,22.6-7.9,41.3,0.3,55.8c9.2,16.2,29.3,28.1,56.7,33.5
		c1.3,0.3,3.4,0.5,6.1,0.8c13,1.4,37.3,4.2,58.1,15.2c4.6-6.3,14.4-27.2,14.4-91.2c0-44.9-3.6-67.4-6.7-78.5
		c-4.7,8-9.9,15.2-15.8,20.7c-10,9.4-21.1,14.2-32.9,14.2c-0.9,0-1.7,0-2.6-0.1c-6.2-0.3-10.9-5.7-10.5-11.8
		c0.4-6.2,5.6-10.9,11.8-10.5c6.6,0.4,12.7-2.3,18.8-8.1c20.9-19.7,33.8-69.1,33.8-103.6c0-27.4-5.1-53.9-8.9-70
		c-6.2,3.1-13,4.7-20.4,4.7c-6.2,0-11.2-5-11.2-11.2c0-6.2,5-11.2,11.2-11.2c6.7,0,12-2.2,16.6-6.9c14-14.1,16.8-46.2,16.7-57.5
		v-62.7C936.3,200.4,931.5,168.5,908.8,161z"/>
</g>
<path class="st1" d="M1171-70.6c0-0.2,0-0.5,0-0.7c0-26.5-10.8-50.5-28.1-67.9c-0.3-0.3-0.6-0.5-0.8-0.8c-0.8-0.8-1.6-1.6-2.4-2.3
	c-0.6-0.5-1.2-1-1.7-1.5c-0.5-0.5-1.1-1-1.6-1.4c-0.8-0.7-1.7-1.4-2.6-2c-0.3-0.2-0.6-0.5-0.9-0.7c-1.1-0.8-2.2-1.7-3.4-2.4
	c0,0-0.1-0.1-0.1-0.1c-14.7-10-32.2-16.1-51.2-16.7c0.6-3.8,1-7.6,1-11.6c0-20.6-8.4-39.2-21.8-52.7c-13.5-13.5-32.1-21.9-52.7-21.9
	c-20.6,0-39.2,8.4-52.7,21.9c-13.5,13.5-21.9,32.1-21.9,52.7c0,4,0.4,7.8,1,11.6c-19,0.6-36.5,6.7-51.2,16.7c0,0,0,0,0,0
	c-1.2,0.8-2.3,1.6-3.5,2.5c-0.3,0.3-0.7,0.5-1,0.8c-0.8,0.6-1.6,1.3-2.4,1.9c-0.8,0.6-1.5,1.3-2.3,2c-0.4,0.3-0.7,0.6-1.1,0.9
	c-1.1,1-2.2,2.1-3.3,3.1c-2.7,2.6-5.1,5.5-7.4,8.4c-12.9,16.4-20.7,37-20.7,59.5c0,0,0,0.1,0,0.1c0,26.4,10.8,50.4,28.1,67.8
	c16.7,16.7,39.5,27.2,64.8,28c-0.6,3.8-1,7.7-1,11.7c0,20.6,8.4,39.2,21.9,52.7c6.5,6.5,14.3,11.8,22.9,15.6h-3.1
	c-12.6,0-22.8,10.2-22.8,22.8c0,12.6,10.2,22.8,22.8,22.8c-12.6,0-22.8,10.2-22.8,22.8c0,12.6,10.2,22.8,22.8,22.8h3.4v910.1
	c0,12,9.8,21.8,21.8,21.8h15.6c12,0,21.8-9.8,21.8-21.8v-72.5h115v-60.3h-115v-16.8h115v-60.3h-115V195.6h3.4
	c12.6,0,22.8-10.2,22.8-22.8c0-12.6-10.2-22.8-22.8-22.8c12.6,0,22.8-10.2,22.8-22.8c0-12.6-10.2-22.8-22.8-22.8h-3.1
	c8.6-3.8,16.3-9,22.9-15.6c13.5-13.5,21.8-32.2,21.8-52.7c0-4-0.4-7.9-1-11.7c25.3-0.8,48.1-11.3,64.8-28
	C1160.2-20.7,1170.9-44.4,1171-70.6z M981.3-202.1c6-5.9,14.2-9.6,23.3-9.6s17.3,3.7,23.3,9.6c5.9,6,9.6,14.2,9.6,23.2
	c0,9.1-3.7,17.3-9.6,23.3c-0.9,0.9-1.8,1.7-2.7,2.4c-1,0.6-1.9,1.1-2.9,1.8c-4.1,2.7-8.6,4.4-13.1,5.1c0,0,0,0,0,0
	c-1.5,0.2-3,0.3-4.5,0.3c-1.5,0-3-0.1-4.5-0.3c0,0,0,0,0,0c-4.5-0.7-9-2.4-13.1-5.1c-0.9-0.6-1.9-1.2-2.9-1.8
	c-1-0.8-1.9-1.6-2.7-2.4c-5.9-6-9.6-14.2-9.6-23.3C971.7-187.9,975.4-196.1,981.3-202.1z M1027.8,59.4c-5.9,6-14.2,9.6-23.3,9.6
	s-17.3-3.7-23.3-9.6c-5.9-5.9-9.6-14.2-9.6-23.3s3.7-17.3,9.6-23.3c0.9-0.9,1.8-1.7,2.8-2.4c0.9-0.6,1.9-1.1,2.9-1.7
	c4.1-2.7,8.5-4.4,12.9-5.1c0.1,0,0.2,0,0.3-0.1c1.4-0.2,2.8-0.3,4.3-0.3c0,0,0.1,0,0.1,0c0,0,0.1,0,0.1,0c1.4,0,2.9,0.1,4.3,0.3
	c0.1,0,0.2,0,0.3,0c4.5,0.7,8.9,2.4,13,5.1c0.9,0.6,1.9,1.2,2.9,1.7c1,0.8,1.9,1.6,2.7,2.4c5.9,6,9.6,14.2,9.6,23.3
	S1033.8,53.4,1027.8,59.4z M1113.5-33c-9.8,9.8-23.4,15.9-38.4,15.9c-5.5,0-10.8-0.8-15.7-2.3c-4.1-1.2-7.8-3-11.4-5.1
	c-9.2-6.6-20-11.2-31.7-13c-0.7-0.1-1.5-0.2-2.2-0.3c-1-0.1-2.1-0.3-3.1-0.3c-2.1-0.2-4.1-0.3-6.2-0.3c-0.1,0-0.1,0-0.2,0
	c-0.1,0-0.1,0-0.2,0c-2.1,0-4.1,0.1-6.2,0.3c-1,0.1-2.1,0.2-3.1,0.3c-0.7,0.1-1.5,0.2-2.2,0.3c-11.7,1.9-22.5,6.4-31.7,13
	c-3.6,2.1-7.3,3.9-11.4,5.1c-4.9,1.5-10.2,2.3-15.7,2.3c-15,0-28.6-6.1-38.4-15.9c-9.8-9.8-15.9-23.4-15.9-38.4
	c0-15,6.1-28.6,15.9-38.4c4.4-4.4,9.6-8,15.3-10.7c7-3.3,14.8-5.2,23.1-5.2c5.9,0,11.4,1.4,16.3,3.7c4.9,2.4,9.2,5.8,12.2,9.8
	c2.4,3.1,3.8,7.7,3.8,12.4c0.1,4-0.9,7.8-3,10.5c-1.3,1.7-3.1,2.9-4.9,3.3c-1.5,0.3-3.2,0-5.1-1.1c-9.9-5.7-22.6-2.3-28.3,7.7
	c-5.7,9.9-2.3,22.6,7.7,28.3c11.4,6.6,23.2,7.9,34,5.8c12.1-2.5,22.6-9.4,29.7-18.4c3.7-4.8,6.4-10.1,8.3-15.7
	c1.9,5.6,4.6,10.9,8.3,15.7c7.1,9.1,17.6,16,29.7,18.5c10.8,2.2,22.6,0.8,33.9-5.8c9.9-5.7,13.4-18.4,7.7-28.3
	c-5.7-9.9-18.4-13.4-28.3-7.7c-1.9,1.1-3.6,1.4-5.1,1.1c-1.9-0.4-3.6-1.6-4.9-3.3c-2.1-2.7-3-6.6-3-10.5c0.1-4.7,1.5-9.2,3.8-12.4
	c3-4,7.3-7.4,12.2-9.8c4.8-2.3,10.4-3.7,16.3-3.7c12,0,23.1,4,32.1,10.6c2.2,1.6,4.4,3.4,6.3,5.4c9.8,9.8,15.9,23.4,15.9,38.4
	C1129.4-56.4,1123.3-42.8,1113.5-33z"/>
</svg>
