<?xml version="1.0" encoding="utf-8"?>
<!-- Generator: Adobe Illustrator 19.0.1, SVG Export Plug-In . SVG Version: 6.00 Build 0)  -->
<svg version="1.1" xmlns="http://www.w3.org/2000/svg" xmlns:xlink="http://www.w3.org/1999/xlink" x="0px" y="0px"
	 viewBox="0 0 800 800" style="enable-background:new 0 0 800 800;" xml:space="preserve">
<style type="text/css">
	.st0{fill:#5E3EFF;}
	.st1{clip-path:url(#SVGID_2_);fill:url(#SVGID_3_);}
	.st2{fill:#223C72;}
	.st3{fill:#EFEBE7;}
	.st4{fill:#ED3726;}
	.st5{fill:#2F3E67;}
</style>
<g id="comp_x5F_Japan">
	<g>
		<circle class="st0" cx="399.8" cy="400.4" r="204.8"/>
		<g>
			<g>
				<defs>
					<path id="SVGID_1_" d="M399.8,202.2c-88.6,0-169.2,60.1-191.5,150C182.2,458,246.7,565.1,352.6,591.3
						c105.9,26.2,212.9-38.4,239.1-144.2c26.2-105.8-38.4-212.9-144.2-239.1C431.5,204,415.6,202.2,399.8,202.2
						C399.8,202.2,399.8,202.2,399.8,202.2"/>
				</defs>
				<clipPath id="SVGID_2_">
					<use xlink:href="#SVGID_1_"  style="overflow:visible;"/>
				</clipPath>
				
					<radialGradient id="SVGID_3_" cx="-1587.832" cy="2388.2556" r="1" gradientTransform="matrix(197.4678 0 0 -197.4678 313945.6875 472003.1875)" gradientUnits="userSpaceOnUse">
					<stop  offset="0" style="stop-color:#FFFFFF"/>
					<stop  offset="0.7809" style="stop-color:#FFFFFF"/>
					<stop  offset="0.8188" style="stop-color:#F9F8F8"/>
					<stop  offset="0.8756" style="stop-color:#E9E6E3"/>
					<stop  offset="0.9441" style="stop-color:#CFC8C2"/>
					<stop  offset="1" style="stop-color:#B5ABA1"/>
				</radialGradient>
				<rect x="182.2" y="202.2" class="st1" width="435.7" height="415.3"/>
			</g>
			<g>
				<path class="st2" d="M208.4,352.2C234.6,246.3,341.6,181.8,447.4,208C553.3,234.2,617.8,341.2,591.6,447
					c-26.2,105.8-133.2,170.4-239.1,144.2C246.7,565.1,182.2,458,208.4,352.2"/>
			</g>
			<g>
				<path class="st3" d="M540.1,260.4l-79.4,52.9V211.8c-4.3-1.4-8.7-2.7-13.2-3.8c-37.2-9.2-74.6-7.2-108.6,3.9v101.5l-79.1-52.7
					c-18.1,18.2-32.8,40.2-42.8,65.1l20.9,14h-26c-1.3,4.1-2.5,8.3-3.5,12.5c-9.3,37.5-7.2,75.2,4.1,109.3h25.9l-20.7,13.8
					c10,24.1,24.8,46.2,43.5,64.6l77.7-51.8v99.1c4.5,1.5,9.1,2.8,13.7,3.9c37.1,9.2,74.3,7.2,108.1-3.7v-99.3l78,52
					c18.3-18,33.3-39.8,43.6-64.6l-21.1-14.1h26.4c1.6-4.7,3-9.6,4.2-14.5c9.1-36.8,7.2-73.7-3.5-107.4h-26.5l21.4-14.2
					C573.1,301.2,558.5,279.1,540.1,260.4"/>
			</g>
			<g>
				<path class="st4" d="M308.5,339.7l-73.3-48.8c-4.9,7.4-9.3,15.2-13.2,23.3l38.3,25.5H308.5z M564.6,290.5
					c-4.9-7.4-10.4-14.5-16.3-21.3l-87.6,58.3v12.1h30L564.6,290.5z M235.7,509.1c4.9,7.4,10.4,14.5,16.3,21.2l86.8-57.7v-11h-31.7
					L235.7,509.1z M594.4,365.1H435.3V205.4c-24.1-4.4-48.1-4.2-71.1,0v159.6H205.6c-4.3,24.1-4,48.1,0.3,71.1h158.3v157.6
					c24.1,4.5,48.1,4.3,71.1,0.2V436.1H594C598.6,412,598.5,388,594.4,365.1 M492.4,461.5l71.8,47.8c4.9-7.4,9.4-15.1,13.3-23.2
					l-36.9-24.6L492.4,461.5z"/>
			</g>
			<g>
				<path class="st5" d="M460.7,232.3L460.7,232.3v12.8c0.8-2.4,1.2-4.7,1.2-6.9C461.9,236.1,461.5,234.1,460.7,232.3"/>
			</g>
		</g>
	</g>
</g>
<g id="Layer_1">
</g>
</svg>
