<?xml version="1.0" encoding="utf-8"?>
<!-- Generator: Adobe Illustrator 19.0.1, SVG Export Plug-In . SVG Version: 6.00 Build 0)  -->
<svg version="1.1" id="Layer_1" xmlns="http://www.w3.org/2000/svg" xmlns:xlink="http://www.w3.org/1999/xlink" x="0px" y="0px"
	 viewBox="283 -283.9 1417.3 1417.3" style="enable-background:new 283 -283.9 1417.3 1417.3;" xml:space="preserve">
<g>
	<path d="M827.2,423.2c0.9-5.2,1.7-10.5,2.8-15.6c7.6-37,28.5-64.8,60.2-84.5c17.3-10.7,35.7-10.9,52.9,0.1
		c41.5,26.5,63,64.3,62.7,113.9c-0.1,8.7-5.6,14.7-13.4,15.1c-7.7,0.4-13.9-5-14.8-13.8c-1.4-12.3-4-24.3-9.5-35.5
		c-0.9-1.8-1.9-3.5-2.8-5.2c-0.5,0-1,0.1-1.5,0.1c0.4,6.8-0.2,13.8,1.5,20.2c9.8,37.1,20.2,74.1,30.4,111.1
		c2.8,10.2-0.1,14.1-10.5,14.1c-7.6,0-15.3,0-23.5,0c-0.4,6.8-0.9,13.4-1.3,20c-1.6,28.4-3.4,56.9-4.5,85.3
		c-0.4,9.7-3.6,16.6-12.5,20.6c-2.7,0-5.3,0-8,0c-9.6-3.8-12.8-11.1-13.1-21.1c-1.1-32.6-2.8-65.1-4.2-97.7
		c-0.1-2.1-0.4-4.2-0.6-6.3c-1.1,0.9-1.2,1.7-1.3,2.5c-1.9,34.2-4.1,68.4-5.6,102.6c-0.4,9.8-4,16.5-13.2,20c-2.3,0-4.7,0-7,0
		c-9.3-3.4-12.9-10.1-13.3-20c-1-30.6-2.6-61.2-4-91.8c-0.2-4.6-0.6-9.2-0.9-14.1c-8.1,0-15.7,0-23.4,0c-10.8,0-13.9-3.9-11-14.2
		c10.2-37,20.5-74,30.3-111.1c1.7-6.5,1.3-13.6,1.9-20.5c-0.5-0.1-1.1-0.2-1.6-0.4c-1.7,3.3-3.9,6.5-4.9,10
		c-2.9,10.9-5.5,21.8-8,32.8c-1.4,6.2-5.7,11.1-11.7,12.1c-6,1-11.8-2.1-14.8-7.8c-0.5-1-1.1-2-1.6-3
		C827.2,435.2,827.2,429.2,827.2,423.2z"/>
	<path d="M1156.1,530.2c-2.9,1.9-5.7,4.7-8.9,5.3c-4,0.9-7.2-3-8.3-7.6c-1.5-6.8-3.2-13.6-5-20.3c-0.4-1.6-1.5-3.1-2.3-4.6
		c-0.5,0.1-1,0.3-1.5,0.4c0.4,3.5,0.5,7.1,1.4,10.5c5.8,23.7,11.9,47.4,17.8,71.2c1.6,6.4-0.5,9-7.1,9.1c-4.3,0-8.6,0-13.3,0
		c-0.6,10.1-1.2,19.7-1.7,29.3c-0.7,11.3-1.2,22.6-1.9,33.9c-0.4,6.6-4.4,10.8-10.1,10.7c-5.6-0.1-9.7-4.5-10-10.9
		c-0.9-19.1-1.8-38.3-2.6-57.4c-0.1-1.5-0.2-2.9-1.2-4.4c-0.4,4.9-0.8,9.8-1.1,14.8c-0.8,15-1.6,29.9-2.4,44.9
		c-0.1,1.7-0.2,3.3-0.5,5c-1.1,5-5.1,8.2-9.9,8.2c-4.8-0.1-9.1-3.4-9.5-8.6c-0.9-10.8-1.3-21.6-1.8-32.4c-0.5-10.8-1-21.6-1.5-32.9
		c-5,0-9.6,0-14.2,0c-7.2,0-8.1-1.1-6.4-7.9c5.9-23.7,11.8-47.5,17.6-71.2c0.9-3.8,1.2-7.8,1.7-11.7c-0.5-0.2-0.9-0.3-1.4-0.5
		c-1.1,2.2-2.6,4.3-3.3,6.6c-1.7,6.1-3.1,12.2-4.4,18.4c-1.1,4.9-4.4,8.1-8.8,7.9c-4.7-0.2-8.3-3.8-8.3-8.9
		c-0.2-31,13.1-54.5,39.5-70.5c10.8-6.5,22.1-5.4,32.6,1.5c19.6,12.9,31.9,30.8,35.9,54.1c0.1,0.8,0.6,1.5,0.9,2.2
		C1156.1,519.6,1156.1,524.9,1156.1,530.2z"/>
	<path d="M1019.1,180.3c3.6,1.2,7.3,2.2,10.8,3.7c22.2,9.3,34.2,32.5,29.2,56.3c-4.7,22.3-26.3,39.2-49,38.6
		c-24.4-0.7-44.2-17.7-48.1-41.4c-4.2-25.6,11.6-49.6,36.9-56.2c1.1-0.3,2.2-0.7,3.3-1.1C1007.8,180.3,1013.5,180.3,1019.1,180.3z"
		/>
	<path d="M1101.1,383.6c-18.9,5-21.6,6.8-31.4,20.3c-2.8-8.3-5.5-16.4-8.3-24.6c-0.4,0.1-0.9,0.2-1.3,0.3c0,1.6,0,3.1,0,4.7
		c0,26.7,0.1,53.3-0.2,80c0,2.9-1.2,6.2-2.8,8.6c-11.2,16.4-16.5,34.4-16,54.1c0.2,7.4,3.6,13.2,10.4,16.4c3.2,1.5,4.1,3.3,3.6,6.5
		c-2.2,12.8-4.3,25.5-6.5,38.3c-0.7,4-2.7,8.3,3.1,10.5c0.5,0.2,0.7,2,0.7,3.1c-0.8,16.6-1.5,33.3-2.5,49.9
		c-0.6,9.3-8.2,16.1-17.2,16.1c-8.9-0.1-16.3-6.6-16.8-15.8c-1.2-20.6-1.9-41.3-2.8-61.9c-0.8-17.6-1.5-35.2-2.8-52.9
		c-0.7,13.9-1.5,27.8-2.2,41.7c-1.2,24-2.4,47.9-3.8,71.9c-0.6,10.4-8.1,17.4-17.7,17c-9.4-0.4-16.1-7.7-16.6-17.8
		c-0.9-20.8-2.1-41.6-2.6-62.4c-0.3-12.8,0.6-25.5,0.9-38.8c7.5,0,14.2,0,20.8,0c11.2-0.1,16-5.8,13.1-16.7
		c-5.7-22.1-11.8-44-17.8-66c-0.4-1.6-0.8-3.2-1.2-5.2c8.4,1.3,15.9-0.3,22-6c5.2-4.7,7.9-10.6,8-17.7c1.1-48.1-18-86.5-55.6-116
		c-0.9-0.7-1.9-1.4-2.8-2.1c-0.3-0.2-0.4-0.5-1.1-1.3c15.2-12.6,27.7-28.7,48.9-32.5c14.9-2.7,28.1,1.3,40.2,9.6
		c27.1,18.5,43.7,44.7,54,75.3C1098.5,374.3,1099.7,378.8,1101.1,383.6z"/>
	<path d="M965.4,265.3c-0.1,26-21.4,47.2-47.6,47c-26.1-0.1-47.2-21.5-47.1-47.6c0.2-26.1,21.7-47.3,47.7-47.1
		C944.8,217.9,965.5,238.9,965.4,265.3z"/>
	<path d="M1101.6,449.4c-16.1-0.1-28.8-12.8-28.7-28.9c0.1-15.7,12.8-28.7,28.4-28.8c16.2-0.1,29.3,12.8,29.3,29
		C1130.7,436.6,1117.6,449.4,1101.6,449.4z"/>
</g>
</svg>
