<?xml version="1.0" encoding="utf-8"?>
<!-- Generator: Adobe Illustrator 19.0.1, SVG Export Plug-In . SVG Version: 6.00 Build 0)  -->
<svg version="1.1" id="Layer_1" xmlns="http://www.w3.org/2000/svg" xmlns:xlink="http://www.w3.org/1999/xlink" x="0px" y="0px"
	 viewBox="283 -283.9 1417.3 1417.3" style="enable-background:new 283 -283.9 1417.3 1417.3;" xml:space="preserve">
<style type="text/css">
	.st0{display:none;}
	.st1{display:inline;}
	.st2{fill:#231F20;}
	.st3{display:inline;fill:#231F20;}
</style>
<g class="st0">
	<g class="st1">
		<path class="st2" d="M612.4-106.9c-4.2,8.5-4.7,15.4-1.3,20.8c4.2,4.8,11,6.3,20.3,4.6c9.3-1.7,18-5.6,26-11.6l25.4-19.1
			l89.3,35.3c1.4,0.7,2.9,0.5,4.3-0.5l20.3-15.3c1.2-0.9,1.8-2.1,1.8-3.6c-0.1-1.5-0.7-2.7-1.9-3.7l-65.1-48.8l41.1-30.9l25.9,11.2
			c0.2,0.1,0.5,0.2,1.1,0.3c1.3,0.2,2.4-0.1,3.4-0.8l15.3-11.6c1.1-1,1.7-2.1,1.7-3.3c0-1.5-0.4-2.7-1.3-3.5l-31.3-31.3l-21.3-38.8
			c-0.7-1.1-1.7-1.9-3.1-2.3l-0.3,0c-1.3-0.2-2.4,0.1-3.4,0.8l-15.2,11.4c-1.4,1.1-2,2.5-1.7,4.2l3.5,28L705-184.3l-28.7-76.1
			c-0.4-1.3-1.3-2.2-2.6-2.6c-0.3-0.1-0.6-0.2-1-0.3c-1.1-0.2-2,0-2.8,0.5l-19.7,10.8c-1.8,1.1-2.5,2.5-2.3,4.4l8.5,99.9l-25.6,19.2
			C622.8-122.6,616.7-115.4,612.4-106.9L612.4-106.9z M612.4-106.9"/>
		<path class="st2" d="M1333.8,102.7c-89.3-89.3-208-138.4-334.2-138.4S754.7,13.4,665.4,102.7S527,310.7,527,436.9
			s49.2,244.9,138.4,334.2s208,138.4,334.2,138.4s244.9-49.2,334.2-138.4c89.3-89.3,138.4-208,138.4-334.2S1423.1,192,1333.8,102.7z
			 M1221.1,167.4l20.8-86.3c82.7,56.5,144.8,141.1,172.5,239.9l-10.9,2.1c-16.3,3.1-29.3,15.5-33.3,31.6l-4.2,17
			c0,0.2-0.1,0.3-0.4,0.4c-0.3,0.1-0.4,0-0.6-0.1l-25.2-18.9c-13.1-9.8-30.9-11.2-45.3-3.7L1263,366c-15.1,7.9-23.8,23.4-22.8,40.4
			c1,17,11.6,31.3,27.6,37.3l1.5,0.6c0.2,0.1,0.3,0.1,0.4,0.4c0.1,0.3,0,0.4-0.1,0.5l-19.6,22.5c-0.2,0.2-0.5,0.3-0.8,0.1
			l-52.8-34.1c-12.1-7.8-27.2-9-40.4-3.1c-13.2,5.9-22.4,17.8-24.8,32.1l-4.1,24.9c-2.3,14.1,2.5,28.3,12.9,38l27.6,25.8
			c0.2,0.2,0.3,0.5,0.1,0.8l-44.9,68.1c-4.3,6.5-6.7,14-7,21.8l-3.9,97.5c0,0.2-0.1,0.3-0.2,0.4l-59.8,58.6
			c-0.2,0.2-0.5,0.2-0.7,0.1l-38.8-22.7c-0.1-0.1-0.3-0.2-0.3-0.4c0,0-18.8-85.4-19.5-87.3l-17.1-45.9
			c-5.7-15.3-19.9-26.2-36.2-27.6l-78.3-6.8c-0.2,0-0.4-0.1-0.5-0.3l-44.5-76.8c-0.1-0.1-0.1-0.3-0.1-0.4l11.2-74.5
			c0-0.2,0.1-0.3,0.2-0.4l68.4-51.6c0.2-0.1,0.4-0.2,0.6-0.1l66.3,27.6c3.8,1.6,7.7,2.6,11.8,3l91.8,10c10.5,1.1,20.9-1.6,29.4-7.7
			l60.8-43.6c16.4-11.7,22.3-33.6,14.1-52l-5.6-12.6c-6.5-14.7-20.6-24.3-36.6-25.2L957.3,294c-0.1,0-0.2,0-0.3-0.1
			c-0.2-0.1-0.3-0.2-0.3-0.2v0c-0.1-0.2,0-0.7,0.1-0.8c0,0,0.1-0.1,0.3-0.1l51.3-13.8c6.8-1.8,13.1-5.3,18.2-10.2l62.7-59.2
			c0.1-0.1,0.2-0.1,0.4-0.2l94.4-9.7C1202,198,1216.9,185,1221.1,167.4z M901.5,132.7l35.3-66.4c5.2-9.8,6.9-21.2,4.6-32.1
			l-4.8-23.3c20.6-3,41.6-4.6,63-4.6c21.6,0,42.8,1.6,63.5,4.7c0,0-5.1,5.5-5.9,5.9l-50,20c-7.1,2.9-13.6,7.5-18.6,13.3l-77.8,91
			c-1.1,1.2-2.6,2-4.2,2.1c-2.5,0.1-4-1.3-4.7-2.1C899.1,138.1,901.2,133.2,901.5,132.7z M717.9,111.5v63c0,17.6-8.8,33.8-23.6,43.4
			l-45.2,29.3c-10.5,6.8-19.4,15.5-26.4,25.8l-41.1,60.2C603.3,245.7,651.8,168.7,717.9,111.5z M745.4,731.5l-6,48.3
			C672.1,728.6,620.2,658,592.2,576.5h26.7c3.3,0,6.3,1.7,8.1,4.4l54,84.2c2.4,3.8,5.3,7.2,8.7,10.3l52.6,48
			C744.6,725.4,745.7,728.5,745.4,731.5z M999.6,867.5c-80.8,0-156.4-22.4-221.1-61.2l8.6-69.6c2-16.6-4.1-33.2-16.4-44.4
			c0,0-53.7-49.2-54.2-49.8l-54-84.2c-9.5-14.9-25.8-23.7-43.4-23.7h-38.8c-7.3-31.4-11.1-64-11.1-97.6c0-3.6,0-7.2,0.1-10.8
			l88.3-129.4c3.9-5.7,8.8-10.5,14.6-14.3l45.2-29.3c26.8-17.4,42.7-46.8,42.7-78.6V79.3c40.8-27.4,86.5-48,135.5-60.3l4.8,23.6
			c0.3,1.3,0.1,2.7-0.6,3.9L864.4,113c-2.2,4.1-5.1,15-5.1,15c-2.9,14.5,1,29.2,10.6,40.5c9.2,10.7,22.3,16.7,36.3,16.7
			c0.7,0,21,1,36.4-16.8l77.8-91c0.6-0.7,1.4-1.3,2.3-1.6l50-20c7.1-2.8,13.5-7.4,18.5-13.2l18.9-21.9c33.2,8.8,64.8,21.5,94.4,37.6
			c-0.5,1.1-24.3,99.3-24.3,99.3c-0.1,0.2-0.3,0.4-0.5,0.5l-94.4,9.7c-9.3,1-18.1,5-24.9,11.4l-62.7,59.2c-0.1,0.1-0.2,0.1-0.3,0.1
			l-51.3,13.8c-16.7,4.5-29,18.5-31.2,35.7c-2.2,17.2,6.1,33.8,21.1,42.4c5.7,3.3,12.2,5.2,18.8,5.6l170.8,9.3
			c0.2,0,0.4,0.2,0.5,0.4l5.6,12.6c0.1,0.3,0,0.6-0.2,0.7l-60.8,43.6c-0.1,0.1-0.3,0.1-0.4,0.1l-91.9-10l-66.3-27.6
			c-13.9-5.8-30-3.8-42.1,5.3L801.9,422c-9,6.8-14.8,16.6-16.5,27.7l-11.2,74.5c-1.4,9.5,0.4,19.4,5.3,27.7l44.5,76.8
			c7,12,19.4,19.9,33.2,21.1l78.3,6.8c0.2,0,0.4,0.2,0.5,0.4l17.1,46l17.8,81.5c2.5,11.6,9.9,21.7,20.1,27.7l38.8,22.7
			c6.7,3.9,14.1,5.8,21.5,5.8c10.9,0,21.7-4.2,29.9-12.2l59.8-58.6c7.8-7.6,12.3-17.8,12.8-28.7l3.9-97.5c0-0.1,0-0.2,0.1-0.3
			l44.9-68.1c11.5-17.4,8.8-40.4-6.5-54.6l-27.6-25.8c-0.1-0.1-0.2-0.3-0.2-0.5l4.1-24.9c0-0.2,0.1-0.3,0.4-0.5
			c0.3-0.1,0.4-0.1,0.6,0l52.8,34.1c17.7,11.4,41.4,8,55.3-7.8l19.6-22.5c9.2-10.5,12.6-24.9,9.2-38.4s-13.3-24.5-26.3-29.4
			l-1.5-0.6c-0.2-0.1-0.3-0.1-0.3-0.1c-0.1-0.2-0.1-0.6-0.1-0.8c0,0,0.1-0.1,0.3-0.2l31.5-16.5c0.2-0.1,0.5-0.1,0.6,0.1l25.2,18.9
			c11.5,8.6,26.4,10.9,39.9,6.1c13.5-4.8,23.6-16,27.1-29.9l4.2-17c0.1-0.2,0.2-0.4,0.5-0.5l12.3-2.4c4.3,24.3,6.5,49.3,6.5,74.9
			C1430.2,674.4,1237,867.5,999.6,867.5z"/>
	</g>
	<path class="st3" d="M1014.2-193.6c363,12.8,648.9,333.7,603.7,708.5c-34.6,286.9-266.4,516.7-553.6,548.9
		c-380.3,42.8-703.6-255-703.6-626.9c0-168.1,65.3-326.3,184-445.4c8.8-8.8,8.8-23.1,0-31.9c-8.8-8.7-23.1-8.7-31.9,0
		C383.4,89.6,313.1,262.9,315.7,446.6c4.9,350.8,285.2,644.6,635.5,665.2c391,22.9,716.5-288.7,716.5-674.8
		c0-372.9-303.4-676.2-676.4-676c-12.3,0-22.2,10.3-22.2,22.5v1.8c0,11.5,9.3,20.9,20.9,21L1014.2-193.6L1014.2-193.6"/>
</g>
<g>
	<path class="st2" d="M567.1,294.8h372.5c14.3,0,25.9,11.6,25.9,25.9l0.1,18.5h51.7v-18.5c0-42.8-34.8-77.6-77.6-77.6H567.1
		c-14.3,0-25.9-11.6-25.9-25.9c0-14.3,11.6-25.9,25.9-25.9h848.6c42.8,0,77.6-34.8,77.6-77.6c0-42.8-34.8-77.6-77.6-77.6H660.1
		c-14.3,0-25.9-11.6-25.9-25.9c0-14.3,11.6-25.9,25.9-25.9h662.4c42.8,0,77.6-34.8,77.6-77.6c0-42.8-34.8-77.6-77.6-77.6h-279.5
		c-14.3,0-25.9-11.6-25.9-25.9v-26.8c0-14.3-11.6-25.9-25.9-25.9s-25.9,11.6-25.9,25.9v26.8c0,42.8,34.8,77.6,77.6,77.6h279.5
		c14.3,0,25.9,11.6,25.9,25.9c0,14.3-11.6,25.9-25.9,25.9H660.1c-42.8,0-77.6,34.8-77.6,77.6c0,42.8,34.8,77.6,77.6,77.6h755.5
		c14.3,0,25.9,11.6,25.9,25.9c0,14.3-11.6,25.9-25.9,25.9H567.1c-42.8,0-77.6,34.8-77.6,77.6C489.4,260,524.2,294.8,567.1,294.8z"/>
	<path class="st2" d="M1250.6,339.2h-239l0,0h-40.5l0,0h-239c-120.9,0-219.2,98.3-219.2,219.2c0,120.9,98.3,219.2,219.2,219.2
		c68.8,0,133.4-32.3,174.8-86.9h168.9c41.4,54.6,105.9,86.9,174.8,86.9c120.9,0,219.2-98.3,219.2-219.2
		C1469.8,437.6,1371.4,339.2,1250.6,339.2z M1250.6,737.2c-59.1,0-114.3-29.2-147.7-78.1c-3.8-5.5-10-8.8-16.7-8.8H896.5
		c-6.7,0-12.9,3.3-16.7,8.8c-33.4,48.9-88.6,78.1-147.7,78.1c-98.6,0-178.8-80.2-178.8-178.8c0-98.6,80.2-178.8,178.8-178.8h518.4
		c98.6,0,178.8,80.2,178.8,178.8C1429.3,657,1349.1,737.2,1250.6,737.2z"/>
	<path class="st2" d="M732.1,429.5c-71.1,0-129,57.9-129,129c0,71.1,57.9,129,129,129c71.1,0,129-57.8,129-129
		C861.1,487.3,803.2,429.5,732.1,429.5L732.1,429.5z M732.1,646.9c-48.8,0-88.5-39.7-88.5-88.5c0-48.8,39.7-88.5,88.5-88.5
		c48.8,0,88.5,39.7,88.5,88.5C820.6,607.2,780.9,646.9,732.1,646.9L732.1,646.9z M732.1,646.9"/>
	<path class="st2" d="M1176.4,528.2c-16.8,0-30.3,13.6-30.3,30.4c0,16.7,13.6,30.3,30.3,30.3h0c16.8,0,30.3-13.6,30.3-30.4
		C1206.7,541.7,1193.1,528.2,1176.4,528.2L1176.4,528.2z M1176.4,528.2"/>
	<path class="st2" d="M1324.6,527.9c-16.8,0-30.3,13.7-30.2,30.4c0,16.7,13.6,30.2,30.3,30.2h0.1c16.8-0.1,30.3-13.7,30.3-30.4
		C1355,541.4,1341.4,527.8,1324.6,527.9L1324.6,527.9z M1324.6,527.9"/>
	<path class="st2" d="M1250.7,602.3h-0.2c-16.8,0-30.3,13.6-30.3,30.3c0,16.7,13.6,30.3,30.3,30.3h0.4c16.8-0.1,30.3-13.7,30.2-30.5
		C1281.1,615.7,1267.5,602.2,1250.7,602.3L1250.7,602.3z M1250.7,602.3"/>
	<path class="st2" d="M1250.4,514.6L1250.4,514.6c16.8,0,30.4-13.7,30.3-30.4c0-16.8-13.7-30.3-30.4-30.3
		c-16.8,0-30.3,13.6-30.3,30.4C1220.1,501.1,1233.7,514.6,1250.4,514.6L1250.4,514.6z M1250.4,514.6"/>
	<path class="st2" d="M752.3,538.2V510c0-11.2-9.1-20.2-20.2-20.2c-11.2,0-20.2,9.1-20.2,20.2v28.3h-28.3
		c-11.2,0-20.2,9.1-20.2,20.2c0,11.2,9.1,20.2,20.2,20.2h28.3v28.3c0,11.2,9.1,20.2,20.2,20.2c11.2,0,20.2-9.1,20.2-20.2v-28.3h28.3
		c11.2,0,20.2-9.1,20.2-20.2c0-11.2-9.1-20.2-20.2-20.2H752.3z M752.3,538.2"/>
	<path class="st2" d="M959.1,572.2h-38.7c-11.2,0-20.2,9.1-20.2,20.2c0,11.2,9.1,20.2,20.2,20.2h38.7c11.2,0,20.2-9.1,20.2-20.2
		C979.3,581.3,970.2,572.2,959.1,572.2L959.1,572.2z M959.1,572.2"/>
	<path class="st2" d="M1062.3,572.2h-38.7c-11.2,0-20.2,9.1-20.2,20.2c0,11.2,9.1,20.2,20.2,20.2h38.7c11.2,0,20.2-9.1,20.2-20.2
		C1082.6,581.3,1073.5,572.2,1062.3,572.2L1062.3,572.2z M1062.3,572.2"/>
	<path class="st2" d="M969.1-205.8c-363,12.8-648.9,333.7-603.7,708.5C400,789.6,631.8,1019.3,919,1051.6
		c380.3,42.8,703.6-255,703.6-626.9c0-168.1-65.3-326.3-184-445.4c-8.8-8.8-8.8-23.1,0-31.9c8.8-8.7,23.1-8.7,31.9,0
		c129.4,129.9,199.7,303.1,197.1,486.9c-4.9,350.8-285.2,644.6-635.5,665.2c-391,22.9-716.5-288.7-716.5-674.8
		c0-372.9,303.4-676.2,676.4-676c12.3,0,22.2,10.3,22.2,22.5v1.8c0,11.5-9.3,20.9-20.9,21L969.1-205.8L969.1-205.8"/>
</g>
<g class="st0">
	<path class="st3" d="M1283.6,534c-2.4,2.5-3.8,6-3.8,9.3c0,3.4,1.3,6.8,3.8,9.3c2.5,2.4,5.9,3.8,9.3,3.8c3.5,0,6.8-1.5,9.3-3.8
		c2.4-2.5,3.8-5.9,3.8-9.3c0-3.4-1.4-6.8-3.8-9.3C1297.3,529.3,1288.6,529.2,1283.6,534L1283.6,534z M1283.6,534"/>
	<path class="st3" d="M908.3,507.4l-47.6-24.3V478c21.3-11.6,36.3-30.8,44.7-57.1c12.7-6.8,20.8-19.8,20.8-34.5v-13.1
		c0-12.1-5.6-23.4-15.1-30.8c-8.2-49.5-42.7-74.6-102.8-74.6c-2.9,0-5.6,0.1-8.3,0.3c-11.4,0.9-27.9,0-42.3-9.7
		c-5.4-3.6-9.4-7.2-12-10.4c-4.4-5.6-11.8-7.6-18.3-4.9c-6.6,2.7-10.4,9.3-9.6,16.4c0.6,4.9,1.4,10.5,2.6,16.8
		c2.6,12.7,2.6,12.7-1,20.4c-1.3,2.9-2.9,6.4-4.9,11.2c-4.3,10.5-7.4,22.2-9.1,34.6c-9.3,7.4-14.8,18.6-14.8,30.6v13.1
		c0,14.7,8.1,27.7,20.8,34.5c8.4,26.4,23.3,45.5,44.7,57.2v4.9l-49.4,24.3c-18,9.8-29.2,28.7-29.2,49.2v17.3c0,10.5,0,35.1,131,35.1
		c131,0,131-24.6,131-35.1v-16.3C939.3,536.2,927.4,517,908.3,507.4L908.3,507.4z M913.1,570.9c-8.1,4.9-41.4,11.9-104.7,11.9
		s-96.6-7-104.8-11.9v-14.4c0-10.9,6-21,15.1-26l50.5-24.9c7.9-3.8,13-12,13-20.8v-23.6l-7.9-3.5c-19.9-8.5-32.8-24.9-39.5-49.9
		l-1.9-7l-6.9-2.1c-5.5-1.7-9.3-6.8-9.3-12.4v-13.1c0-4.7,2.7-9.2,7.1-11.5l6.1-3.3l0.7-6.9c1.3-12.3,4-23.6,8.2-33.6
		c1.7-4.3,3.2-7.5,4.4-10c4.4-9.6,6.1-14.5,4.9-24.6c15.4,8.8,33.9,12.5,54,11c2-0.2,4.2-0.3,6.3-0.3c49,0,73,17.8,77.6,57.6
		l0.8,6.8l6.1,3.2c4.4,2.3,7.1,6.7,7.1,11.5v13.1c0,5.6-3.8,10.7-9.3,12.4l-6.9,2.1l-1.9,7c-6.7,25.1-19.6,41.5-39.5,49.9l-7.9,3.5
		V485c0,8.7,4.9,16.6,12.7,20.6l49.4,25.2l0,0.1c10.2,5.1,16.5,15.4,16.5,26.7V570.9z M913.1,570.9"/>
	<path class="st3" d="M1004.8,334h131c7.2,0,13.1-5.9,13.1-13.1c0-7.2-5.9-13.1-13.1-13.1h-131c-7.2,0-13.1,5.9-13.1,13.1
		C991.7,328.1,997.5,334,1004.8,334L1004.8,334z M1004.8,334"/>
	<path class="st3" d="M1017.9,530.5h-13.1c-7.2,0-13.1,5.8-13.1,13c0,7.3,5.9,13.1,13.1,13.1h13.1c7.2,0,13-5.8,13-13.1
		C1030.9,536.3,1025.1,530.5,1017.9,530.5L1017.9,530.5z M1017.9,530.5"/>
	<path class="st3" d="M1096.4,530.5h-26.1c-7.2,0-13.1,5.8-13.1,13c0,7.3,5.9,13.1,13.1,13.1h26.1c7.3,0,13.1-5.8,13.1-13.1
		C1109.5,536.3,1103.7,530.5,1096.4,530.5L1096.4,530.5z M1096.4,530.5"/>
	<path class="st3" d="M1161.9,530.5h-13c-7.3,0-13.1,5.8-13.1,13c0,7.3,5.8,13.1,13.1,13.1h13c7.3,0,13.1-5.8,13.1-13.1
		C1175,536.3,1169.2,530.5,1161.9,530.5L1161.9,530.5z M1161.9,530.5"/>
	<path class="st3" d="M1240.5,530.5h-26.1c-7.3,0-13.1,5.8-13.1,13c0,7.3,5.8,13.1,13.1,13.1h26.1c7.2,0,13.1-5.8,13.1-13.1
		C1253.6,536.3,1247.7,530.5,1240.5,530.5L1240.5,530.5z M1240.5,530.5"/>
	<path class="st3" d="M1292.9,386.4h-288.1c-7.2,0-13.1,5.8-13.1,13.1c0,7.2,5.9,13,13.1,13h288.1c7.3,0,13.1-5.8,13.1-13
		C1306,392.2,1300.2,386.4,1292.9,386.4L1292.9,386.4z M1292.9,386.4"/>
	<path class="st3" d="M1292.9,465h-288.1c-7.2,0-13.1,5.8-13.1,13c0,7.3,5.9,13.1,13.1,13.1h288.1c7.3,0,13.1-5.8,13.1-13.1
		C1306,470.8,1300.2,465,1292.9,465L1292.9,465z M1292.9,465"/>
	<path class="st3" d="M1323.3,137.3h-239.9V36.6c0-16.8-13.6-30.3-30.3-30.3H930.3c-16.7,0-30.3,13.6-30.3,30.3v100.7H660
		c-33.8,0-61.3,27.5-61.3,61.3v427.6c0,33.8,27.5,61.3,61.3,61.3h663.3c33.8,0,61.3-27.5,61.3-61.3V198.5
		C1384.6,164.8,1357.1,137.3,1323.3,137.3L1323.3,137.3z M926.2,36.6c0-2.3,1.9-4.1,4.1-4.1H1053c2.2,0,4.1,1.8,4.1,4.1v175.2
		c0,2.2-1.8,4.1-4.1,4.1H930.3c-2.2,0-4.1-1.9-4.1-4.1V36.6z M1358.3,626.1c0,19.3-15.7,35.1-35,35.1H660c-19.3,0-35-15.7-35-35.1
		V198.5c0-19.3,15.7-35,35-35h239.9v48.3c0,16.7,13.6,30.2,30.3,30.2H1053c16.7,0,30.3-13.6,30.3-30.2v-48.3h239.9
		c19.3,0,35,15.7,35,35V626.1z M1358.3,626.1"/>
	<path class="st3" d="M991.7,150.4c28.9,0,52.4-23.5,52.4-52.4c0-28.9-23.5-52.5-52.4-52.5c-28.9,0-52.4,23.5-52.4,52.5
		C939.3,126.9,962.7,150.4,991.7,150.4L991.7,150.4z M991.7,71.8c14.5,0,26.2,11.8,26.2,26.2c0,14.4-11.8,26.1-26.2,26.1
		c-14.5,0-26.2-11.8-26.2-26.1C965.4,83.6,977.2,71.8,991.7,71.8L991.7,71.8z M991.7,71.8"/>
	<path class="st3" d="M1014.2-205.8c363,12.8,648.9,333.7,603.7,708.5c-34.6,286.9-266.4,516.7-553.6,548.9
		c-380.3,42.8-703.6-255-703.6-626.9c0-168.1,65.3-326.3,184-445.4c8.8-8.8,8.8-23.1,0-31.9c-8.8-8.7-23.1-8.7-31.9,0
		C383.4,77.4,313.1,250.7,315.7,434.4c4.9,350.8,285.2,644.6,635.5,665.2c391,22.9,716.5-288.7,716.5-674.8
		c0-372.9-303.4-676.2-676.4-676c-12.3,0-22.2,10.3-22.2,22.5v1.8c0,11.5,9.3,20.9,20.9,21L1014.2-205.8L1014.2-205.8"/>
</g>
<g class="st0">
	<g class="st1">
		<path class="st2" d="M810.5,272.8l-34.1-100.6c-3.8-11.1-15.9-17.1-27-13.3c-11.1,3.8-17.1,15.9-13.3,27l24.6,72.1H543.3
			l24.6-72.5c3.8-11.1-2.2-23.3-13.3-27c-11.2-3.8-23.3,2.2-27,13.3l-34.1,100.6c-2.2,6.5-1.1,13.7,2.9,19.3
			c4,5.6,10.5,8.9,17.3,8.9h82.5v110.6l-87.3,22.9c-7,1.8-12.9,6.6-16.2,13c-3.3,6.4-3.8,14-1.2,20.8L526,560
			c3.9,10.2,13.6,16.6,23.9,16.6c3,0,6-0.5,9-1.6c13.2-5,19.9-19.7,14.9-33l-24.7-65.6l52.5-13.8h58l25.9,75.2l-26.8,124.7
			c-3,13.8,5.8,27.4,19.6,30.4c1.8,0.4,3.6,0.6,5.4,0.6c11.8,0,22.4-8.2,25-20.2l28.3-131.7c1-4.6,0.7-9.3-0.8-13.7L709,448.5V301
			h81.3c6.9,0,13.3-3.3,17.3-8.9C811.6,286.5,812.7,279.3,810.5,272.8L810.5,272.8z M810.5,272.8"/>
	</g>
	<path class="st3" d="M696.9,200.1c0,24.4-19.8,44.2-44.2,44.2c-24.4,0-44.2-19.8-44.2-44.2c0-24.4,19.8-44.2,44.2-44.2
		C677.1,155.9,696.9,175.7,696.9,200.1L696.9,200.1z M696.9,200.1"/>
	<path class="st3" d="M1014.2,1055.3c363-12.8,648.9-333.7,603.7-708.5c-34.6-286.9-266.4-516.7-553.6-548.9
		c-380.3-42.8-703.6,255-703.6,626.9c0,168.1,65.3,326.3,184,445.4c8.8,8.8,8.8,23.1,0,31.9c-8.8,8.7-23.1,8.7-31.9,0
		C383.4,772.1,313.1,598.8,315.7,415.1c4.9-350.8,285.2-644.6,635.5-665.2c391-22.9,716.5,288.7,716.5,674.8
		c0,372.9-303.4,676.2-676.4,676c-12.3,0-22.2-10.3-22.2-22.5v-1.8c0-11.5,9.3-20.9,20.9-21L1014.2,1055.3L1014.2,1055.3"/>
	<g class="st1">
		<g>
			<path class="st2" d="M1118.1,513.1c-9.2-5.5-81.4-47.5-81.4-47.5s28.1-70.2,40.5-105.9c2.6-0.2,116.9-39.5,169.1-57.5
				c35.5-12.2,15.9-67-20-54.6c-51.7,17.8-103.5,35.6-155.2,53.5c-14.2-13.4-37.3-18.1-56.6-10.9c-35-39.2-67.2-75.3-102.2-114.5
				c-25.2-28.3-69.3,10.2-44.3,38.3c35,39.2,109.3,121.9,111.6,123.3c-13.3,37.7-46.2,121.2-46.5,121.2
				c2.3,0.7-57.8,33.3-103.7,57.4c-11.7,6.1-19.7,21.8-10.5,44.3c15,36.4,31.2,72.4,46.4,108.7c6.2,14.7,19.2,25.1,36,20.5
				c13.9-3.8,26.7-21.3,20.5-36.1c-12-28.5-34.3-80.7-41.3-97.1c-1.2-2.9,0-6.2,2.7-7.6c15-7.7,59.6-30.5,65.5-33.5
				c10.3-5.2,27.9-13.2,53.5-0.9c6.2,3,54.5,28.8,70.6,37.5c3.3,1.7,5.3,5.1,5.6,8.7c1.1,18.3,4.6,75,6.7,105.9
				c2.6,37.4,61.1,34.7,58.4-3.1c-2.9-41.8-5.1-73.4-7.4-115.3C1135.9,539.6,1136.7,524.1,1118.1,513.1L1118.1,513.1z M1118.1,513.1
				"/>
		</g>
		<path class="st2" d="M1108.1,232c0,26.7-21.7,48.4-48.4,48.4c-26.7,0-48.4-21.7-48.4-48.4c0-26.7,21.7-48.4,48.4-48.4
			C1086.5,183.6,1108.1,205.2,1108.1,232L1108.1,232z M1108.1,232"/>
	</g>
	<g class="st1">
		<g>
			<path class="st2" d="M1453.9,302.8c0,22.3-18.1,40.3-40.3,40.3c-22.3,0-40.3-18.1-40.3-40.3c0-22.3,18-40.3,40.3-40.3
				C1435.8,262.5,1453.9,280.6,1453.9,302.8L1453.9,302.8z M1453.9,302.8"/>
			<path class="st2" d="M1493.3,428.3c-2.8-20-3.5-40.3-8.9-59.8c-7.2-26-44.8-18-44.8,5.5c-0.5-0.5-1-1-1.5-1.6
				c-3.8-4.4-8.1-6.5-12.4-7.2c-7.9-14.9-24.1-24.4-42-22.9c-4.4,0.3-8.5,1.4-12.4,2.9c-16-30.3-26.7-62.5-33.1-96.7
				c-5.4-28.9-49.4-16.7-44,12.1c8.6,45.6,24.9,89.1,49.6,128.4v0.1c2.2,26.4-0.5,70-2.2,90.5c-0.8,1.2-1.5,2.5-2.1,3.9
				c-23.8,56.5-32.9,121.2-37.5,182.1c-2.2,29.3,43.4,29.1,45.6,0c3.4-44.8,10-91.4,23.4-135c2.9,0.9,5.9,1.6,9.1,1.9
				c3.8,45.8,6.9,91.6,13.5,137.1c4.2,29,48.1,16.6,44-12.1c-6.8-47.5-9.2-95.6-13.3-143.4c-0.1-1.8-0.5-3.5-0.9-5.1
				c2.4-4.8,4-10.1,4.5-15.7c0.2-1.9,2.9-31.3,3.7-63.4c7.8,6.9,15.8,13.7,23.7,20.6C1473.5,466.6,1496.5,450.5,1493.3,428.3
				L1493.3,428.3z M1493.3,428.3"/>
		</g>
	</g>
</g>
</svg>
