<?xml version="1.0" encoding="utf-8"?>
<!-- Generator: Adobe Illustrator 19.0.1, SVG Export Plug-In . SVG Version: 6.00 Build 0)  -->
<svg version="1.1" id="Layer_1" xmlns="http://www.w3.org/2000/svg" xmlns:xlink="http://www.w3.org/1999/xlink" x="0px" y="0px"
	 viewBox="0 0 841.9 595.3" style="enable-background:new 0 0 841.9 595.3;" xml:space="preserve">
<style type="text/css">
	.st0{fill:#231F20;}
</style>
<g>
	<path class="st0" d="M328.7,288.1h66.2c2.5,0,4.6,2.1,4.6,4.6l0,3.3h9.2v-3.3c0-7.6-6.2-13.8-13.8-13.8h-66.2
		c-2.5,0-4.6-2.1-4.6-4.6c0-2.5,2.1-4.6,4.6-4.6h150.9c7.6,0,13.8-6.2,13.8-13.8c0-7.6-6.2-13.8-13.8-13.8H345.2
		c-2.5,0-4.6-2.1-4.6-4.6c0-2.5,2.1-4.6,4.6-4.6H463c7.6,0,13.8-6.2,13.8-13.8c0-7.6-6.2-13.8-13.8-13.8h-49.7
		c-2.5,0-4.6-2.1-4.6-4.6v-4.8c0-2.5-2.1-4.6-4.6-4.6s-4.6,2.1-4.6,4.6v4.8c0,7.6,6.2,13.8,13.8,13.8H463c2.5,0,4.6,2.1,4.6,4.6
		c0,2.5-2.1,4.6-4.6,4.6H345.2c-7.6,0-13.8,6.2-13.8,13.8c0,7.6,6.2,13.8,13.8,13.8h134.4c2.5,0,4.6,2.1,4.6,4.6
		c0,2.5-2.1,4.6-4.6,4.6H328.7c-7.6,0-13.8,6.2-13.8,13.8C314.9,281.9,321.1,288.1,328.7,288.1z"/>
	<path class="st0" d="M450.2,296h-42.5l0,0h-7.2l0,0H358c-21.5,0-39,17.5-39,39c0,21.5,17.5,39,39,39c12.2,0,23.7-5.7,31.1-15.5h30
		c7.4,9.7,18.8,15.5,31.1,15.5c21.5,0,39-17.5,39-39C489.2,313.5,471.7,296,450.2,296z M450.2,366.8c-10.5,0-20.3-5.2-26.3-13.9
		c-0.7-1-1.8-1.6-3-1.6h-33.7c-1.2,0-2.3,0.6-3,1.6c-5.9,8.7-15.8,13.9-26.3,13.9c-17.5,0-31.8-14.3-31.8-31.8
		c0-17.5,14.3-31.8,31.8-31.8h92.2c17.5,0,31.8,14.3,31.8,31.8C482,352.5,467.7,366.8,450.2,366.8z"/>
	<path class="st0" d="M463.1,387.8"/>
	<path class="st0" d="M358,312.1c-12.6,0-22.9,10.3-22.9,22.9c0,12.6,10.3,22.9,22.9,22.9c12.6,0,22.9-10.3,22.9-22.9
		C381,322.3,370.7,312.1,358,312.1L358,312.1z M358,350.7c-8.7,0-15.7-7.1-15.7-15.7c0-8.7,7.1-15.7,15.7-15.7
		c8.7,0,15.7,7.1,15.7,15.7C373.8,343.7,366.7,350.7,358,350.7L358,350.7z M358,350.7"/>
	<path class="st0" d="M437,329.6c-3,0-5.4,2.4-5.4,5.4c0,3,2.4,5.4,5.4,5.4h0c3,0,5.4-2.4,5.4-5.4C442.4,332,440,329.6,437,329.6
		L437,329.6z M437,329.6"/>
	<path class="st0" d="M463.4,329.6c-3,0-5.4,2.4-5.4,5.4c0,3,2.4,5.4,5.4,5.4h0c3,0,5.4-2.4,5.4-5.4
		C468.8,332,466.4,329.5,463.4,329.6L463.4,329.6z M463.4,329.6"/>
	<path class="st0" d="M450.2,342.8L450.2,342.8c-3,0-5.4,2.4-5.4,5.4c0,3,2.4,5.4,5.4,5.4h0.1c3,0,5.4-2.4,5.4-5.4
		C455.7,345.2,453.2,342.8,450.2,342.8L450.2,342.8z M450.2,342.8"/>
	<path class="st0" d="M450.2,327.2L450.2,327.2c3,0,5.4-2.4,5.4-5.4c0-3-2.4-5.4-5.4-5.4c-3,0-5.4,2.4-5.4,5.4
		C444.8,324.8,447.2,327.2,450.2,327.2L450.2,327.2z M450.2,327.2"/>
	<path class="st0" d="M361.6,331.4v-5c0-2-1.6-3.6-3.6-3.6c-2,0-3.6,1.6-3.6,3.6v5h-5c-2,0-3.6,1.6-3.6,3.6s1.6,3.6,3.6,3.6h5v5
		c0,2,1.6,3.6,3.6,3.6c2,0,3.6-1.6,3.6-3.6v-5h5c2,0,3.6-1.6,3.6-3.6s-1.6-3.6-3.6-3.6H361.6z M361.6,331.4"/>
	<path class="st0" d="M398.4,337.4h-6.9c-2,0-3.6,1.6-3.6,3.6s1.6,3.6,3.6,3.6h6.9c2,0,3.6-1.6,3.6-3.6S400.4,337.4,398.4,337.4
		L398.4,337.4z M398.4,337.4"/>
	<path class="st0" d="M416.7,337.4h-6.9c-2,0-3.6,1.6-3.6,3.6s1.6,3.6,3.6,3.6h6.9c2,0,3.6-1.6,3.6-3.6S418.7,337.4,416.7,337.4
		L416.7,337.4z M416.7,337.4"/>
</g>
</svg>
