<?xml version="1.0" encoding="utf-8"?>
<!-- Generator: Adobe Illustrator 19.0.1, SVG Export Plug-In . SVG Version: 6.00 Build 0)  -->
<svg version="1.0" id="Layer_1" xmlns="http://www.w3.org/2000/svg" xmlns:xlink="http://www.w3.org/1999/xlink" x="0px" y="0px"
	 viewBox="0 0 841.9 595.3" style="enable-background:new 0 0 841.9 595.3;" xml:space="preserve">
<style type="text/css">
	.st0{fill:#BC2031;}
	.st1{fill:#FFFFFF;}
</style>
<circle class="st0" cx="420.9" cy="316" r="141.7"/>
<g>
	<path class="st1" d="M98.8,137.5c3.4,1.7,5.9,4.1,5.8,8.2c0.4,0,0.7,0.1,0.9,0c5.7-2.2,5.7-2.3,9,2.8c1.1,1.6,2.2,2.2,4.3,1.7
		c4-1,4.8-0.1,6,3.9c0.8,3,3.2,3.1,5.5,2.4c5.7-1.7,11.8,0.5,15.3,5.1c1.5,2,4.1,3.1,6.4,4.8c-1.3,1.9-3,4.2-4.5,6.6
		c-3.1,4.8-5.3,10.2-1.3,15.2c0.7,0.8,1.6,1.6,2.6,2c3,1.3,4.9,4.2,4.3,7.1c-0.6,3.1-3.2,5-6.7,4.8c-0.1,0-0.2-0.1-0.3-0.1
		c-6-0.5-6-0.4-4.1,5.7c0.4,1.2,0.1,2.8-0.5,4c-1.9,3.8-3.8,7.5-6.3,10.9c-0.9,1.3-3.2,2-5,2.3c-2.2,0.4-4.6,0.3-6.8,0.4
		c-0.5,0-1,0.3-1.4,0.2c-10.4-3.5-19.2,4.1-29.1,4.4c-2.4,0.1-4.8,2.3-7.1,3.6c-4.1,2.3-8,4.9-12.2,6.9c-2.3,1.1-5,1.7-7.6,1.8
		c-3.2,0.2-4.1-1.7-3.2-4.8c0.3-1.1,0.1-2.3,0.2-3.5c-1.2,0-2.6-0.4-3.5,0.1c-6.2,3.8-11.6,0.9-16.9-2.1c-0.8-0.4-1.7-1.1-2.1-1.8
		c-0.6-1.2-0.9-2.5-1.3-3.8c1.4-0.3,2.7-0.9,4.1-1c1.2-0.1,2.5,0.3,3.8,0.4c3,0.4,5.5-1.1,5.9-4c0.5-3.9,1.6-7.1,6.4-7.8
		c-0.1-0.4-0.1-0.8-0.2-1.2c-1.7-0.5-3.4-1.4-5.1-1.3c-1.2,0.1-2.6,1.4-3.3,2.5c-1,1.7-1.1,4-2.3,5.4c-1.4,1.6-3.5,3.4-5.4,3.6
		c-1.3,0.1-3.2-2.3-4.1-4c-1.3-2.5-2.3-5.4-3-8.2c-1.2-4.6,2-7.7,6.7-6.7c6.3,1.3,9.1-0.6,10.3-6.8c1-4.9,7.4-9.1,12.6-8.4
		c4.8,0.7,9.7,1.5,14.5,2.2c4,0.6,8.9-2.2,10.4-5.9c0.2-0.5,1.4-0.9,2.1-0.8c4.6,0.4,7.5-1.4,9.5-5.5c1.3-2.7,3.1-5.2,4.2-8
		c0.7-1.7,1.4-4.4,0.6-5.6c-1.3-2.1-3.8-1.6-5.9-0.2c-2.1,1.4-4.3,2.6-6.9,4.1c1.2,1.1,2.3,1.6,2.6,2.5c0.6,1.9,1.4,4.1,1,5.8
		c-0.2,0.9-3,1.4-4.7,1.5c-1.6,0.1-3.3-0.2-4.8-0.9c-1.3-0.6-2.8-1.8-3.3-3.1c-0.2-0.6,1.6-2.1,2.6-3.1c0.9-0.8,2-1.5,3-2.3
		c-1.2-0.8-2.3-1.7-3.6-2.3c-3-1.3-6-2.3-9-3.6c-0.7-0.3-1.1-1.3-1.7-2c0.7-0.5,1.5-0.9,2-1.5c1.5-1.7,3.4-3.4,4.3-5.4
		c1.5-3.4,3.3-6.2,7.3-6.7c2,3.1,1.9,5.5-0.6,7.6c-2.4,1.9-2.4,3.8-0.5,5.9c3-1.2,4.4-5.2,4.2-9.3c-0.2-3.6,0.4-7.4,1.3-10.9
		c0.4-1.6,2.5-2.8,3.8-4.2C98.3,137.5,98.6,137.5,98.8,137.5z"/>
	<path class="st1" d="M253.6,195.2c-4.2,0.4-4.7,1-2.4,4.3c1.6,2.4,4.1,4.2,6.1,6.4c1.8,2,3.9,3.8,4.9,6.2
		c3.7,8.4,11.2,12.6,18.2,17.2c2.9,1.9,4.8,3.9,5.9,7c0.4,1.1,0.8,2.2,1.1,3.3c1.4,5,4.8,7.1,9.8,7c2.5,0,4.2,1.2,4.2,3.6
		c0,1.2-1.3,2.7-2.4,3.6c-1.5,1.3-3.4,2-5,3.2c-0.5,0.4-0.5,1.4-0.7,2.1c0.6,0.2,1.2,0.3,1.8,0.5c0.9,0.2,1.8,0.4,2.7,0.5
		c2.7,0.4,3,1.9,1.3,3.5c-2.2,2.1-0.7,3.2,0.8,4.4c0.7,0.6,1.4,1.2,2.3,1.6c4.3,1.8,8.5,3.9,13,5.2c1.2,0.3,3.4-1.8,4.7-3.2
		c1.1-1.2,1.2-3.5,2.4-4.6c1.5-1.3,3.8-2.8,5.6-2.7c8.9,0.7,17.8,1.8,26.8,2.9c9.9,1.2,17.4-2.9,23.4-10.4c3.5-4.3,10-5.1,14.7-1.8
		c2.6,1.9,5.4,3.6,8.2,5.3c1.6,1,3.5,1.6,4.6,2.9c0.9,1,1.5,3.6,0.9,4.2c-1.2,1.3-3.5,2.6-5,2.4c-4.5-0.8-8.7-2.5-13.2-3.7
		c-0.7-0.2-2.2,0.6-2.6,1.3c-0.6,1-0.6,2.4-0.8,3.6c-4.3,0.4-7.2,3.4-7.3,7.5c-0.1,2.5,2.9,5.4,5.5,4.6c5.4-1.8,8.8,1.2,11.7,4.7
		c2.8,3.3,6.2,5.4,10,6.9c5.4,2.2,10.8,4.4,16.3,6.1c2.2,0.7,4.7,0.3,7.1,0.1c7-0.6,14.1-1.7,21.1-1.9c3-0.1,6.3,1.5,9.1,2.8
		c7,3.3,13.5,2.7,20.2-1c6-3.3,12.5-4.9,19.4-4.8c2.2,0,4.6,0.3,6.6-0.5c10.4-4.3,21.5-7.2,30.5-14.2c2.3-1.8,3.8-4.7,5.8-7.2
		c-0.6-0.1-1.5-0.3-2.3-0.3c-3.3,0.2-4.3-2.2-4.8-4.6c-0.4-2.2,2.3-4.4,5-4.2c3,0.2,6.1,1.2,9.1,1.3c6.3,0.2,11.1-3.5,13.1-9.5
		c0.6-1.9,1.5-3.6,2.4-5.4c1.4-3,3.7-3.5,6.4-1.3c5.7,4.5,10,4.9,16.3,1.3c2.4-1.3,4.6-2.8,7.1-3.8c1.4-0.6,3.7-0.9,4.7-0.2
		c2.1,1.5,5.1,4,4.9,5.7c-0.3,2.3-3.2,4.4-5.1,6.4c-1.6,1.7-3.8,3-4.9,5c-1.4,2.4-0.2,3.8,2.6,4c5.1,0.4,5.9,1.3,5.6,6.4
		c0,0.6,0.7,1.7,1.3,1.9c1.7,0.5,11.4-5.6,12.4-7.8c-2.2-0.8-4.4-1.5-6.4-2.4c-1.3-0.6-2.8-1.4-3.4-2.6c-0.8-1.7-1.7-4.1-1-5.6
		c0.5-1.2,3.2-1.5,5-2c2-0.5,4-1,6-1.1c1.5-0.1,3.5-0.2,4.5,0.6c1,0.8,1.8,3.1,1.4,4.3c-1.3,3.9,0.5,6.1,3.5,7.7
		c2.5,1.3,2.1,2.8,0.1,3.8c-7.5,3.6-11.6,11.6-19.8,14.5c-1.6,0.6-2.7,3.4-3.5,5.3c-3.6,9.2-5.9,18.8-11.3,27.2
		c-1.6,2.5-2.1,5.7-3.7,8.1c-2.8,4.2-6.1,8.1-9.2,12.1c-0.6,0.7-1.5,1.3-2.3,1.5c-9.4,2.7-18.3,8.1-28.9,5c-5.4-1.6-13,3-16.8,9.1
		c-0.8,1.3-1.6,2.6-2.6,3.7c-1.7,1.9-3.9,1.5-4.2-1.1c-0.9-8-7.4-8.5-13.1-10c-0.8-0.2-1.9,0.6-2.9,1c-6.6,3-10.5,8.3-14.3,14.3
		c-5.6,8.9-13.4,15.7-23.9,18.3c-5.9,1.4-12.3,1-18.3,2.4c-11.8,2.8-21,8.9-24,21.6c-0.1,0.2-0.1,0.5-0.1,0.7
		c-1.8,6.6-2.6,6.9-8.6,3.1c-1.4-0.8-2.8-1.9-4.3-2.2c-1.5-0.3-3.4-0.4-4.8,0.2c-4.5,2-8.8,4.7-13.4,6.6c-1.7,0.7-4.3,0.3-6.1-0.4
		c-4.1-1.7-7.7-4.5-12.7-3c-2.6,0.8-4.5-1.6-4.8-4c-0.1-1.1,1.6-2.6,2.8-3.6c2.1-1.8,4.5-3.2,6.7-5.1c5.1-4.4,10.7-5.6,17.1-3.4
		c1.1,0.4,3.1-0.1,3.7-1c0.5-0.7,0-2.8-0.7-3.7c-5.2-6.8-11.7-6-15.6,1.7c-0.7,1.4-2,2.7-3.3,3.5c-1.4,0.8-3.2,2.3-4.8-0.1
		c-1.5-2.1-1.7-3.8,0.3-5.5c0.4-0.3,0.6-0.7,0.9-1c-2-5.9-4.5-9.2-9.6-8.8c-1.9,0.2-4.3,1.5-5.2,3.1c-2.5,4.3-6.5,5.9-10.7,7.3
		c-0.7,0.2-1.7-0.5-2.6-0.6c-2.7-0.4-5.4-1-8-1c-2.4,0-4.1-1.7-2.8-3.9c1.2-2,3-3.8,4.9-5.2c2.5-1.9,5.4-3.3,8.1-4.9
		c0.4-0.2,0.7-0.6,1-0.9c-1.6-4.9-8.2-8-12.8-6.4c-2.1,0.7-4.5,0.8-6.8,1.1c-1.5,0.2-3,0-4.4,0.2c-5.7,1.1-6.2,1-9.2-4
		c-2.3-3.8-4.7-7.6-6.7-11.6c-3-6.2-8-10.5-13.1-14.7c-1.1-0.9-1.9-2.2-2.8-3.2c0.2-0.4,0.4-0.7,0.6-1.1c3,1.1,6.1,2.2,9.1,3.3
		c0.2-0.4,0.4-0.7,0.6-1.1c-1.8-2-3.5-4.1-5.4-6c-3-3-2.7-6,0.9-8.5c1.4-1,2.8-1.9,4.3-2.8c-3.7-5.3-8.5-4.7-13.3-3.9
		c-2.8,0.4-2.8,2.6-2.8,4.8c-0.1,4.4-0.2,8.7-0.3,13.1c-0.1,2.7-1.1,5.5-3.7,5.6c-2.2,0-4.6-1.7-6.5-3.2c-3.7-2.9-7-6.4-10.7-9.3
		c-0.9-0.7-3.1-0.7-4,0c-3.8,3-7.6,1.9-11.1,0c-3.5-1.8-6.2-2.1-9.5,0.7c-4.1,3.4-12.7,2.5-15.9-1.5c-1.1-1.4-1.9-3.7-1.7-5.6
		c0.4-6.2-1.8-13,3.2-18.4c-1-6.5,3.5-8.9,8.2-11.3c0.8-0.4,1.4-1.2,2.1-1.9c2.4-2.5,5-2.7,8.3-1.4c2.9,1.2,6.1,2,9.3,2
		c1.8,0,3.6-1.7,5.4-2.7c-0.9-1.5-1.7-3.1-2.6-4.6c-1.1-1.9-2.6-3.6-3.4-5.6c-2.7-6.3-5.1-12.7-7.6-19.1c-1.1-2.9-3.1-4.5-6.1-5.1
		c-2.1-0.5-4.1-1.6-6.1-2.4c-2.4-0.9-4.7-1.8-7.2-2.5c-3-0.9-5.3-2.1-5.2-5.9c0.1-3.2-5.2-7.8-8.5-8.1c-1.1-0.1-2.9-1.4-2.9-2.1
		c0.1-3.9-2.8-4.6-5.4-5.9c-2.3-1.2-4.6-2.6-6.8-4c-2.6-1.7-5-3.8-7.7-5.2c-4.4-2.2-4.4-2.2-3.1-7.2c0.5-1.9,0.5-4.4-0.4-6.2
		c-1.3-2.6-3.6-2.6-6.1-0.9c-1.6,1-3.5,1.6-5.3,2.2c-3.4,1.1-6.9,1.9-10.2,3.1c-2.1,0.8-3.2,0.8-3-1.8c0.1-1.5-0.1-3.1,0.3-4.5
		c2.1-6,0.7-11.5-3.2-16.1c-1.6-1.9-4.4-2.7-6.8-3.9c-5.1-2.4-5.2-2.7-2.9-7.7c0.4-0.8,0.4-2.1,0-2.9c-2-4.7-1.5-6.2,3-8.7
		c1.2-0.7,2.4-1.5,3.7-2c2.6-1,4.6-0.7,6.5,2.1c3.2,4.6,7,8.6,13.5,8.2c3.3-0.2,6.5,0.5,8.6,4.1c0.8,1.5,3.5,2.1,5.4,2.6
		c12,3,24,6.2,36.2,8.4c6,1.1,11.7,2.3,17.1,5C251,189.6,253.4,191.3,253.6,195.2z"/>
	<path class="st1" d="M649.4,232.3c1.6-2.6,3-4.7,4.2-6.9c1.9-3.4,1.3-6.4-1.2-9.3c-2.5-2.9-5.4-4.8-9.2-3.6c-3.5,1.1-7,3-7.1,7.2
		c-0.1,2.4,1.1,4.9,1.9,7.3c0.5,1.4,1.4,2.7,2.3,4c1.4,2.1,1.2,3.5-1.2,4.8c-0.9,0.5-1.7,2.4-1.6,3.6c0.2,2.8,0.7,5.6,1.4,8.3
		c0.7,2.7-0.3,3.5-2.8,3.2c-8.8-1.1-11-5.3-9.8-14.1c-3.9-1.6-7.8-2.3-11.8-0.2c-1.4,0.7-2.8,1.9-4.3,2.2c-5.4,1.4-8.9-2.1-8-8.3
		c0.8-5.2,4.5-9.3,10.9-7.6c4.5,1.2,8.4-0.8,9.8-5.4c0.8-2.6,1.3-5.2,1.6-7.9c0.9-7.9,5.5-12.4,13.6-13.7c4.8-0.8,8.4,1.5,12.5,3.3
		c3.3,1.5,6.9,2.7,10.5,3.4c4.5,0.9,5.6-0.2,7.1-4.5c0.9-2.5,1.4-5.3,4.7-5.9c4.1-0.8,9.1,4.7,8.8,9.6c-0.3,4,4.7,13.3,8.4,14.6
		c1.9,0.6,4.4,0.2,6.3-0.5c2.5-0.9,4.8-2.4,7.1-3.8c0.7-0.4,1.4-0.9,1.8-1.6c2-3.9,3.4-4.8,7.1-3.1c3.6,1.7,6.5,1,9.3-1.4
		c2.3-2,6.1-2.2,7-5.8c0.1-0.3,0.8-0.7,1.1-0.6c3.7,0.7,6.1-1.8,9.1-3.1c2.8-1.3,5.8-2.2,8.7-3.3c3.6-1.4,5.7-4.3,7.1-7.8
		c1.1-2.8,2.2-5.6,3.6-8.3c2.4-4.5,6.1-5.9,10.8-3.8c2,0.9,3.5,0.7,5.1-0.5c2-1.5,4.7-2.4,6.3-0.3c1.2,1.5,1.7,4.4,1.2,6.4
		c-2.4,9-5.7,17.8-7.9,26.8c-2.5,10.3-4.2,20.8-6.2,31.2c-0.3,1.6,0,3.2,0.1,4.9c0.1,3.2,0.2,6.5,0.5,9.7c0.3,3.1,0.3,6.4,1.4,9.3
		c2.3,6.2,5.1,12.3,8,18.3c2.8,5.9,9.4,8.2,16.1,7.7c4.1-0.3,8.3,1.2,12.5,2.5c-2.6,2.4-5.3,4.6-8.7,4.2c-6.4-0.7-11.9,0.4-16.4,5.4
		c-4.8,5.3-7.6,11.7-9.8,18.3c-0.4,1,1,3,2,4.1c1.7,1.8,3.8,3.3,5.5,5.3c-5.8-2.1-12.5-0.1-17.7-5.1c-2-1.9-5.3-2.8-8.2-3.5
		c-2.9-0.8-4.4-2-3.4-5.2c0.3-1,0-2.1,0-3.2c-0.4-0.1-0.8-0.3-1.2-0.4c-1.2,1.7-2.4,3.3-4.2,5.9c-1.5-2.8-3.5-5.2-4.1-7.9
		c-1.1-5.2-2.8-8.6-8.7-10.2c-9.5-2.6-18.9-5-28.7-3.8c-4.1,0.5-8,2.9-11.9,4.7c-2.4,1.1-4.8,2.5-7.1,3.9c-1.8,1.1-2.9,0.5-3.3-1.4
		c-1.4-6.1-3.1-12.2-3.8-18.4c-0.6-4.9-0.3-10,0-15c0.2-4.7,1.2-9.3,1.2-13.9c0-2.2-1.3-4.5-2.5-6.4c-3.7-6-7.6-11.7-15.9-11.9
		C656.1,234.3,653,233.1,649.4,232.3z"/>
	<path class="st1" d="M137.7,234.3c4.4-1,8.9-2.9,13.2-2.8c4.3,0.1,4.7-2.7,6.1-5c1.6-2.6,0.6-5.2-1.1-7.5c-1.1-1.5-2.3-3-3.3-4.5
		c-0.3-0.4-0.1-1.2-0.2-2.1c0.6,0.2,1.1,0.2,1.2,0.4c2.2,4.7,6.3,6.6,11,7.8c2.7,0.7,5.3,1.8,7.9,2.6c1,0.3,2.1,0.3,3,0.2
		c3.8-0.7,7.6-1.6,11.4-2.2c1.5-0.2,3.1-0.1,4.5,0.2c4.9,1.2,5.7,2.8,4.1,7.5c-0.4,1.1-1.1,2.2-1.1,3.3c0.1,1.1,0.8,2.4,1.6,3.2
		c1.4,1.5,3.4,2.5,4.5,4.1c2.7,3.9,5.3,5.1,9.7,3c2.3-1.1,4.1-0.9,6.2,0.3c2,1.1,4.3,1.8,6.3,2.9c1.5,0.8,3.6,1.9,3.8,3.2
		c0.9,5.3,6,9.6,3.9,15.7c-0.3,1,0.7,2.6,1.5,3.7c1.4,2,1.1,3.2-0.8,4.6c-1.4,1-2.6,2.7-3.1,4.3c-1.5,4.7-5.1,6.8-9.9,5.3
		c-4.1-1.3-8.1-3.1-12.2-3.7c-3.7-0.6-7.6-0.2-11.2,0.4c-5,0.9-6.3,0-5.5-4.9c0.4-2.5,1-5,1.6-7.5c0.7-3.2-0.1-6.1-2.2-8.5
		c-0.9-1.1-2.3-1.8-3.6-2.4c-2.2-1-4.9-1.2-6.7-2.6c-2.5-1.9-5.1-2.1-7.4-1c-4.7,2.2-9.3,1.3-13.9,0.2c-2.5-0.6-4.2-0.3-5.6,2
		c-1.3,2.2-2.6,2.1-4.2,0c-1.3-1.7-3.1-3-5-4.1c-3.1-1.9-3.3-2.7-1.5-5.8c0.9-1.6,1.8-3.3,2.4-5c1.1-3.8,0.7-4.2-3.1-4.4
		c-0.8,0-1.6-0.2-2.3-0.3C137.8,234.8,137.8,234.5,137.7,234.3z"/>
	<path class="st1" d="M445.6,288.5c-2.9-0.7-5.6-1.3-8.3-2.1c-0.7-0.2-1.5-1.3-1.6-2.1c-0.1-0.6,0.7-1.7,1.4-2
		c2.4-1.2,4.8-2.3,5.3-5.4c0.1-0.5,1.5-1.1,2.3-1.2c3.3-0.4,6.6-0.3,9.8-0.9c2.7-0.5,3.9,0.8,4.4,3c0.6,2.6-1.4,3.5-3.4,3.9
		c-1.2,0.3-2.7-0.2-3.8,0.2c-1,0.4-2.6,2-2.4,2.3C451.6,289,447.8,287.9,445.6,288.5z"/>
	<path class="st1" d="M248.5,277.2c-2.2,0.6-4.3,1.4-6.5,1.7c-1.3,0.2-3.4-0.2-3.8-1c-0.8-1.4-1.3-3.7-0.6-5c0.7-1.4,2.9-3,4.3-2.9
		c4,0.2,8,0.9,11.9,1.9c1.9,0.5,1.8,3.5-0.1,4.5c-1.5,0.8-3.2,1.2-4.9,1.8C248.7,277.8,248.6,277.5,248.5,277.2z"/>
</g>
</svg>
