<?xml version="1.0" encoding="utf-8"?>
<!-- Generator: Adobe Illustrator 19.0.1, SVG Export Plug-In . SVG Version: 6.00 Build 0)  -->
<svg version="1.1" id="Layer_1" xmlns="http://www.w3.org/2000/svg" xmlns:xlink="http://www.w3.org/1999/xlink" x="0px" y="0px"
	 viewBox="0 0 841.9 595.3" style="enable-background:new 0 0 841.9 595.3;" xml:space="preserve">
<style type="text/css">
	.st0{fill-rule:evenodd;clip-rule:evenodd;fill:#231F20;}
</style>
<path class="st0" d="M672.1,374.8c0.1,0,0.3,0,0.4,0c14,0,26.7-5.7,35.8-14.8c0.1-0.1,0.3-0.3,0.4-0.4c0.4-0.4,0.8-0.8,1.2-1.3
	c0.3-0.3,0.5-0.6,0.8-0.9c0.3-0.3,0.5-0.6,0.7-0.9c0.4-0.4,0.7-0.9,1.1-1.3c0.1-0.2,0.3-0.3,0.4-0.5c0.4-0.6,0.9-1.2,1.3-1.8
	c0,0,0,0,0.1-0.1c5.3-7.7,8.5-17,8.8-27c2,0.3,4,0.5,6.1,0.5c10.9,0,20.7-4.4,27.8-11.5c7.1-7.1,11.5-17,11.5-27.8
	c0-10.9-4.4-20.7-11.5-27.8c-7.1-7.1-17-11.5-27.8-11.5c-2.1,0-4.1,0.2-6.1,0.5c-0.3-10-3.5-19.3-8.8-27c0,0,0,0,0,0
	c-0.4-0.6-0.9-1.2-1.3-1.8c-0.1-0.2-0.3-0.4-0.4-0.5c-0.3-0.4-0.7-0.9-1-1.3c-0.3-0.4-0.7-0.8-1-1.2c-0.2-0.2-0.3-0.4-0.5-0.6
	c-0.5-0.6-1.1-1.2-1.7-1.7c-1.4-1.4-2.9-2.7-4.4-3.9c-8.6-6.8-19.5-10.9-31.4-10.9c0,0,0,0-0.1,0c-14,0-26.6,5.7-35.8,14.8
	c-8.8,8.8-14.3,20.9-14.8,34.2c-2-0.3-4.1-0.5-6.2-0.5c-10.9,0-20.7,4.4-27.8,11.5c-3.4,3.4-6.2,7.5-8.2,12.1v-1.6
	c0-6.6-5.4-12-12-12c-6.6,0-12,5.4-12,12c0-6.6-5.4-12-12-12c-6.6,0-12,5.4-12,12v1.8H51.1c-6.3,0-11.5,5.2-11.5,11.5v8.2
	c0,6.3,5.2,11.5,11.5,11.5h38.3v60.7h31.9v-60.7h8.9v60.7h31.8v-60.7h369.6v1.8c0,6.6,5.4,12,12,12c6.6,0,12-5.4,12-12
	c0,6.6,5.4,12,12,12c6.6,0,12-5.4,12-12v-1.7c2,4.5,4.8,8.6,8.2,12.1c7.1,7.1,17,11.5,27.8,11.5c2.1,0,4.1-0.2,6.2-0.5
	c0.4,13.3,5.9,25.4,14.8,34.2C645.7,369,658.2,374.7,672.1,374.8z M741.5,274.6c3.1,3.1,5.1,7.5,5.1,12.3c0,4.8-1.9,9.1-5.1,12.3
	c-3.1,3.1-7.5,5.1-12.3,5.1c-4.8,0-9.1-2-12.3-5.1c-0.5-0.4-0.9-0.9-1.3-1.4c-0.3-0.5-0.6-1-0.9-1.5c-1.4-2.2-2.3-4.5-2.7-6.9
	c0,0,0,0,0,0c-0.1-0.8-0.2-1.6-0.2-2.4c0-0.8,0.1-1.6,0.2-2.4c0,0,0,0,0,0c0.4-2.4,1.3-4.7,2.7-6.9c0.3-0.5,0.6-1,0.9-1.5
	c0.4-0.5,0.8-1,1.3-1.4c3.1-3.1,7.5-5.1,12.3-5.1C734,269.5,738.3,271.5,741.5,274.6z M603.4,299.2c-3.1-3.1-5.1-7.5-5.1-12.3
	c0-4.8,1.9-9.1,5.1-12.3c3.1-3.1,7.5-5.1,12.3-5.1c4.8,0,9.1,2,12.3,5.1c0.5,0.5,0.9,0.9,1.3,1.5c0.3,0.5,0.6,1,0.9,1.5
	c1.4,2.1,2.3,4.5,2.7,6.8c0,0.1,0,0.1,0,0.2c0.1,0.7,0.2,1.5,0.2,2.2c0,0,0,0,0,0.1c0,0,0,0,0,0.1c0,0.8-0.1,1.5-0.2,2.3
	c0,0.1,0,0.1,0,0.2c-0.4,2.4-1.3,4.7-2.7,6.8c-0.3,0.5-0.6,1-0.9,1.5c-0.4,0.5-0.8,1-1.3,1.4c-3.1,3.1-7.5,5.1-12.3,5.1
	C610.9,304.2,606.6,302.3,603.4,299.2z M652.2,344.4c-5.2-5.2-8.4-12.4-8.4-20.3c0-2.9,0.4-5.7,1.2-8.3c0.6-2.1,1.6-4.1,2.7-6
	c3.5-4.9,5.9-10.6,6.9-16.7c0.1-0.4,0.1-0.8,0.2-1.2c0.1-0.5,0.1-1.1,0.2-1.6c0.1-1.1,0.2-2.2,0.2-3.3c0,0,0-0.1,0-0.1
	c0,0,0-0.1,0-0.1c0-1.1-0.1-2.2-0.2-3.3c0-0.6-0.1-1.1-0.2-1.6c-0.1-0.4-0.1-0.8-0.2-1.2c-1-6.2-3.4-11.9-6.9-16.7
	c-1.1-1.9-2-3.9-2.7-6c-0.8-2.6-1.2-5.4-1.2-8.3c0-7.9,3.2-15.1,8.4-20.3c5.2-5.2,12.4-8.4,20.3-8.4c7.9,0,15.1,3.2,20.3,8.4
	c2.3,2.3,4.2,5.1,5.6,8.1c1.7,3.7,2.8,7.8,2.8,12.2c0,3.1-0.7,6-2,8.6c-1.3,2.6-3.1,4.8-5.2,6.4c-1.7,1.3-4,2-6.5,2
	c-2.1,0-4.1-0.5-5.6-1.6c-0.9-0.7-1.5-1.6-1.7-2.6c-0.2-0.8,0-1.7,0.6-2.7c3-5.2,1.2-11.9-4-15c-5.2-3-11.9-1.2-15,4
	c-3.5,6-4.2,12.2-3,17.9c1.3,6.4,4.9,11.9,9.7,15.7c2.5,2,5.3,3.4,8.3,4.4c-2.9,1-5.8,2.4-8.3,4.4c-4.8,3.7-8.4,9.3-9.7,15.7
	c-1.1,5.7-0.4,11.9,3,17.9c3,5.2,9.7,7.1,15,4c5.2-3,7.1-9.7,4-15c-0.6-1-0.7-1.9-0.6-2.7c0.2-1,0.9-1.9,1.7-2.6
	c1.4-1.1,3.5-1.6,5.6-1.6c2.5,0,4.9,0.8,6.5,2c2.1,1.6,3.9,3.8,5.2,6.4c1.2,2.6,2,5.5,2,8.6c0,6.3-2.1,12.2-5.6,16.9
	c-0.9,1.2-1.8,2.3-2.8,3.3c-5.2,5.2-12.3,8.4-20.3,8.4C664.5,352.8,657.4,349.6,652.2,344.4z"/>
</svg>
