<?xml version="1.0" encoding="utf-8"?>
<!-- Generator: Adobe Illustrator 19.0.1, SVG Export Plug-In . SVG Version: 6.00 Build 0)  -->
<svg version="1.0" id="Layer_1" xmlns="http://www.w3.org/2000/svg" xmlns:xlink="http://www.w3.org/1999/xlink" x="0px" y="0px"
	 viewBox="0 0 850.4 850.4" style="enable-background:new 0 0 850.4 850.4;" xml:space="preserve">
<style type="text/css">
	.st0{fill-rule:evenodd;clip-rule:evenodd;fill:#FFFFFF;}
</style>
<path class="st0" d="M797.5,229.4c0.1-0.1,0.3-0.3,0.4-0.4c14.8-14.8,22.2-34.2,22.2-53.6c0-0.3,0-0.6,0-0.9c0-0.9,0-1.8-0.1-2.6
	c0-0.6-0.1-1.2-0.1-1.8c0-0.6-0.1-1.1-0.1-1.7c-0.1-0.9-0.2-1.7-0.3-2.6c0-0.3-0.1-0.6-0.1-0.9c-0.1-1.1-0.3-2.2-0.5-3.3
	c0,0,0-0.1,0-0.1c-2.6-13.8-9-27-19.2-37.9c2.4-1.8,4.8-3.7,7-5.9c11.5-11.5,17.2-26.6,17.2-41.6c0-15.1-5.7-30.1-17.2-41.6
	C795.1,22.9,780,17.2,765,17.2c-15.1,0-30.1,5.7-41.6,17.2c-2.2,2.2-4.1,4.6-5.9,7c-10.9-10.3-24.1-16.7-37.9-19.2c0,0,0,0,0,0
	c-1.1-0.2-2.2-0.4-3.3-0.5c-0.3,0-0.7-0.1-1-0.1c-0.8-0.1-1.6-0.2-2.4-0.3c-0.8-0.1-1.6-0.1-2.4-0.2c-0.4,0-0.8-0.1-1.1-0.1
	c-1.2-0.1-2.4-0.1-3.6-0.1c-3,0-5.9,0.2-8.8,0.5c-16.3,1.9-32.2,9.1-44.7,21.7c0,0,0,0-0.1,0.1c-14.7,14.8-22.1,34.1-22.1,53.5
	c0,18.6,6.9,37.2,20.6,51.8c-2.5,1.8-4.8,3.7-7.1,5.9c-11.5,11.5-17.2,26.6-17.2,41.6c0,7.3,1.4,14.6,4.1,21.4l-1.7-1.7
	c-7-7-18.4-7-25.4,0c-7,7-7,18.4,0,25.4c-7-7-18.4-7-25.4,0c-7,7-7,18.4,0,25.4l1.9,1.9L31.6,776.4c-6.7,6.7-6.7,17.6,0,24.3
	l8.7,8.7c6.7,6.7,17.6,6.7,24.3,0L105,769l64.2,64.2l33.7-33.7l-64.2-64.2l9.4-9.4l64.2,64.2l33.7-33.7l-64.2-64.2l390.8-390.8
	l1.9,1.9c7,7,18.4,7,25.4,0c7-7,7-18.4,0-25.4c7,7,18.4,7,25.4,0c7-7,7-18.4,0-25.4l-1.7-1.7c6.9,2.7,14.2,4.1,21.4,4.1
	c15.1,0,30.1-5.7,41.6-17.2c2.2-2.2,4.2-4.6,5.9-7.1c14.5,13.7,33.1,20.6,51.8,20.6C763.6,251.2,782.8,243.9,797.5,229.4z M765,50.1
	c6.6,0,13.3,2.5,18.4,7.6c5.1,5.1,7.6,11.7,7.6,18.4c0,6.6-2.5,13.3-7.6,18.4c-5.1,5.1-11.7,7.6-18.4,7.6c-1,0-1.9-0.1-2.9-0.2
	c-0.9-0.2-1.7-0.4-2.6-0.6c-3.8-0.8-7.2-2.3-10.2-4.5c0,0,0,0,0,0c-1-0.7-1.9-1.5-2.7-2.3c-0.8-0.8-1.6-1.8-2.3-2.7c0,0,0,0,0,0
	c-2.1-2.9-3.7-6.3-4.5-10.1c-0.2-0.9-0.4-1.7-0.6-2.6c-0.1-1-0.2-1.9-0.2-2.9c0-6.6,2.5-13.3,7.6-18.4
	C751.7,52.6,758.3,50.1,765,50.1z M645,222c-6.6,0-13.3-2.5-18.4-7.6c-5.1-5.1-7.6-11.7-7.6-18.4c0-6.6,2.5-13.3,7.6-18.4
	c5.1-5.1,11.7-7.6,18.4-7.6c1,0,1.9,0.1,2.9,0.2c0.9,0.2,1.7,0.4,2.6,0.6c3.8,0.8,7.2,2.3,10.1,4.4c0.1,0,0.1,0.1,0.2,0.2
	c0.9,0.7,1.8,1.4,2.6,2.2c0,0,0,0,0.1,0.1c0,0,0,0,0.1,0.1c0.8,0.8,1.5,1.7,2.2,2.6c0.1,0.1,0.1,0.1,0.1,0.2
	c2.1,2.9,3.6,6.3,4.4,10.1c0.2,0.9,0.4,1.7,0.6,2.6c0.1,1,0.2,1.9,0.2,2.9c0,6.6-2.5,13.3-7.6,18.4S651.6,222,645,222z M744.4,218.3
	c-11,0-21.9-4.2-30.3-12.6c-3.1-3.1-5.6-6.5-7.5-10c-1.6-2.9-2.7-6.1-3.5-9.2c-1.4-8.8-4.9-17.4-10.4-25c-0.3-0.5-0.7-1-1-1.4
	c-0.5-0.7-1-1.3-1.5-1.9c-1-1.2-2.1-2.5-3.3-3.6c0,0-0.1-0.1-0.1-0.1c0,0-0.1-0.1-0.1-0.1c-1.2-1.1-2.4-2.2-3.6-3.3
	c-0.6-0.5-1.3-1-1.9-1.5c-0.5-0.4-0.9-0.7-1.4-1.1c-7.6-5.5-16.1-9-25-10.4c-3.1-0.8-6.3-1.9-9.2-3.5c-3.6-1.9-6.9-4.4-10-7.5
	c-8.4-8.4-12.6-19.3-12.6-30.3c0-11,4.2-21.9,12.5-30.3c8.4-8.4,19.3-12.6,30.3-12.6c4.9,0,9.8,0.9,14.5,2.6
	c5.8,2.1,11.2,5.4,15.8,10c3.3,3.3,5.6,7.1,7,11.1c1.4,4.1,1.9,8.4,1.3,12.3c-0.4,3.1-2.2,6.4-4.8,9c-2.2,2.2-4.8,3.8-7.6,4.2
	c-1.7,0.2-3.3-0.1-4.6-0.9c-1-0.7-1.8-1.8-2.3-3.4c-2.4-8.7-11.4-13.9-20.1-11.5c-8.7,2.4-13.9,11.3-11.5,20.1
	c2.7,10,8.5,17.4,15.7,22.2c8.1,5.4,17.8,7.4,26.9,6.3c4.7-0.6,9.2-2,13.4-4.1c-2.1,4.2-3.5,8.7-4.1,13.4c-1.1,9,0.9,18.8,6.3,26.9
	c4.8,7.2,12.2,13,22.2,15.7c8.7,2.4,17.7-2.8,20.1-11.5c2.4-8.7-2.8-17.7-11.5-20.1c-1.7-0.4-2.8-1.3-3.4-2.3
	c-0.8-1.2-1.1-2.9-0.9-4.6c0.3-2.7,2-5.4,4.2-7.6c2.7-2.6,6-4.3,9-4.8c3.9-0.5,8.2-0.1,12.3,1.3c4,1.4,7.9,3.7,11.2,7
	c6.7,6.7,10.7,15.1,12,23.8c0.3,2.2,0.5,4.3,0.5,6.5c0,11-4.2,21.9-12.6,30.3C766.3,214.1,755.3,218.3,744.4,218.3z"/>
<path class="st0" d="M106,251.2c18.6,0,37.2-6.9,51.8-20.6c1.8,2.5,3.7,4.8,5.9,7.1c11.5,11.5,26.6,17.2,41.6,17.2
	c7.3,0,14.6-1.4,21.4-4.1l-1.7,1.7c-7,7-7,18.4,0,25.4c7,7,18.4,7,25.4,0c-7,7-7,18.4,0,25.4c7,7,18.4,7,25.4,0l1.9-1.9l390.8,390.8
	l-64.2,64.2l33.7,33.7l64.2-64.2l9.4,9.4l-64.2,64.2l33.7,33.7l64.2-64.2l40.4,40.4c6.7,6.7,17.6,6.7,24.3,0l8.7-8.7
	c6.7-6.7,6.7-17.6,0-24.3L310.9,268.5l1.9-1.9c7-7,7-18.4,0-25.4c-7-7-18.4-7-25.4,0c7-7,7-18.4,0-25.4c-7-7-18.4-7-25.4,0l-1.7,1.7
	c2.7-6.9,4.1-14.2,4.1-21.4c0-15.1-5.8-30.1-17.2-41.6c-2.2-2.2-4.6-4.2-7.1-5.9c13.7-14.6,20.6-33.1,20.6-51.8
	c0-19.4-7.4-38.7-22.1-53.5c0,0,0,0-0.1-0.1c-12.5-12.5-28.4-19.7-44.7-21.7c-2.9-0.3-5.9-0.5-8.8-0.5c-1.2,0-2.4,0-3.6,0.1
	c-0.4,0-0.8,0.1-1.1,0.1c-0.8,0.1-1.6,0.1-2.4,0.2c-0.8,0.1-1.6,0.2-2.4,0.3c-0.3,0-0.7,0.1-1,0.1c-1.1,0.2-2.2,0.3-3.3,0.5
	c0,0,0,0,0,0c-13.8,2.6-27,9-37.9,19.2c-1.8-2.4-3.7-4.8-5.9-7c-11.5-11.5-26.6-17.2-41.6-17.2c-15.1,0-30.1,5.7-41.6,17.2
	C32.3,45.9,26.6,61,26.6,76.1c0,15.1,5.7,30.1,17.2,41.6c2.2,2.2,4.6,4.1,7,5.9c-10.2,10.9-16.7,24.1-19.2,37.9c0,0,0,0.1,0,0.1
	c-0.2,1.1-0.4,2.2-0.5,3.3c0,0.3-0.1,0.6-0.1,0.9c-0.1,0.9-0.2,1.7-0.3,2.6c-0.1,0.6-0.1,1.1-0.1,1.7c0,0.6-0.1,1.2-0.1,1.8
	c0,0.9-0.1,1.8-0.1,2.6c0,0.3,0,0.6,0,0.9c0,19.4,7.4,38.8,22.2,53.6c0.1,0.1,0.3,0.3,0.4,0.4C67.6,243.9,86.8,251.2,106,251.2z
	 M103.8,57.7c5.1,5.1,7.6,11.7,7.6,18.4c0,1-0.1,1.9-0.2,2.9c-0.2,0.9-0.4,1.7-0.6,2.6c-0.8,3.8-2.3,7.2-4.5,10.1c0,0,0,0,0,0
	c-0.7,1-1.5,1.9-2.3,2.7c-0.8,0.8-1.8,1.6-2.7,2.3c0,0,0,0,0,0c-2.9,2.1-6.3,3.7-10.2,4.5c-0.9,0.2-1.7,0.4-2.6,0.6
	c-1,0.1-1.9,0.2-2.9,0.2c-6.6,0-13.3-2.5-18.4-7.6c-5.1-5.1-7.6-11.7-7.6-18.4c0-6.6,2.5-13.3,7.6-18.4c5.1-5.1,11.7-7.6,18.4-7.6
	C92.1,50.1,98.7,52.6,103.8,57.7z M187,214.4c-5.1-5.1-7.6-11.7-7.6-18.4c0-1,0.1-1.9,0.2-2.9c0.2-0.9,0.4-1.7,0.6-2.6
	c0.8-3.8,2.3-7.2,4.4-10.1c0.1-0.1,0.1-0.1,0.1-0.2c0.7-0.9,1.4-1.8,2.2-2.6c0,0,0,0,0.1-0.1c0,0,0,0,0.1-0.1
	c0.8-0.8,1.7-1.5,2.6-2.2c0.1-0.1,0.2-0.1,0.2-0.2c2.9-2.1,6.3-3.6,10.1-4.4c0.9-0.2,1.7-0.4,2.6-0.6c1-0.1,1.9-0.2,2.9-0.2
	c6.6,0,13.3,2.5,18.4,7.6c5.1,5.1,7.6,11.7,7.6,18.4c0,6.6-2.5,13.3-7.6,18.4c-5.1,5.1-11.7,7.6-18.4,7.6
	C198.7,222,192.1,219.5,187,214.4z M75.7,205.7c-8.4-8.4-12.6-19.3-12.6-30.3c0-2.2,0.2-4.4,0.5-6.5c1.3-8.7,5.3-17.1,12-23.8
	c3.3-3.3,7.1-5.6,11.2-7c4.1-1.4,8.3-1.9,12.3-1.3c3.1,0.4,6.4,2.2,9,4.8c2.2,2.2,3.9,4.8,4.2,7.6c0.2,1.7-0.1,3.4-0.9,4.6
	c-0.7,1-1.8,1.8-3.4,2.3c-8.7,2.4-13.9,11.4-11.5,20.1c2.4,8.7,11.4,13.9,20.1,11.5c10-2.7,17.4-8.5,22.2-15.7
	c5.4-8.1,7.4-17.9,6.3-26.9c-0.6-4.7-2-9.2-4.1-13.4c4.2,2.1,8.7,3.5,13.4,4.1c9,1.1,18.8-0.9,26.9-6.3c7.2-4.8,13.1-12.2,15.7-22.2
	c2.4-8.7-2.8-17.7-11.5-20.1c-8.7-2.4-17.7,2.8-20.1,11.5c-0.4,1.7-1.3,2.8-2.3,3.4c-1.3,0.8-2.9,1.1-4.6,0.9
	c-2.7-0.3-5.4-1.9-7.6-4.2c-2.6-2.7-4.3-5.9-4.8-9c-0.5-3.9-0.1-8.2,1.3-12.3c1.4-4,3.7-7.9,7-11.1c4.6-4.6,10-7.9,15.8-10
	c4.7-1.7,9.6-2.6,14.5-2.6c11,0,21.9,4.2,30.3,12.6c8.4,8.4,12.5,19.3,12.5,30.3c0,11-4.2,21.9-12.6,30.3c-3.1,3.1-6.5,5.6-10,7.5
	c-2.9,1.6-6.1,2.7-9.2,3.5c-8.9,1.5-17.4,4.9-25,10.4c-0.5,0.3-1,0.7-1.4,1.1c-0.7,0.5-1.3,1-1.9,1.5c-1.2,1-2.5,2.1-3.6,3.3
	c0,0-0.1,0.1-0.1,0.1c0,0-0.1,0.1-0.1,0.1c-1.1,1.2-2.2,2.4-3.3,3.6c-0.5,0.6-1,1.3-1.5,1.9c-0.4,0.5-0.7,0.9-1,1.4
	c-5.5,7.6-9,16.1-10.4,25c-0.8,3.2-1.9,6.3-3.5,9.2c-1.9,3.6-4.4,6.9-7.5,10c-8.4,8.4-19.3,12.5-30.3,12.6
	C95.1,218.3,84.1,214.1,75.7,205.7z"/>
</svg>
