<?xml version="1.0" encoding="utf-8"?>
<!-- Generator: Adobe Illustrator 19.0.1, SVG Export Plug-In . SVG Version: 6.00 Build 0)  -->
<svg version="1.0" id="Layer_1" xmlns="http://www.w3.org/2000/svg" xmlns:xlink="http://www.w3.org/1999/xlink" x="0px" y="0px"
	 viewBox="0 0 850.4 850.4" style="enable-background:new 0 0 850.4 850.4;" xml:space="preserve">
<style type="text/css">
	.st0{fill:#FFFFFF;}
</style>
<path class="st0" d="M435.3,141.6c163.2,5.8,291.8,150,271.5,318.6c-15.5,129-119.8,232.3-248.9,246.9
	c-171,19.2-316.4-114.7-316.4-281.9c0-75.6,29.4-146.7,82.7-200.3c4-4,3.9-10.4,0-14.3c-4-3.9-10.4-3.9-14.3,0
	c-58.2,58.4-89.8,136.3-88.6,218.9c2.2,157.7,128.3,289.9,285.8,299.1C582.8,739,729.2,598.9,729.2,425.2
	c0-167.7-136.5-304.1-304.2-304c-5.5,0-10,4.6-10,10.1v0.8c0,5.2,4.2,9.4,9.4,9.4L435.3,141.6L435.3,141.6"/>
<g>
	<path class="st0" d="M556.5,474.3c-1.1,1.1-1.7,2.7-1.7,4.2c0,1.5,0.6,3,1.7,4.2c1.1,1.1,2.6,1.7,4.2,1.7c1.6,0,3.1-0.7,4.2-1.7
		c1.1-1.1,1.7-2.6,1.7-4.2c0-1.5-0.6-3.1-1.7-4.2C562.7,472.2,558.7,472.2,556.5,474.3L556.5,474.3z M556.5,474.3"/>
	<path class="st0" d="M387.7,462.4l-21.4-10.9v-2.3c9.6-5.2,16.3-13.9,20.1-25.7c5.7-3,9.4-8.9,9.4-15.5V402
		c0-5.5-2.5-10.5-6.8-13.8c-3.7-22.3-19.2-33.6-46.2-33.6c-1.3,0-2.5,0.1-3.7,0.1c-5.1,0.4-12.5,0-19-4.3c-2.4-1.6-4.2-3.2-5.4-4.7
		c-2-2.5-5.3-3.4-8.2-2.2c-3,1.2-4.7,4.2-4.3,7.4c0.3,2.2,0.6,4.7,1.2,7.6c1.1,5.7,1.1,5.7-0.5,9.2c-0.6,1.3-1.3,2.9-2.2,5
		c-1.9,4.7-3.3,10-4.1,15.6c-4.2,3.3-6.7,8.4-6.7,13.8v5.9c0,6.6,3.6,12.5,9.3,15.5c3.8,11.9,10.5,20.5,20.1,25.7v2.2L297,462.3
		c-8.1,4.4-13.1,12.9-13.1,22.1v7.8c0,4.7,0,15.8,58.9,15.8c58.9,0,58.9-11.1,58.9-15.8v-7.3C401.6,475.3,396.3,466.7,387.7,462.4
		L387.7,462.4z M389.8,490.9c-3.7,2.2-18.6,5.4-47.1,5.4s-43.5-3.1-47.1-5.4v-6.5c0-4.9,2.7-9.5,6.8-11.7l22.7-11.2
		c3.6-1.7,5.8-5.4,5.8-9.3v-10.6l-3.5-1.6c-8.9-3.8-14.8-11.2-17.8-22.5l-0.8-3.1l-3.1-0.9c-2.5-0.8-4.2-3.1-4.2-5.6V402
		c0-2.1,1.2-4.1,3.2-5.2l2.8-1.5l0.3-3.1c0.6-5.5,1.8-10.6,3.7-15.1c0.8-1.9,1.4-3.4,2-4.5c2-4.3,2.7-6.5,2.2-11
		c6.9,3.9,15.2,5.6,24.3,4.9c0.9-0.1,1.9-0.1,2.8-0.1c22.1,0,32.8,8,34.9,25.9l0.4,3.1l2.7,1.4c2,1,3.2,3,3.2,5.2v5.9
		c0,2.5-1.7,4.8-4.2,5.6l-3.1,0.9l-0.8,3.1c-3,11.3-8.8,18.6-17.8,22.5l-3.6,1.6v10.7c0,3.9,2.2,7.5,5.7,9.3l22.2,11.3l0,0
		c4.6,2.3,7.4,6.9,7.4,12V490.9z M389.8,490.9"/>
	<path class="st0" d="M431.1,384.4H490c3.2,0,5.9-2.7,5.9-5.9c0-3.3-2.7-5.9-5.9-5.9h-58.9c-3.3,0-5.9,2.6-5.9,5.9
		C425.2,381.7,427.8,384.4,431.1,384.4L431.1,384.4z M431.1,384.4"/>
	<path class="st0" d="M437,472.7h-5.9c-3.3,0-5.9,2.6-5.9,5.9c0,3.3,2.6,5.9,5.9,5.9h5.9c3.2,0,5.9-2.6,5.9-5.9
		C442.8,475.4,440.2,472.7,437,472.7L437,472.7z M437,472.7"/>
	<path class="st0" d="M472.3,472.7h-11.8c-3.3,0-5.9,2.6-5.9,5.9c0,3.3,2.6,5.9,5.9,5.9h11.8c3.3,0,5.9-2.6,5.9-5.9
		C478.2,475.4,475.6,472.7,472.3,472.7L472.3,472.7z M472.3,472.7"/>
	<path class="st0" d="M501.7,472.7h-5.9c-3.3,0-5.9,2.6-5.9,5.9c0,3.3,2.6,5.9,5.9,5.9h5.9c3.3,0,5.9-2.6,5.9-5.9
		C507.6,475.4,505,472.7,501.7,472.7L501.7,472.7z M501.7,472.7"/>
	<path class="st0" d="M537.1,472.7h-11.8c-3.3,0-5.9,2.6-5.9,5.9c0,3.3,2.6,5.9,5.9,5.9h11.8c3.3,0,5.9-2.6,5.9-5.9
		C543,475.4,540.3,472.7,537.1,472.7L537.1,472.7z M537.1,472.7"/>
	<path class="st0" d="M560.6,407.9H431.1c-3.3,0-5.9,2.6-5.9,5.9c0,3.2,2.6,5.9,5.9,5.9h129.6c3.3,0,5.9-2.6,5.9-5.9
		C566.5,410.6,563.9,407.9,560.6,407.9L560.6,407.9z M560.6,407.9"/>
	<path class="st0" d="M560.6,443.3H431.1c-3.3,0-5.9,2.6-5.9,5.9c0,3.3,2.6,5.9,5.9,5.9h129.6c3.3,0,5.9-2.6,5.9-5.9
		C566.5,445.9,563.9,443.3,560.6,443.3L560.6,443.3z M560.6,443.3"/>
	<path class="st0" d="M574.3,295.9H466.4v-45.3c0-7.5-6.1-13.6-13.6-13.6h-55.2c-7.5,0-13.6,6.1-13.6,13.6v45.3H276.1
		c-15.2,0-27.5,12.4-27.5,27.5v192.3c0,15.2,12.4,27.6,27.5,27.6h298.3c15.2,0,27.5-12.4,27.5-27.6V323.5
		C601.9,308.3,589.5,295.9,574.3,295.9L574.3,295.9z M395.7,250.7c0-1,0.8-1.8,1.8-1.8h55.2c1,0,1.8,0.8,1.8,1.8v78.8
		c0,1-0.8,1.8-1.8,1.8h-55.2c-1,0-1.8-0.8-1.8-1.8V250.7z M590.1,515.8c0,8.7-7.1,15.8-15.8,15.8H276.1c-8.7,0-15.8-7.1-15.8-15.8
		V323.5c0-8.7,7.1-15.8,15.8-15.8H384v21.7c0,7.5,6.1,13.6,13.6,13.6h55.2c7.5,0,13.6-6.1,13.6-13.6v-21.7h107.9
		c8.7,0,15.8,7.1,15.8,15.8V515.8z M590.1,515.8"/>
	<path class="st0" d="M425.2,301.8c13,0,23.6-10.6,23.6-23.6c0-13-10.6-23.6-23.6-23.6c-13,0-23.6,10.6-23.6,23.6
		C401.6,291.2,412.2,301.8,425.2,301.8L425.2,301.8z M425.2,266.5c6.5,0,11.8,5.3,11.8,11.8c0,6.5-5.3,11.8-11.8,11.8
		c-6.5,0-11.8-5.3-11.8-11.8C413.4,271.8,418.7,266.5,425.2,266.5L425.2,266.5z M425.2,266.5"/>
</g>
</svg>
