<?xml version="1.0" encoding="utf-8"?>
<!-- Generator: Adobe Illustrator 19.0.1, SVG Export Plug-In . SVG Version: 6.00 Build 0)  -->
<svg version="1.0" id="Layer_1" xmlns="http://www.w3.org/2000/svg" xmlns:xlink="http://www.w3.org/1999/xlink" x="0px" y="0px"
	 viewBox="0 0 850.4 850.4" style="enable-background:new 0 0 850.4 850.4;" xml:space="preserve">
<style type="text/css">
	.st0{fill:#D8CD63;}
</style>
<path class="st0" d="M435.3,708.7c163.2-5.8,291.8-150,271.5-318.6c-15.5-129-119.8-232.3-248.9-246.9
	c-171-19.2-316.4,114.7-316.4,281.9c0,75.6,29.4,146.7,82.7,200.3c4,4,3.9,10.4,0,14.3c-4,3.9-10.4,3.9-14.3,0
	c-58.2-58.4-89.8-136.3-88.6-218.9C123.4,263.1,249.5,131,407,121.7c175.8-10.3,322.2,129.8,322.2,303.5
	c0,167.7-136.5,304.1-304.2,304c-5.5,0-10-4.6-10-10.1v-0.8c0-5.2,4.2-9.4,9.4-9.4L435.3,708.7L435.3,708.7"/>
<g>
	<g>
		<path class="st0" d="M482,464.9c-4.1-2.5-36.6-21.3-36.6-21.3s12.6-31.6,18.2-47.6c1.2-0.1,52.6-17.8,76-25.9
			c16-5.5,7.1-30.1-9-24.6c-23.3,8-46.5,16-69.8,24.1c-6.4-6-16.8-8.1-25.5-4.9c-15.7-17.6-30.2-33.9-45.9-51.5
			c-11.4-12.7-31.2,4.6-19.9,17.2c15.7,17.6,49.2,54.8,50.2,55.5c-6,17-20.8,54.5-20.9,54.5c1,0.3-26,15-46.7,25.8
			c-5.3,2.8-8.8,9.8-4.7,19.9c6.7,16.4,14,32.5,20.9,48.9c2.8,6.6,8.6,11.3,16.2,9.2c6.3-1.7,12-9.6,9.2-16.2
			c-5.4-12.8-15.4-36.3-18.6-43.7c-0.5-1.3,0-2.8,1.2-3.4c6.8-3.5,26.8-13.7,29.4-15.1c4.7-2.3,12.5-5.9,24.1-0.4
			c2.8,1.3,24.5,13,31.7,16.8c1.5,0.8,2.4,2.3,2.5,3.9c0.5,8.2,2.1,33.7,3,47.6c1.2,16.8,27.5,15.6,26.3-1.4
			c-1.3-18.8-2.3-33-3.3-51.9C490.1,476.8,490.4,469.9,482,464.9L482,464.9z M482,464.9"/>
	</g>
	<path class="st0" d="M477.6,338.5c0,12-9.7,21.7-21.8,21.7c-12,0-21.7-9.7-21.7-21.7c0-12,9.7-21.8,21.7-21.8
		C467.8,316.8,477.6,326.5,477.6,338.5L477.6,338.5z M477.6,338.5"/>
</g>
<g>
	<g>
		<path class="st0" d="M633.1,370.4c0,10-8.1,18.1-18.1,18.1c-10,0-18.1-8.1-18.1-18.1c0-10,8.1-18.1,18.1-18.1
			C624.9,352.2,633.1,360.4,633.1,370.4L633.1,370.4z M633.1,370.4"/>
		<path class="st0" d="M650.8,426.8c-1.3-9-1.6-18.1-4-26.9c-3.2-11.7-20.1-8.1-20.2,2.5c-0.2-0.2-0.5-0.5-0.7-0.7
			c-1.7-2-3.6-2.9-5.6-3.2c-3.6-6.7-10.8-11-18.9-10.3c-2,0.1-3.8,0.6-5.6,1.3c-7.2-13.6-12-28.1-14.9-43.5
			c-2.4-13-22.2-7.5-19.8,5.4c3.9,20.5,11.2,40.1,22.3,57.8v0.1c1,11.9-0.2,31.5-1,40.7c-0.3,0.5-0.7,1.1-1,1.8
			c-10.7,25.4-14.8,54.5-16.9,81.9c-1,13.2,19.5,13.1,20.5,0c1.5-20.1,4.5-41.1,10.5-60.7c1.3,0.4,2.7,0.7,4.1,0.9
			c1.7,20.6,3.1,41.2,6.1,61.6c1.9,13.1,21.6,7.5,19.8-5.4c-3.1-21.4-4.1-43-6-64.5c-0.1-0.8-0.2-1.6-0.4-2.3c1.1-2.1,1.8-4.5,2-7.1
			c0.1-0.8,1.3-14.1,1.7-28.5c3.5,3.1,7.1,6.1,10.6,9.3C641.9,444,652.2,436.8,650.8,426.8L650.8,426.8z M650.8,426.8"/>
	</g>
</g>
<g>
	<g>
		<path class="st0" d="M343.7,356.9l-15.3-45.3c-1.7-5-7.1-7.7-12.2-6c-5,1.7-7.7,7.1-6,12.2l11,32.4h-97.7l11-32.6
			c1.7-5-1-10.5-6-12.2c-5-1.7-10.5,1-12.2,6l-15.3,45.3c-1,2.9-0.5,6.2,1.3,8.7c1.8,2.5,4.7,4,7.8,4h37.1v49.7L208,429.4
			c-3.2,0.8-5.8,3-7.3,5.8c-1.5,2.9-1.7,6.3-0.5,9.3l15.6,41.4c1.7,4.6,6.1,7.5,10.8,7.4c1.3,0,2.7-0.2,4.1-0.7
			c5.9-2.2,8.9-8.9,6.7-14.8l-11.1-29.5l23.6-6.2h26.1l11.7,33.8l-12.1,56.1c-1.3,6.2,2.6,12.3,8.8,13.7c0.8,0.2,1.6,0.3,2.4,0.3
			c5.3,0,10.1-3.7,11.2-9.1l12.7-59.2c0.4-2,0.3-4.2-0.4-6.2l-12.3-35.7v-66.3h36.6c3.1,0,6-1.5,7.8-4
			C344.2,363,344.7,359.8,343.7,356.9L343.7,356.9z M343.7,356.9"/>
	</g>
	<path class="st0" d="M292.7,324.2c0,11-8.9,19.9-19.9,19.9c-11,0-19.9-8.9-19.9-19.9c0-11,8.9-19.9,19.9-19.9
		C283.8,304.3,292.7,313.2,292.7,324.2L292.7,324.2z M292.7,324.2"/>
</g>
</svg>
