<?xml version="1.0" encoding="utf-8"?>
<!-- Generator: Adobe Illustrator 19.0.1, SVG Export Plug-In . SVG Version: 6.00 Build 0)  -->
<svg version="1.0" id="Layer_1" xmlns="http://www.w3.org/2000/svg" xmlns:xlink="http://www.w3.org/1999/xlink" x="0px" y="0px"
	 viewBox="0 0 850.4 850.4" style="enable-background:new 0 0 850.4 850.4;" xml:space="preserve">
<style type="text/css">
	.st0{fill:#5345DD;}
</style>
<path class="st0" d="M415.1,141.6c-163.2,5.8-291.8,150-271.5,318.6c15.5,129,119.8,232.3,248.9,246.9
	c171,19.2,316.4-114.7,316.4-281.9c0-75.6-29.4-146.7-82.7-200.3c-4-4-3.9-10.4,0-14.3c4-3.9,10.4-3.9,14.3,0
	c58.2,58.4,89.8,136.3,88.6,218.9C727,587.3,600.9,719.4,443.4,728.7C267.6,739,121.2,598.9,121.2,425.2
	c0-167.7,136.5-304.1,304.2-304c5.5,0,10,4.6,10,10.1v0.8c0,5.2-4.2,9.4-9.4,9.4L415.1,141.6L415.1,141.6"/>
<g>
	<path class="st0" d="M425.2,297.4c-57.9,0-99.8,43.2-106.4,89.6c-4.1,30.9,5.9,61.1,26.6,83.9c18.3,19.5,28.3,45.6,28.3,72.5
		l-0.1,42.3c0,17.1,14.1,30.9,31.6,30.9H446c17.5,0,31.6-13.8,31.6-30.9l0.1-42.3c0-27.6,9.1-53,26.6-70.8
		c19.1-19.5,29.1-44.7,29.1-70.8C533.4,343.7,484.2,297.4,425.2,297.4L425.2,297.4z M461.7,585.6c0,8.1-6.6,14.7-15,14.7H406
		c-8.4,0-15-6.5-15-14.7v-18.7h70.7L461.7,585.6L461.7,585.6z M492.7,461c-20.8,21.2-31.6,50.4-31.6,82.2v7.3h-70.7v-7.3
		c0-30.1-12.5-60.2-33.3-83c-18.3-19.5-25.8-44.8-22.5-70.8c5.9-39,42.2-75.7,90.7-75.7c50.8,0,91.5,39.9,91.5,87.9
		C516.8,423.6,508.4,444.7,492.7,461L492.7,461z M492.7,461"/>
	<rect x="416.8" y="233.9" class="st0" width="16.6" height="39"/>
	<g>
		<path class="st0" d="M526,309.1l11.6,11.6l28.5-27.4l-11.7-11.6L526,309.1z M526,309.1"/>
		<rect x="575.8" y="409.7" class="st0" width="40.8" height="16.3"/>
	</g>
	<rect x="233.9" y="409.7" class="st0" width="40.8" height="16.3"/>
	<path class="st0" d="M295.6,281.7l-11.7,11.6l28.5,27.4l11.6-11.6L295.6,281.7z M295.6,281.7"/>
</g>
</svg>
