<?xml version="1.0" encoding="utf-8"?>
<!-- Generator: Adobe Illustrator 19.0.1, SVG Export Plug-In . SVG Version: 6.00 Build 0)  -->
<svg version="1.0" id="Layer_1" xmlns="http://www.w3.org/2000/svg" xmlns:xlink="http://www.w3.org/1999/xlink" x="0px" y="0px"
	 viewBox="0 0 850.4 850.4" style="enable-background:new 0 0 850.4 850.4;" xml:space="preserve">
<style type="text/css">
	.st0{fill:#FFFFFF;}
</style>
<g>
	<path class="st0" d="M435.3,708.7c163.2-5.8,291.8-150,271.5-318.6c-15.5-129-119.8-232.3-248.9-246.9
		c-171-19.2-316.4,114.7-316.4,281.9c0,75.6,29.4,146.7,82.7,200.3c4,4,3.9,10.4,0,14.3c-4,3.9-10.4,3.9-14.3,0
		c-58.2-58.4-89.8-136.3-88.6-218.9C123.4,263.1,249.5,131,407,121.7c175.8-10.3,322.2,129.8,322.2,303.5
		c0,167.7-136.5,304.1-304.2,304c-5.5,0-10-4.6-10-10.1v-0.8c0-5.2,4.2-9.4,9.4-9.4L435.3,708.7L435.3,708.7"/>
	<path class="st0" d="M516.4,339.1c0-50.3-40.9-91.2-91.2-91.2S334,288.8,334,339.1c0,28.5,13.2,55.1,35.7,72.3l-27.1,191.1h165.2
		l-27.1-191.1C503.2,394.2,516.4,367.6,516.4,339.1z M484.5,582.3H365.9l25.6-180.5l-5.4-3.5c-20-13.2-31.9-35.3-31.9-59.2
		c0-39.1,31.8-70.9,70.9-70.9s70.9,31.8,70.9,70.9c0,23.9-11.9,46-31.9,59.2l-5.4,3.5L484.5,582.3z"/>
</g>
</svg>
