<?xml version="1.0" encoding="utf-8"?>
<!-- Generator: Adobe Illustrator 19.0.1, SVG Export Plug-In . SVG Version: 6.00 Build 0)  -->
<svg version="1.0" id="Layer_1" xmlns="http://www.w3.org/2000/svg" xmlns:xlink="http://www.w3.org/1999/xlink" x="0px" y="0px"
	 viewBox="0 0 850.4 850.4" style="enable-background:new 0 0 850.4 850.4;" xml:space="preserve">
<style type="text/css">
	.st0{fill:#FFFFFF;}
</style>
<path class="st0" d="M415.1,141.6c-163.2,5.8-291.8,150-271.5,318.6c15.5,129,119.8,232.3,248.9,246.9
	c171,19.2,316.4-114.7,316.4-281.9c0-75.6-29.4-146.7-82.7-200.3c-4-4-3.9-10.4,0-14.3c4-3.9,10.4-3.9,14.3,0
	c58.2,58.4,89.8,136.3,88.6,218.9C727,587.3,600.9,719.4,443.4,728.7C267.6,739,121.2,598.9,121.2,425.2
	c0-167.7,136.5-304.1,304.2-304c5.5,0,10,4.6,10,10.1v0.8c0,5.2-4.2,9.4-9.4,9.4L415.1,141.6L415.1,141.6"/>
<g>
	<path class="st0" d="M259,372.3h145.9c5.6,0,10.1,4.5,10.1,10.1l0,7.3h20.2v-7.3c0-16.8-13.6-30.4-30.4-30.4H259
		c-5.6,0-10.1-4.5-10.1-10.1c0-5.6,4.5-10.1,10.1-10.1h332.3c16.8,0,30.4-13.6,30.4-30.4c0-16.8-13.6-30.4-30.4-30.4H295.5
		c-5.6,0-10.1-4.5-10.1-10.1c0-5.6,4.5-10.1,10.1-10.1h259.5c16.8,0,30.4-13.6,30.4-30.4c0-16.8-13.6-30.4-30.4-30.4H445.5
		c-5.6,0-10.1-4.5-10.1-10.1v-10.5c0-5.6-4.5-10.1-10.1-10.1c-5.6,0-10.1,4.5-10.1,10.1v10.5c0,16.8,13.6,30.4,30.4,30.4h109.5
		c5.6,0,10.1,4.5,10.1,10.1c0,5.6-4.5,10.1-10.1,10.1H295.5c-16.8,0-30.4,13.6-30.4,30.4c0,16.8,13.6,30.4,30.4,30.4h295.9
		c5.6,0,10.1,4.5,10.1,10.1c0,5.6-4.5,10.1-10.1,10.1H259c-16.8,0-30.4,13.6-30.4,30.4C228.6,358.6,242.3,372.3,259,372.3z"/>
	<path class="st0" d="M526.7,389.7h-93.6l0,0h-15.8l0,0h-93.6c-47.3,0-85.9,38.5-85.9,85.9c0,47.3,38.5,85.9,85.9,85.9
		c27,0,52.2-12.6,68.5-34h66.2c16.2,21.4,41.5,34,68.4,34c47.3,0,85.9-38.5,85.9-85.9C612.6,428.2,574.1,389.7,526.7,389.7z
		 M526.7,545.5c-23.1,0-44.8-11.4-57.8-30.6c-1.5-2.2-3.9-3.5-6.5-3.5h-74.3c-2.6,0-5.1,1.3-6.5,3.5c-13.1,19.2-34.7,30.6-57.8,30.6
		c-38.6,0-70-31.4-70-70c0-38.6,31.4-70,70-70h203c38.6,0,70,31.4,70,70C596.7,514.1,565.3,545.5,526.7,545.5z"/>
	<path class="st0" d="M555.1,591.9"/>
	<path class="st0" d="M323.7,425c-27.8,0-50.5,22.7-50.5,50.5c0,27.9,22.7,50.5,50.5,50.5c27.8,0,50.5-22.7,50.5-50.5
		C374.2,447.7,351.5,425,323.7,425L323.7,425z M323.7,510.2c-19.1,0-34.7-15.5-34.7-34.7c0-19.1,15.5-34.7,34.7-34.7
		c19.1,0,34.7,15.5,34.7,34.7C358.3,494.6,342.8,510.2,323.7,510.2L323.7,510.2z M323.7,510.2"/>
	<path class="st0" d="M497.7,463.7c-6.6,0-11.9,5.3-11.9,11.9c0,6.6,5.3,11.9,11.9,11.9h0c6.6,0,11.9-5.3,11.9-11.9
		C509.6,469,504.2,463.7,497.7,463.7L497.7,463.7z M497.7,463.7"/>
	<path class="st0" d="M555.7,463.5c-6.6,0-11.9,5.4-11.8,11.9c0,6.5,5.3,11.8,11.9,11.8h0c6.6,0,11.9-5.4,11.9-11.9
		C567.6,468.8,562.3,463.5,555.7,463.5L555.7,463.5z M555.7,463.5"/>
	<path class="st0" d="M526.8,492.7L526.8,492.7c-6.6,0-12,5.3-12,11.9c0,6.6,5.3,11.9,11.9,11.9h0.2c6.6,0,11.9-5.4,11.8-11.9
		C538.7,498,533.4,492.7,526.8,492.7L526.8,492.7z M526.8,492.7"/>
	<path class="st0" d="M526.7,458.4L526.7,458.4c6.6,0,11.9-5.4,11.9-11.9c0-6.6-5.3-11.9-11.9-11.9c-6.6,0-11.9,5.3-11.9,11.9
		C514.8,453.1,520.1,458.4,526.7,458.4L526.7,458.4z M526.7,458.4"/>
	<path class="st0" d="M331.6,467.6v-11.1c0-4.4-3.5-7.9-7.9-7.9c-4.4,0-7.9,3.5-7.9,7.9v11.1h-11.1c-4.4,0-7.9,3.5-7.9,7.9
		c0,4.4,3.5,7.9,7.9,7.9h11.1v11.1c0,4.4,3.5,7.9,7.9,7.9c4.4,0,7.9-3.5,7.9-7.9v-11.1h11.1c4.4,0,7.9-3.5,7.9-7.9
		c0-4.4-3.5-7.9-7.9-7.9H331.6z M331.6,467.6"/>
	<path class="st0" d="M412.6,480.9h-15.2c-4.4,0-7.9,3.5-7.9,7.9s3.5,7.9,7.9,7.9h15.2c4.4,0,7.9-3.5,7.9-7.9
		S416.9,480.9,412.6,480.9L412.6,480.9z M412.6,480.9"/>
	<path class="st0" d="M453,480.9h-15.2c-4.4,0-7.9,3.5-7.9,7.9s3.5,7.9,7.9,7.9H453c4.4,0,7.9-3.5,7.9-7.9S457.4,480.9,453,480.9
		L453,480.9z M453,480.9"/>
</g>
</svg>
