<?xml version="1.0" encoding="utf-8"?>
<!-- Generator: Adobe Illustrator 19.0.1, SVG Export Plug-In . SVG Version: 6.00 Build 0)  -->
<svg version="1.0" id="Layer_1" xmlns="http://www.w3.org/2000/svg" xmlns:xlink="http://www.w3.org/1999/xlink" x="0px" y="0px"
	 viewBox="0 0 1417.3 1417.3" style="enable-background:new 0 0 1417.3 1417.3;" xml:space="preserve">
<style type="text/css">
	.st0{fill:#FFFFFF;}
</style>
<g>
	<path class="st0" d="M423,398.4c-14.4-13-36.8-11.8-49.8,2.6c-13,14.4-11.8,36.8,2.6,49.8l59.1,53.2c8.8,7.9,20.6,10.6,31.4,8.2
		l-40.4-36.4c-8.4-7.5-9-20.4-1.5-28.7c7.5-8.4,20.4-9,28.7-1.5l40.4,36.4c1.3-11-2.6-22.4-11.4-30.3L423,398.4z"/>
	<path class="st0" d="M994.4,398.4l-59.1,53.2c-8.8,7.9-12.7,19.3-11.4,30.3l40.4-36.4c8.3-7.5,21.2-6.8,28.7,1.5
		c7.5,8.3,6.8,21.2-1.5,28.7L951,512.1c10.8,2.4,22.5-0.2,31.4-8.2l59.1-53.2c14.4-13,15.6-35.3,2.6-49.8
		C1031.1,386.6,1008.8,385.4,994.4,398.4z"/>
	<path class="st0" d="M708.7,103.4c-334.3,0-605.3,271-605.3,605.3c0,334.3,271,605.3,605.3,605.3c334.3,0,605.3-271,605.3-605.3
		C1314,374.4,1042.9,103.4,708.7,103.4z M875.2,584.8l-42.3,38c-4.4,3.9-10,6.1-16,6.1c-2.2,0-4.4-0.3-6.5-0.9
		c-10.2-46.8-52-82-101.8-82c-50.3,0-92.4,35.8-102.1,83.2c-1.4,0.3-2.9,0.4-4.4,0.4c-6.1,0-11.9-2.2-16.5-6.3l-43.4-39
		c26.3-66.1,90.9-113,166.3-113C784.2,471.4,849,518.5,875.2,584.8z M465.1,553.3c-20.2,1.8-41.1-4.5-57.4-19.1L348.6,481
		c-31.1-28-33.7-76.1-5.7-107.2c28-31.1,76.1-33.7,107.2-5.7l59.1,53.2c16.3,14.6,24.7,34.7,25.1,55c20.2-1.8,41.1,4.5,57.4,19.1
		l2,1.8c-11,8.1-21.1,17.4-30.1,27.7c-8.7-7.3-20-9.7-30.4-7.3l21,18.9c-8.3,11-15.4,23-21.1,35.7L506,547.8
		c-1.3,11,2.6,22.4,11.4,30.3l59.1,53.2c14.4,13,36.8,11.8,49.8-2.6c8.9-9.9,11.2-23.5,7-35.3c8.6-11.1,19.7-20.2,32.4-26.4
		c16.1,27.7,13.4,63.8-9.2,88.9c-28,31.1-76.1,33.7-107.2,5.7l-59.1-53.2C473.9,593.7,465.5,573.6,465.1,553.3z M924.7,1058
		c0,5.9-4.7,10.6-10.6,10.6H503.3c-5.9,0-10.6-4.7-10.6-10.6V708.8c0-5.9,4.7-10.6,10.6-10.6h26.5v-41.9l14.6,13.1
		c15.9,14.3,36.4,22.2,57.8,22.2c0.8,0,1.5,0,2.3-0.1v6.6h208.4v-5.9c1.3,0.1,2.7,0.1,4.1,0.1c21.6,0,42.3-7.9,58.3-22.4l12.3-11.1
		v39.3h26.5c5.9,0,10.6,4.7,10.6,10.6V1058z M1068.7,481l-59.1,53.2c-16.3,14.6-37.1,20.9-57.4,19.1c-0.4,20.3-8.8,40.4-25.1,55
		L868,661.6c-31.1,28-79.2,25.5-107.2-5.7c-22.6-25.1-25.3-61.2-9.2-88.9c12.7,6.3,23.8,15.3,32.4,26.4c-4.1,11.8-1.9,25.4,7,35.3
		c13,14.5,35.3,15.6,49.8,2.6l59.1-53.2c8.8-7.9,12.7-19.3,11.4-30.3l-27.1,24.4c-5.7-12.7-12.9-24.7-21.1-35.7l21-18.9
		c-10.4-2.3-21.7,0.1-30.4,7.3c-9-10.3-19.1-19.5-30.1-27.7l2-1.8c16.3-14.6,37.1-20.9,57.4-19.1c0.4-20.3,8.8-40.4,25.1-55
		l59.1-53.2c31.1-28,79.2-25.5,107.2,5.7C1102.4,404.9,1099.8,453,1068.7,481z"/>
	<path class="st0" d="M708.7,858.4c-23.2,0-41.9,18.8-41.9,41.9c0,11.7,4.8,22.3,12.6,29.9v40.1c0,16.2,13.1,29.4,29.4,29.4
		c16.2,0,29.4-13.1,29.4-29.4v-40.1c7.8-7.6,12.6-18.2,12.6-29.9C750.6,877.2,731.8,858.4,708.7,858.4z"/>
</g>
</svg>
