<?xml version="1.0" encoding="utf-8"?>
<!-- Generator: Adobe Illustrator 19.0.1, SVG Export Plug-In . SVG Version: 6.00 Build 0)  -->
<svg version="1.1" id="Layer_1" xmlns="http://www.w3.org/2000/svg" xmlns:xlink="http://www.w3.org/1999/xlink" x="0px" y="0px"
	 viewBox="200 200 297.3 420.9" style="enable-background:new 0 0 595.3 841.9;" xml:space="preserve">
<style type="text/css">
	.st0{fill:#FFFFFF;}
	.st1{fill-rule:evenodd;clip-rule:evenodd;fill:#FFFFFF;}
</style>
<g>
	<g>
		<g>
			<path class="st0" d="M286.5,435.5c16,0,24-5.7,24-17.1v-52.1c0-5.9-2.4-10.2-7.2-13c-4.8-2.8-10.4-4.2-16.8-4.2
				c-16.5,0-24.7,5.9-24.7,17.8v50.6C261.9,429.6,270.1,435.5,286.5,435.5z M282.6,366.4c0-2.8,1.2-4.2,3.6-4.2
				c2.4,0,3.6,1.4,3.6,4.2v51.8c0,2.9-1.2,4.3-3.6,4.3c-2.4,0-3.6-1.4-3.6-4.3V366.4z"/>
			<path class="st0" d="M319.2,432.3c3,2.2,6.5,3.2,10.6,3.2c5.9,0,10.2-1.3,12.9-4v2.8h20.8v-84.6h-20.8v68.9
				c0,2.5-1.2,3.7-3.6,3.7c-2.4,0-3.6-1.3-3.6-3.9v-68.8h-20.8v74C314.7,427.3,316.2,430.1,319.2,432.3z"/>
			<path class="st0" d="M399.3,418.7c-1.5-0.8-2.2-2.5-2.2-5v-51.4h11.2v-12.5h-11.2v-17h-20.8v17H367v12.5h9.3v51.6
				c0,8,0.9,13.4,2.8,16.2c1.8,2.8,7.5,4.2,16.8,4.2H409V420C404,420,400.8,419.6,399.3,418.7z"/>
			<path class="st0" d="M292.1,495l0.2-6.6c0-5.4-2.8-8.7-8.3-10c5.5-1.7,8.2-4.9,8.2-9.6v-7.3c0-3.7-1.4-6.4-4.2-8.2
				c-2.8-1.7-6-2.6-9.8-2.6h-16.5v60.7h13.3v-29.1c2.8,0,4.1,1,4.1,3.1c0,0.1,0,2.7-0.1,7.7l-0.1,3.6v0.1c0,8,0.7,12.9,2.2,14.6
				h13.3C292.9,510.3,292.1,504.8,292.1,495z M279.3,471.8c0,2.2-1.4,3.2-4.1,3.2v-16.4c2.7,0,4.1,1.1,4.1,3.2V471.8z"/>
			<path class="st0" d="M311.6,450.2c-10.2,0-15.3,3.9-15.3,11.8v39.1c0,7.3,5.1,10.9,15.2,10.9c4.5,0,8.2-0.9,11-2.9
				c2.8-1.9,4.2-4.6,4.2-8.1V462C326.7,454.1,321.6,450.2,311.6,450.2z M313.7,501.7c0,1.2-0.7,1.8-2.2,1.8c-1.5,0-2.2-0.6-2.2-1.8
				v-41.3c0-1.2,0.7-1.8,2.2-1.8c1.4,0,2.2,0.6,2.2,1.8V501.7z"/>
			<path class="st0" d="M344.7,450.2c-10.2,0-15.3,3.9-15.3,11.8v39.1c0,7.3,5.1,10.9,15.2,10.9c4.5,0,8.2-0.9,11-2.9
				c2.8-1.9,4.2-4.6,4.2-8.1V462C359.8,454.1,354.7,450.2,344.7,450.2z M346.8,501.7c0,1.2-0.7,1.8-2.2,1.8c-1.5,0-2.2-0.6-2.2-1.8
				v-41.3c0-1.2,0.8-1.8,2.2-1.8c1.4,0,2.2,0.6,2.2,1.8V501.7z"/>
			<polygon class="st0" points="385.9,482.3 379.8,450.8 362.6,450.8 362.6,511.5 373,511.5 373,477.4 381,511.5 390.2,511.5 
				397.1,477.4 397.1,511.5 409,511.5 409,450.8 391.2,450.8 			"/>
		</g>
		<g>
			<path class="st0" d="M580.6,448.9l-1-1.1l0.5-1.4c3.7-9.4,0.6-17.4-2.2-22c-1.2,5.4-3.1,9.4-4.1,11.3c2.3,5.3,2.5,10.4,0.6,15
				c-0.4,0.9-0.8,1.8-1.4,2.6c3.1,7,3.5,12.7,1,17.2c-2.6,4.6-7.5,6.4-10.3,7c-2.1,18.2-20.4,19.5-20.6,19.5c0,0-0.1,0-0.1,0
				c-1.2,0-2.3-1-2.3-2.2c-0.1-1.3,0.9-2.4,2.2-2.5c0.6,0,15.6-1.2,16.3-16.9l0.1-2l2-0.2c0.1,0,6.2-0.7,8.6-5.1
				c1.5-2.7,1.4-6.3-0.3-10.7c-3,3-6.5,4.8-8.4,5.7c-0.1,2.4-0.7,4.6-1.9,6.6c-2.6,4.6-7.9,7.9-15,9.3c-0.3,0.1-0.9,0.1-1.7,0.2
				c-3.5,0.4-11.7,1.3-14.5,6.4c-1.8,3.2-1.4,7.9,1.4,13.9c2.6,5.8,6.1,9.1,10.1,9.8c7.8,1.4,16.1-6.6,16.2-6.6
				C594.8,465.5,580.8,449.1,580.6,448.9z"/>
			<path class="st0" d="M539.3,449.7c-0.2,0-0.4,0-0.5,0c-2.5,0-4.8-1-6.9-3c-1.2-1.2-2.3-2.6-3.3-4.3c-0.6,2.3-1.4,7-1.4,16.4
				c0,13.3,2,17.7,3,19c4.3-2.3,9.4-2.9,12.1-3.2c0.6-0.1,1-0.1,1.3-0.2c5.7-1.1,9.9-3.6,11.8-7c1.7-3,1.7-6.9,0.1-11.6
				c-0.4-1.2,0.2-2.6,1.4-3c1.2-0.4,2.5,0.2,3,1.4c0.5,1.3,0.8,2.6,1.1,3.9c2.9-1.6,7.3-4.6,9.2-9.2c1.5-3.6,1.1-7.8-1-12.3
				l-0.6-1.2l0.7-1.1c0.3-0.4,4.1-6.5,4.9-15.7c0-0.1,0-0.2,0-0.2c0.4-5.2-0.2-11.3-2.9-17.9c-4.1-9.9-7.4-13.8-9.3-15.4
				c0,3.6-0.8,6.4-1.5,8c3.9,4.1,7.2,10.2,6,18.7c3.1,0.6,4.1,2.3,4.4,3.1c0.5,1.2-0.2,2.6-1.4,3c-0.3,0.1-0.5,0.2-0.8,0.2
				c-0.8,0-1.6-0.5-2.1-1.2c-0.3-0.2-2.3-1.5-9.5,0.7c0.6,3.3,0.6,7.4-0.7,12.7c-0.3,1.1-1.2,1.8-2.3,1.8c-0.2,0-0.4,0-0.5-0.1
				c-1.3-0.3-2-1.6-1.7-2.8c3.5-14.8-3.8-18.3-3.8-18.4c-1.2-0.5-1.7-1.9-1.1-3.1c0.5-1.2,1.9-1.7,3.1-1.1c0.3,0.1,3.7,1.8,5.8,6.5
				c2.3-0.7,4.3-1.1,5.9-1.3c2.5-15.5-12.8-21-13.5-21.3c-1.2-0.4-1.9-1.8-1.4-3c0.4-1.2,1.8-1.9,3-1.4c0.1,0,3.2,1.2,6.8,3.8
				c0.9-3.1,1.5-9.1-3.4-15.8c-4.8-6.6-14.5-12.5-20.3-10.6c-4.7,1.5-5.7,8.2-5.7,13.5V390c0,2.4,0.6,9,3.5,12c1,1,2.1,1.4,3.5,1.4
				c1.3,0,2.3,1,2.3,2.3c0,1.3-1,2.3-2.3,2.3c-1.6,0-3-0.3-4.3-1c-0.8,3.4-1.9,8.9-1.9,14.6c0,7.2,2.7,17.5,7.1,21.6
				c1.3,1.2,2.5,1.8,3.9,1.7c1.3-0.1,2.4,0.9,2.5,2.2C541.5,448.5,540.6,449.6,539.3,449.7z"/>
			<path class="st0" d="M483.1,479.2c-0.7-0.1-1.3-0.2-1.7-0.2c-7.1-1.4-12.4-4.7-15-9.3c-1.1-2-1.7-4.2-1.9-6.6
				c-1.9-0.9-5.4-2.7-8.4-5.7c-1.6,4.5-1.8,8.1-0.3,10.7c2.4,4.4,8.5,5,8.6,5.1l2,0.2l0.1,2c0.8,15.8,15.7,16.9,16.3,16.9
				c1.3,0.1,2.3,1.2,2.2,2.5c-0.1,1.2-1.1,2.2-2.3,2.2c0,0-0.1,0-0.1,0c-0.2,0-18.5-1.3-20.6-19.5c-2.7-0.6-7.7-2.4-10.3-7
				c-2.5-4.4-2.1-10.2,1-17.2c-0.5-0.8-1-1.7-1.4-2.6c-1.9-4.6-1.7-9.6,0.6-15c-1-1.8-3-5.8-4.1-11.3c-2.8,4.6-5.9,12.6-2.2,22
				l0.5,1.4l-1,1.1c-0.1,0.2-14.2,16.6,24.6,53.7c0.1,0.1,8.4,8.1,16.2,6.6c4.1-0.8,7.5-4.1,10.1-9.8c2.7-6,3.2-10.6,1.4-13.9
				C494.8,480.5,486.6,479.6,483.1,479.2z"/>
			<path class="st0" d="M493,363.4c-5.8-1.9-15.5,4.1-20.3,10.6c-4.9,6.7-4.3,12.6-3.4,15.8c3.6-2.6,6.7-3.7,6.8-3.8
				c1.2-0.4,2.5,0.2,3,1.4c0.4,1.2-0.2,2.6-1.4,3c-0.7,0.2-15.9,5.8-13.5,21.3c1.7,0.2,3.6,0.6,5.9,1.3c2.1-4.8,5.5-6.4,5.8-6.5
				c1.2-0.5,2.6,0,3.1,1.1c0.5,1.2,0,2.6-1.1,3.1c-0.1,0-7.3,3.6-3.8,18.4c0.3,1.3-0.5,2.5-1.7,2.8c-0.2,0-0.4,0.1-0.5,0.1
				c-1.1,0-2-0.7-2.3-1.8c-1.2-5.3-1.3-9.4-0.7-12.7c-7.2-2.2-9.2-0.9-9.5-0.7c-0.4,0.8-1.2,1.2-2.1,1.2c-0.3,0-0.6,0-0.8-0.2
				c-1.2-0.5-1.8-1.8-1.4-3c0.3-0.8,1.3-2.5,4.4-3.1c-1.1-8.5,2.1-14.6,6-18.7c-0.7-1.6-1.6-4.4-1.5-8c-1.9,1.6-5.2,5.5-9.3,15.4
				c-2.8,6.6-3.3,12.7-3,17.9c0,0.1,0,0.2,0,0.2c0.8,9.2,4.6,15.3,4.9,15.7l0.7,1.1l-0.6,1.2c-2.2,4.5-2.5,8.7-1,12.3
				c1.9,4.6,6.3,7.6,9.2,9.2c0.3-1.2,0.6-2.5,1.1-3.9c0.4-1.2,1.8-1.9,3-1.4c1.2,0.4,1.8,1.8,1.4,3c-1.7,4.7-1.7,8.6,0.1,11.6
				c1.9,3.4,6.1,5.8,11.8,7c0.3,0.1,0.7,0.1,1.3,0.2c2.7,0.3,7.8,0.9,12.1,3.2c1-1.3,3-5.7,3-19c0-9.3-0.7-14-1.4-16.4
				c-1,1.7-2.1,3.2-3.3,4.3c-2.1,2-4.4,3-6.9,3c-0.2,0-0.4,0-0.5,0c-1.3-0.1-2.3-1.2-2.2-2.5c0.1-1.3,1.2-2.3,2.5-2.2
				c1.4,0.1,2.6-0.5,3.9-1.7c4.4-4.1,7.1-14.4,7.1-21.6c0-5.7-1.1-11.2-1.9-14.6c-1.3,0.6-2.7,1-4.3,1c-1.3,0-2.3-1-2.3-2.3
				c0-1.3,1-2.3,2.3-2.3c1.4,0,2.5-0.5,3.5-1.4c2.9-2.9,3.5-9.6,3.5-12v-13.1C498.7,371.6,497.7,365,493,363.4z"/>
		</g>
	</g>
	<g>
		<g>
			<path class="st0" d="M49.6,378.4c8.9-3,13.4-8.2,13.4-15.5v-14.5c0-6.5-2.4-11.2-7.1-14.1c-4.8-2.9-10.4-4.4-16.8-4.4h-27v104.5
				H41c6.2,0,11.6-1.7,16.1-5.1c4.5-3.4,6.7-8.6,6.7-15.5v-20.3C63.8,385.8,59.1,380.7,49.6,378.4z M41.4,415.4
				c0,3.7-2.1,5.5-6.4,5.5v-37.4c4.3,0,6.4,1.8,6.4,5.5V415.4z M41.4,366.6c0,3.7-2.1,5.6-6.4,5.6v-28.8c4.3,0,6.4,1.8,6.4,5.5
				V366.6z"/>
			<rect x="68.7" y="329.9" class="st0" width="20.8" height="104.5"/>
			<path class="st0" d="M172.5,349.2c-16.4,0-24.6,5.9-24.6,17.8v50.6c0,11.9,8.2,17.8,24.6,17.8c16,0,24-5.7,24-17.1v-20.6h-20.8
				v20.5c0,2.9-1.2,4.3-3.5,4.3c-2.4,0-3.6-1.4-3.6-4.3v-51.8c0-2.8,1.2-4.2,3.6-4.2c2.3,0,3.5,1.4,3.5,4.2v20.8h20.8v-20.9
				C196.5,354.9,188.5,349.2,172.5,349.2z"/>
			<polygon class="st0" points="239,386.8 254.1,349.8 232.6,349.8 222,376.8 222,329.9 201.2,329.9 201.2,434.3 222,434.3 
				222,403.8 234.7,434.3 259.1,434.3 			"/>
			<path class="st0" d="M119.9,349.2c-16.5,0-24.8,5.7-24.8,17.1v16.9h20c0-1.2-0.1-3-0.3-5.4c-0.1-2.4-0.2-4.2-0.2-5.4
				c0-6.8,1.4-10.1,4.1-10.1c2.4,0,3.6,1.4,3.6,4.2V379c0,1.5-2.4,3.4-7.2,5.8c-8.3,4.2-13.8,7.7-16.6,10.6
				c-2.7,2.8-4.1,6.1-4.1,9.9v17c0,8.8,5.7,13.3,17,13.3c7.3,0,11.8-1.5,13.3-4.4v3.3h18.4V367C143.1,355.1,135.4,349.2,119.9,349.2
				z M111.9,422.1l4.3-12.6c-2.5-1-4.2-3.4-4.2-6.2c0-3.7,3-6.7,6.7-6.7c3.7,0,6.7,3,6.7,6.7c0,2.8-1.7,5.2-4.2,6.2l4.3,12.6H111.9z
				"/>
		</g>
		<path class="st1" d="M547.7,315.1c0-0.1,0-0.1,0-0.2c0-5.5-2.2-10.5-5.9-14.1c-0.1-0.1-0.1-0.1-0.2-0.2c-0.2-0.2-0.3-0.3-0.5-0.5
			c-0.1-0.1-0.2-0.2-0.4-0.3c-0.1-0.1-0.2-0.2-0.3-0.3c-0.2-0.1-0.4-0.3-0.5-0.4c-0.1,0-0.1-0.1-0.2-0.1c-0.2-0.2-0.5-0.3-0.7-0.5
			c0,0,0,0,0,0c-3.1-2.1-6.7-3.4-10.7-3.5c0.1-0.8,0.2-1.6,0.2-2.4c0-4.3-1.7-8.2-4.6-11c-2.8-2.8-6.7-4.6-11-4.6
			c-4.3,0-8.2,1.7-11,4.6c-2.8,2.8-4.6,6.7-4.6,11c0,0.8,0.1,1.6,0.2,2.4c-4,0.1-7.6,1.4-10.7,3.5c0,0,0,0,0,0
			c-0.2,0.2-0.5,0.3-0.7,0.5c-0.1,0.1-0.1,0.1-0.2,0.2c-0.2,0.1-0.3,0.3-0.5,0.4c-0.2,0.1-0.3,0.3-0.5,0.4c-0.1,0.1-0.2,0.1-0.2,0.2
			c-0.2,0.2-0.5,0.4-0.7,0.7c-0.6,0.6-1.1,1.1-1.6,1.7c-2.7,3.4-4.3,7.7-4.3,12.4c0,0,0,0,0,0c0,5.5,2.2,10.5,5.9,14.1
			c3.5,3.5,8.2,5.7,13.5,5.8c-0.1,0.8-0.2,1.6-0.2,2.4c0,4.3,1.7,8.2,4.6,11c1.4,1.4,3,2.5,4.8,3.2h-0.7c-2.6,0-4.7,2.1-4.7,4.7
			c0,2.6,2.1,4.7,4.7,4.7c-2.6,0-4.7,2.1-4.7,4.7c0,2.6,2.1,4.8,4.7,4.8h0.7v189.7c0,2.5,2,4.5,4.5,4.5h3.3c2.5,0,4.5-2,4.5-4.5
			v-15.1h24v-12.6h-24v-3.5h24v-12.6h-24V370.6h0.7c2.6,0,4.7-2.1,4.7-4.8c0-2.6-2.1-4.7-4.7-4.7c2.6,0,4.7-2.1,4.7-4.7
			c0-2.6-2.1-4.7-4.7-4.7h-0.7c1.8-0.8,3.4-1.9,4.8-3.2c2.8-2.8,4.6-6.7,4.6-11c0-0.8-0.1-1.6-0.2-2.4c5.3-0.2,10-2.3,13.5-5.8
			C545.4,325.5,547.6,320.6,547.7,315.1z M508.1,287.7c1.2-1.2,3-2,4.8-2c1.9,0,3.6,0.8,4.8,2c1.2,1.2,2,3,2,4.8
			c0,1.9-0.8,3.6-2,4.9c-0.2,0.2-0.4,0.3-0.6,0.5c-0.2,0.1-0.4,0.2-0.6,0.4c-0.9,0.6-1.8,0.9-2.7,1.1c0,0,0,0,0,0
			c-0.3,0-0.6,0.1-0.9,0.1s-0.6,0-0.9-0.1c0,0,0,0,0,0c-0.9-0.1-1.9-0.5-2.7-1.1c-0.2-0.1-0.4-0.2-0.6-0.4c-0.2-0.2-0.4-0.3-0.6-0.5
			c-1.2-1.2-2-3-2-4.9C506.1,290.7,506.9,289,508.1,287.7z M517.8,342.2c-1.2,1.2-3,2-4.8,2c-1.9,0-3.6-0.8-4.8-2
			c-1.2-1.2-2-3-2-4.8c0-1.9,0.8-3.6,2-4.8c0.2-0.2,0.4-0.3,0.6-0.5c0.2-0.1,0.4-0.2,0.6-0.4c0.8-0.6,1.8-0.9,2.7-1.1c0,0,0,0,0.1,0
			c0.3,0,0.6-0.1,0.9-0.1c0,0,0,0,0,0c0,0,0,0,0,0c0.3,0,0.6,0,0.9,0.1c0,0,0,0,0.1,0c0.9,0.1,1.9,0.5,2.7,1.1
			c0.2,0.1,0.4,0.2,0.6,0.4c0.2,0.2,0.4,0.3,0.6,0.5c1.2,1.2,2,3,2,4.8C519.8,339.3,519,341,517.8,342.2z M535.7,323
			c-2,2-4.9,3.3-8,3.3c-1.2,0-2.2-0.2-3.3-0.5c-0.8-0.3-1.6-0.6-2.4-1.1c-1.9-1.4-4.2-2.3-6.6-2.7c-0.2,0-0.3,0-0.5-0.1
			c-0.2,0-0.4-0.1-0.7-0.1c-0.4,0-0.9-0.1-1.3-0.1c0,0,0,0,0,0c0,0,0,0,0,0c-0.4,0-0.9,0-1.3,0.1c-0.2,0-0.4,0-0.7,0.1
			c-0.2,0-0.3,0-0.5,0.1c-2.4,0.4-4.7,1.3-6.6,2.7c-0.7,0.4-1.5,0.8-2.4,1.1c-1,0.3-2.1,0.5-3.3,0.5c-3.1,0-6-1.3-8-3.3
			c-2-2-3.3-4.9-3.3-8c0-3.1,1.3-6,3.3-8c0.9-0.9,2-1.7,3.2-2.2c1.5-0.7,3.1-1.1,4.8-1.1c1.2,0,2.4,0.3,3.4,0.8c1,0.5,1.9,1.2,2.5,2
			c0.5,0.7,0.8,1.6,0.8,2.6c0,0.8-0.2,1.6-0.6,2.2c-0.3,0.3-0.6,0.6-1,0.7c-0.3,0.1-0.7,0-1.1-0.2c-2.1-1.2-4.7-0.5-5.9,1.6
			c-1.2,2.1-0.5,4.7,1.6,5.9c2.4,1.4,4.8,1.7,7.1,1.2c2.5-0.5,4.7-2,6.2-3.8c0.8-1,1.3-2.1,1.7-3.3c0.4,1.2,1,2.3,1.7,3.3
			c1.5,1.9,3.7,3.3,6.2,3.8c2.2,0.5,4.7,0.2,7.1-1.2c2.1-1.2,2.8-3.8,1.6-5.9c-1.2-2.1-3.8-2.8-5.9-1.6c-0.4,0.2-0.8,0.3-1.1,0.2
			c-0.4-0.1-0.8-0.3-1-0.7c-0.4-0.6-0.6-1.4-0.6-2.2c0-1,0.3-1.9,0.8-2.6c0.6-0.8,1.5-1.5,2.5-2c1-0.5,2.2-0.8,3.4-0.8
			c2.5,0,4.8,0.8,6.7,2.2c0.5,0.3,0.9,0.7,1.3,1.1c2,2,3.3,4.9,3.3,8C539,318.1,537.7,320.9,535.7,323z"/>
	</g>
</g>
</svg>
