<?xml version="1.0" encoding="utf-8"?>
<!-- Generator: Adobe Illustrator 19.0.1, SVG Export Plug-In . SVG Version: 6.00 Build 0)  -->
<svg version="1.0" id="Layer_1" xmlns="http://www.w3.org/2000/svg" xmlns:xlink="http://www.w3.org/1999/xlink" x="0px" y="0px"
	 viewBox="0 0 1417.3 1417.3" style="enable-background:new 0 0 1417.3 1417.3;" xml:space="preserve">
<style type="text/css">
	.st0{fill-rule:evenodd;clip-rule:evenodd;fill:#FFFFFF;}
</style>
<g>
	<path class="st0" d="M837.9,717.4c-7.5,0-13.6,7.1-13.6,16c0,8.8,6.1,16,13.6,16s13.6-7.1,13.6-16
		C851.5,724.5,845.4,717.4,837.9,717.4z"/>
	<rect x="1013.1" y="598.7" class="st0" width="18.7" height="260.4"/>
	<ellipse class="st0" cx="588.1" cy="733.4" rx="13.6" ry="16"/>
	<rect x="395.7" y="598.7" class="st0" width="17.2" height="260.4"/>
	<path class="st0" d="M713.7,109.7c-334.4,0-605.2,270.7-605.2,604.9c0,334.3,270.8,605.6,605.2,605.6
		c334.2,0,605.4-271.4,605.4-605.6C1319,380.4,1047.9,109.7,713.7,109.7z M1082.5,1052.9h-50.7V929.2h-18.7v123l-210.4-46V494.8
		l210.4-46v79.7h18.7v-98.4H395.7v98.4h17.2v-79.7l210.4,46v511.3l-210.4,46v-123h-17.2v123.7H345V379.4h737.5V1052.9z"/>
</g>
</svg>
