<?xml version="1.0" encoding="utf-8"?>
<!-- Generator: Adobe Illustrator 19.0.1, SVG Export Plug-In . SVG Version: 6.00 Build 0)  -->
<svg version="1.0" id="Layer_1" xmlns="http://www.w3.org/2000/svg" xmlns:xlink="http://www.w3.org/1999/xlink" x="0px" y="0px"
	 viewBox="0 0 850.4 850.4" style="enable-background:new 0 0 850.4 850.4;" xml:space="preserve">
<style type="text/css">
	.st0{fill:#FFFFFF;}
	.st1{clip-path:url(#SVGID_2_);fill:#FFFFFF;}
</style>
<path class="st0" d="M435,158.9c158.4,5.6,283.1,145.6,263.4,309.1c-15.1,125.2-116.2,225.4-241.5,239.5
	c-165.9,18.7-307-111.3-307-273.5c0-73.4,28.5-142.4,80.3-194.3c3.8-3.9,3.8-10.1,0-13.9c-3.9-3.8-10.1-3.8-13.9,0
	c-56.5,56.7-87.1,132.3-86,212.4c2.1,153.1,124.5,281.3,277.3,290.2c170.6,10,312.7-126,312.7-294.5c0-162.7-132.4-295.1-295.1-295
	c-5.4,0-9.7,4.5-9.7,9.8l0,0.8c0,5,4.1,9.1,9.1,9.2L435,158.9L435,158.9"/>
<path class="st0" d="M574.5,288.2c-39-39-90.7-60.4-145.8-60.4s-106.9,21.5-145.8,60.4s-60.4,90.7-60.4,145.8s21.5,106.9,60.4,145.8
	c39,39,90.7,60.4,145.8,60.4s106.9-21.5,145.8-60.4c39-39,60.4-90.7,60.4-145.8S613.4,327.1,574.5,288.2z M525.3,316.4l9.1-37.7
	c36.1,24.7,63.2,61.6,75.3,104.7l-4.7,0.9c-7.1,1.4-12.8,6.8-14.5,13.8l-1.8,7.4c0,0.1,0,0.1-0.2,0.2c-0.1,0-0.2,0-0.2,0l-11-8.3
	c-5.7-4.3-13.5-4.9-19.8-1.6l-13.7,7.2c-6.6,3.4-10.4,10.2-9.9,17.6c0.5,7.4,5.1,13.7,12,16.3l0.7,0.2c0.1,0,0.1,0,0.2,0.2
	c0,0.1,0,0.2-0.1,0.2l-8.6,9.8c-0.1,0.1-0.2,0.1-0.3,0l-23.1-14.9c-5.3-3.4-11.9-3.9-17.6-1.4c-5.8,2.6-9.8,7.8-10.8,14l-1.8,10.9
	c-1,6.1,1.1,12.3,5.6,16.6l12,11.3c0.1,0.1,0.1,0.2,0,0.3L482.4,514c-1.9,2.8-2.9,6.1-3.1,9.5l-1.7,42.5c0,0.1,0,0.1-0.1,0.2
	l-26.1,25.6c-0.1,0.1-0.2,0.1-0.3,0l-16.9-9.9c-0.1,0-0.1-0.1-0.1-0.2c0,0-8.2-37.3-8.5-38.1l-7.5-20c-2.5-6.7-8.7-11.4-15.8-12
	l-34.2-3c-0.1,0-0.2-0.1-0.2-0.1L348.5,475c0-0.1,0-0.1,0-0.2l4.9-32.5c0-0.1,0-0.1,0.1-0.2l29.8-22.5c0.1-0.1,0.2-0.1,0.3,0
	l28.9,12.1c1.6,0.7,3.4,1.1,5.1,1.3l40,4.4c4.6,0.5,9.1-0.7,12.8-3.4l26.5-19c7.1-5.1,9.7-14.7,6.1-22.7l-2.5-5.5
	c-2.9-6.4-9-10.6-16-11l-74.5-4.1c0,0-0.1,0-0.1,0c-0.1,0-0.1-0.1-0.1-0.1v0c0-0.1,0-0.3,0-0.4c0,0,0.1,0,0.1-0.1l22.4-6
	c3-0.8,5.7-2.3,7.9-4.4l27.4-25.8c0,0,0.1-0.1,0.2-0.1l41.2-4.2C517,329.7,523.5,324.1,525.3,316.4z M385.9,301.3l15.4-29
	c2.3-4.3,3-9.3,2-14l-2.1-10.2c9-1.3,18.1-2,27.5-2c9.4,0,18.7,0.7,27.7,2c0,0-2.2,2.4-2.6,2.6l-21.8,8.7c-3.1,1.3-5.9,3.3-8.1,5.8
	l-34,39.7c-0.5,0.5-1.1,0.9-1.8,0.9c-1.1,0-1.7-0.5-2.1-0.9C384.8,303.6,385.7,301.5,385.9,301.3z M305.7,292v27.5
	c0,7.7-3.8,14.8-10.3,18.9l-19.7,12.8c-4.6,3-8.5,6.8-11.5,11.3l-17.9,26.2C255.8,350.6,276.9,317,305.7,292z M317.7,562.6
	l-2.6,21.1c-29.4-22.3-52-53.1-64.2-88.7h11.7c1.4,0,2.7,0.7,3.5,1.9l23.6,36.7c1.1,1.6,2.3,3.2,3.8,4.5l22.9,20.9
	C317.4,559.9,317.9,561.2,317.7,562.6z M428.7,621.9c-35.3,0-68.3-9.8-96.5-26.7l3.7-30.4c0.9-7.2-1.8-14.5-7.2-19.4
	c0,0-23.4-21.4-23.6-21.8l-23.6-36.7c-4.2-6.5-11.2-10.4-18.9-10.4h-16.9c-3.2-13.7-4.9-27.9-4.9-42.6c0-1.6,0-3.2,0.1-4.7
	l38.5-56.4c1.7-2.5,3.8-4.6,6.4-6.2l19.7-12.8c11.7-7.6,18.7-20.4,18.7-34.3V278c17.8-12,37.7-21,59.1-26.3l2.1,10.3
	c0.1,0.6,0,1.2-0.2,1.7l-15.4,29c-1,1.8-2.2,6.6-2.2,6.6c-1.2,6.3,0.4,12.8,4.6,17.7c4,4.7,9.7,7.3,15.8,7.3c0.3,0,9.2,0.4,15.9-7.3
	l34-39.7c0.3-0.3,0.6-0.6,1-0.7l21.8-8.7c3.1-1.2,5.9-3.2,8.1-5.8l8.2-9.6c14.5,3.9,28.3,9.4,41.2,16.4
	c-0.2,0.5-10.6,43.3-10.6,43.3c0,0.1-0.1,0.2-0.2,0.2l-41.2,4.2c-4,0.4-7.9,2.2-10.9,5l-27.4,25.8c0,0-0.1,0.1-0.1,0.1l-22.4,6
	c-7.3,2-12.6,8.1-13.6,15.6s2.6,14.8,9.2,18.5c2.5,1.4,5.3,2.3,8.2,2.4l74.5,4.1c0.1,0,0.2,0.1,0.2,0.2l2.5,5.5
	c0.1,0.1,0,0.3-0.1,0.3l-26.5,19c-0.1,0-0.1,0.1-0.2,0l-40.1-4.4l-28.9-12.1c-6.1-2.5-13.1-1.6-18.4,2.3l-29.8,22.5
	c-3.9,2.9-6.5,7.2-7.2,12.1l-4.9,32.5c-0.6,4.2,0.2,8.5,2.3,12.1l19.4,33.5c3,5.2,8.4,8.7,14.5,9.2l34.2,3c0.1,0,0.2,0.1,0.2,0.2
	l7.5,20.1l7.8,35.6c1.1,5.1,4.3,9.5,8.8,12.1l16.9,9.9c2.9,1.7,6.2,2.5,9.4,2.5c4.8,0,9.5-1.8,13-5.3l26.1-25.6
	c3.4-3.3,5.4-7.8,5.6-12.5l1.7-42.5c0,0,0-0.1,0-0.1l19.6-29.7c5-7.6,3.8-17.6-2.8-23.8l-12-11.3c-0.1-0.1-0.1-0.1-0.1-0.2l1.8-10.9
	c0-0.1,0-0.1,0.2-0.2c0.1-0.1,0.2,0,0.3,0l23.1,14.9c7.7,5,18.1,3.5,24.1-3.4l8.6-9.8c4-4.6,5.5-10.9,4-16.8
	c-1.5-5.9-5.8-10.7-11.5-12.8l-0.7-0.2c-0.1,0-0.1-0.1-0.1-0.1c-0.1-0.1-0.1-0.3,0-0.3c0,0,0,0,0.1-0.1l13.7-7.2c0.1,0,0.2,0,0.3,0
	l11,8.3c5,3.8,11.5,4.7,17.4,2.6c5.9-2.1,10.3-7,11.8-13l1.8-7.4c0-0.1,0.1-0.2,0.2-0.2l5.4-1c1.9,10.6,2.9,21.5,2.9,32.7
	C616.6,537.6,532.3,621.9,428.7,621.9z"/>
<g>
	<g>
		<defs>
			
				<rect id="SVGID_1_" x="262.5" y="127.1" transform="matrix(0.99 0.1409 -0.1409 0.99 27.0561 -41.3912)" width="86.4" height="86.5"/>
		</defs>
		<clipPath id="SVGID_2_">
			<use xlink:href="#SVGID_1_"  style="overflow:visible;"/>
		</clipPath>
		<path class="st1" d="M259.7,196.7c-1.8,3.7-2,6.7-0.6,9.1c1.9,2.1,4.8,2.7,8.9,2c4.1-0.7,7.9-2.4,11.4-5.1l11.1-8.3l39,15.4
			c0.6,0.3,1.2,0.2,1.9-0.2l8.9-6.7c0.5-0.4,0.8-0.9,0.8-1.6c0-0.7-0.3-1.2-0.8-1.6l-28.4-21.3l17.9-13.5l11.3,4.9
			c0.1,0.1,0.2,0.1,0.5,0.1c0.6,0.1,1.1,0,1.5-0.3l6.7-5.1c0.5-0.4,0.7-0.9,0.8-1.4c0-0.7-0.2-1.2-0.6-1.5L336.2,148l-9.3-16.9
			c-0.3-0.5-0.7-0.8-1.3-1l-0.1,0c-0.6-0.1-1.1,0-1.5,0.3l-6.7,5c-0.6,0.5-0.9,1.1-0.8,1.8l1.5,12.2l-17.9,13.5l-12.5-33.2
			c-0.2-0.6-0.5-0.9-1.1-1.2c-0.1-0.1-0.3-0.1-0.4-0.1c-0.5-0.1-0.9,0-1.2,0.2l-8.6,4.7c-0.8,0.5-1.1,1.1-1,1.9l3.7,43.6l-11.2,8.4
			C264.2,189.8,261.6,193,259.7,196.7L259.7,196.7z M259.7,196.7"/>
	</g>
</g>
</svg>
