<?xml version="1.0" encoding="utf-8"?>
<!-- Generator: Adobe Illustrator 19.0.1, SVG Export Plug-In . SVG Version: 6.00 Build 0)  -->
<svg version="1.1" id="Layer_1" xmlns="http://www.w3.org/2000/svg" xmlns:xlink="http://www.w3.org/1999/xlink" x="0px" y="0px"
	 viewBox="200 200 297.3 420.9" style="enable-background:new 0 0 595.3 841.9;" xml:space="preserve">
<style type="text/css">
	.st0{fill:#FFFFFF;}
	.st1{fill-rule:evenodd;clip-rule:evenodd;fill:#FFFFFF;}
</style>
<g>
    <g>
        <path class="st0" d="M286.5,435.5c16,0,24-5.7,24-17.1v-52.1c0-5.9-2.4-10.2-7.2-13c-4.8-2.8-10.4-4.2-16.8-4.2
            c-16.5,0-24.7,5.9-24.7,17.8v50.6C261.9,429.6,270.1,435.5,286.5,435.5z M282.6,366.4c0-2.8,1.2-4.2,3.6-4.2
            c2.4,0,3.6,1.4,3.6,4.2v51.8c0,2.9-1.2,4.3-3.6,4.3c-2.4,0-3.6-1.4-3.6-4.3V366.4z"/>
        <path class="st0" d="M319.2,432.3c3,2.2,6.5,3.2,10.6,3.2c5.9,0,10.2-1.3,12.9-4v2.8h20.8v-84.6h-20.8v68.9
            c0,2.5-1.2,3.7-3.6,3.7c-2.4,0-3.6-1.3-3.6-3.9v-68.8h-20.8v74C314.7,427.3,316.2,430.1,319.2,432.3z"/>
        <path class="st0" d="M399.3,418.7c-1.5-0.8-2.2-2.5-2.2-5v-51.4h11.2v-12.5h-11.2v-17h-20.8v17H367v12.5h9.3v51.6
            c0,8,0.9,13.4,2.8,16.2c1.8,2.8,7.5,4.2,16.8,4.2H409V420C404,420,400.8,419.6,399.3,418.7z"/>
        <path class="st0" d="M292.1,495l0.2-6.6c0-5.4-2.8-8.7-8.3-10c5.5-1.7,8.2-4.9,8.2-9.6v-7.3c0-3.7-1.4-6.4-4.2-8.2
            c-2.8-1.7-6-2.6-9.8-2.6h-16.5v60.7h13.3v-29.1c2.8,0,4.1,1,4.1,3.1c0,0.1,0,2.7-0.1,7.7l-0.1,3.6v0.1c0,8,0.7,12.9,2.2,14.6
            h13.3C292.9,510.3,292.1,504.8,292.1,495z M279.3,471.8c0,2.2-1.4,3.2-4.1,3.2v-16.4c2.7,0,4.1,1.1,4.1,3.2V471.8z"/>
        <path class="st0" d="M311.6,450.2c-10.2,0-15.3,3.9-15.3,11.8v39.1c0,7.3,5.1,10.9,15.2,10.9c4.5,0,8.2-0.9,11-2.9
            c2.8-1.9,4.2-4.6,4.2-8.1V462C326.7,454.1,321.6,450.2,311.6,450.2z M313.7,501.7c0,1.2-0.7,1.8-2.2,1.8c-1.5,0-2.2-0.6-2.2-1.8
            v-41.3c0-1.2,0.7-1.8,2.2-1.8c1.4,0,2.2,0.6,2.2,1.8V501.7z"/>
        <path class="st0" d="M344.7,450.2c-10.2,0-15.3,3.9-15.3,11.8v39.1c0,7.3,5.1,10.9,15.2,10.9c4.5,0,8.2-0.9,11-2.9
            c2.8-1.9,4.2-4.6,4.2-8.1V462C359.8,454.1,354.7,450.2,344.7,450.2z M346.8,501.7c0,1.2-0.7,1.8-2.2,1.8c-1.5,0-2.2-0.6-2.2-1.8
            v-41.3c0-1.2,0.8-1.8,2.2-1.8c1.4,0,2.2,0.6,2.2,1.8V501.7z"/>
        <polygon class="st0" points="385.9,482.3 379.8,450.8 362.6,450.8 362.6,511.5 373,511.5 373,477.4 381,511.5 390.2,511.5 
            397.1,477.4 397.1,511.5 409,511.5 409,450.8 391.2,450.8 			"/>
    </g>
    <g>
        <path class="st0" d="M49.6,378.4c8.9-3,13.4-8.2,13.4-15.5v-14.5c0-6.5-2.4-11.2-7.1-14.1c-4.8-2.9-10.4-4.4-16.8-4.4h-27v104.5
            H41c6.2,0,11.6-1.7,16.1-5.1c4.5-3.4,6.7-8.6,6.7-15.5v-20.3C63.8,385.8,59.1,380.7,49.6,378.4z M41.4,415.4
            c0,3.7-2.1,5.5-6.4,5.5v-37.4c4.3,0,6.4,1.8,6.4,5.5V415.4z M41.4,366.6c0,3.7-2.1,5.6-6.4,5.6v-28.8c4.3,0,6.4,1.8,6.4,5.5
            V366.6z"/>
        <rect x="68.7" y="329.9" class="st0" width="20.8" height="104.5"/>
        <path class="st0" d="M172.5,349.2c-16.4,0-24.6,5.9-24.6,17.8v50.6c0,11.9,8.2,17.8,24.6,17.8c16,0,24-5.7,24-17.1v-20.6h-20.8
            v20.5c0,2.9-1.2,4.3-3.5,4.3c-2.4,0-3.6-1.4-3.6-4.3v-51.8c0-2.8,1.2-4.2,3.6-4.2c2.3,0,3.5,1.4,3.5,4.2v20.8h20.8v-20.9
            C196.5,354.9,188.5,349.2,172.5,349.2z"/>
        <polygon class="st0" points="239,386.8 254.1,349.8 232.6,349.8 222,376.8 222,329.9 201.2,329.9 201.2,434.3 222,434.3 
            222,403.8 234.7,434.3 259.1,434.3 			"/>
        <path class="st0" d="M119.9,349.2c-16.5,0-24.8,5.7-24.8,17.1v16.9h20c0-1.2-0.1-3-0.3-5.4c-0.1-2.4-0.2-4.2-0.2-5.4
            c0-6.8,1.4-10.1,4.1-10.1c2.4,0,3.6,1.4,3.6,4.2V379c0,1.5-2.4,3.4-7.2,5.8c-8.3,4.2-13.8,7.7-16.6,10.6
            c-2.7,2.8-4.1,6.1-4.1,9.9v17c0,8.8,5.7,13.3,17,13.3c7.3,0,11.8-1.5,13.3-4.4v3.3h18.4V367C143.1,355.1,135.4,349.2,119.9,349.2
            z M111.9,422.1l4.3-12.6c-2.5-1-4.2-3.4-4.2-6.2c0-3.7,3-6.7,6.7-6.7c3.7,0,6.7,3,6.7,6.7c0,2.8-1.7,5.2-4.2,6.2l4.3,12.6H111.9z
            "/>
    </g>
</g>
</svg>