<?xml version="1.0" encoding="utf-8"?>
<!-- Generator: Adobe Illustrator 19.0.1, SVG Export Plug-In . SVG Version: 6.00 Build 0)  -->
<svg version="1.0" id="Layer_1" xmlns="http://www.w3.org/2000/svg" xmlns:xlink="http://www.w3.org/1999/xlink" x="0px" y="0px"
	 viewBox="0 0 850.4 850.4" style="enable-background:new 0 0 850.4 850.4;" xml:space="preserve">
<style type="text/css">
	.st0{fill:#FFFFFF;}
</style>
<g>
	<path class="st0" d="M425.2,121.2c-5.6,0-10.1,4.5-10.1,10.1V266c0,5.6,4.5,10.1,10.1,10.1s10.1-4.5,10.1-10.1V141.6
		c151.8,5.4,273.6,130.5,273.6,283.6c0,156.4-127.3,283.7-283.7,283.7S141.5,581.6,141.5,425.2c0-75.6,29.4-146.7,82.7-200.3
		c4-4,3.9-10.4,0-14.3c-4-3.9-10.4-3.9-14.3,0c-57.2,57.4-88.7,133.6-88.7,214.6c0,167.6,136.4,304,304,304s304-136.4,304-304
		S592.8,121.2,425.2,121.2z"/>
	<path class="st0" d="M410.6,461c6.2,8.6,15.8,13.9,26.4,14.8c0.9,0.1,1.9,0.1,2.8,0.1c9.5,0,18.7-3.8,25.5-10.6
		c7.5-7.5,11.3-17.8,10.5-28.3s-6.2-20.2-14.8-26.4l-131.2-94.9c-4-2.9-9.6-2.5-13.1,1.1c-3.5,3.5-4,9.1-1.1,13.1L410.6,461z
		 M449.1,426.9c3.8,2.7,6.1,7,6.5,11.6c0.4,4.6-1.3,9.2-4.6,12.4c-3.3,3.3-7.9,4.9-12.4,4.6c-4.6-0.4-8.8-2.7-11.6-6.5l-57.9-80
		L449.1,426.9z"/>
</g>
</svg>
