<?xml version="1.0" encoding="utf-8"?>
<!-- Generator: Adobe Illustrator 19.0.1, SVG Export Plug-In . SVG Version: 6.00 Build 0)  -->
<svg version="1.0" id="Layer_1" xmlns="http://www.w3.org/2000/svg" xmlns:xlink="http://www.w3.org/1999/xlink" x="0px" y="0px"
	 viewBox="0 0 1417.3 1417.3" style="enable-background:new 0 0 1417.3 1417.3;" xml:space="preserve">
<style type="text/css">
	.st0{fill:#FFFFFF;}
</style>
<g>
	<path class="st0" d="M786.6,499.5c-15.6-2.9-46.8-4.4-93.8-4.4h-63v183.1h71.3c51.4,0,85.7-3.4,103-10.1
		c17.3-6.7,30.9-17.3,40.7-31.7c9.8-14.4,14.7-31.1,14.7-50.2c0-23.5-6.9-42.9-20.7-58.1C825.2,512.9,807.7,503.4,786.6,499.5z"/>
	<path class="st0" d="M708.7,103.4c-334.3,0-605.3,271-605.3,605.3c0,334.3,271,605.3,605.3,605.3c334.3,0,605.3-271,605.3-605.3
		C1314,374.4,1043,103.4,708.7,103.4z M972.4,684.4c-14.4,27-32.7,48.2-54.8,63.6c-22.2,15.4-44.7,25.6-67.6,30.6
		c-31.1,6.2-76.2,9.2-135.2,9.2h-85v243.5H499.5V386h209.1c79.2,0,130.9,3.2,155,9.7c37,9.7,67.9,30.7,92.9,63.2
		c24.9,32.4,37.4,74.3,37.4,125.7C993.9,624.1,986.7,657.4,972.4,684.4z"/>
</g>
</svg>
