<?xml version="1.0" encoding="utf-8"?>
<!-- Generator: Adobe Illustrator 19.0.1, SVG Export Plug-In . SVG Version: 6.00 Build 0)  -->
<svg version="1.0" id="Layer_1" xmlns="http://www.w3.org/2000/svg" xmlns:xlink="http://www.w3.org/1999/xlink" x="0px" y="0px"
	 viewBox="0 0 1417.3 1417.3" style="enable-background:new 0 0 1417.3 1417.3;" xml:space="preserve">
<style type="text/css">
	.st0{fill:#FFFFFF;}
</style>
<path class="st0" d="M708.7,103.4c-334.3,0-605.3,271-605.3,605.3c0,334.3,271,605.3,605.3,605.3c334.3,0,605.3-271,605.3-605.3
	C1314,374.4,1043,103.4,708.7,103.4z M681.7,1135.3H358.3V811.9h323.5V1135.3z M681.7,642.3v115.6H304.3V542.3h323.4h53.9V642.3z
	 M696.1,502.7c-21.9,0-39.7-17.8-39.7-39.7v-2.6c0-8.9,3-17.1,7.9-23.7C646,418.1,550.7,326.4,510,383.8
	C464.8,447.4,612.1,506,612.1,506C366,503.5,422.9,351.1,476.5,302.6c53.6-48.5,77.8-6.7,77.8-6.7l119.1,131.8
	c6.4-4.4,14.2-7.1,22.6-7.1h33.6c8.4,0,16.2,2.6,22.6,7.1l119.1-131.8c0,0,24.3-41.8,77.8,6.7c53.6,48.5,110.5,200.9-135.6,203.4
	c0,0,147.3-58.6,102.1-122.2c-40.8-57.4-136,34.3-154.3,52.9c4.9,6.6,7.9,14.8,7.9,23.7v2.6c0,21.9-17.8,39.7-39.7,39.7H696.1z
	 M1059.1,1138.2H735.6V814.7h323.5V1138.2z M1113,757.9H735.6V642.3v-100h53.9H1113V757.9z"/>
</svg>
