<?xml version="1.0" encoding="utf-8"?>
<!-- Generator: Adobe Illustrator 19.0.1, SVG Export Plug-In . SVG Version: 6.00 Build 0)  -->
<svg version="1.0" id="Layer_1" xmlns="http://www.w3.org/2000/svg" xmlns:xlink="http://www.w3.org/1999/xlink" x="0px" y="0px"
	 viewBox="0 0 1417.3 1417.3" style="enable-background:new 0 0 1417.3 1417.3;" xml:space="preserve">
<style type="text/css">
	.st0{fill-rule:evenodd;clip-rule:evenodd;fill:#FFFFFF;}
</style>
<g>
	<polygon class="st0" points="659.6,708.7 550.2,664.9 485.2,708.7 550.2,752.4 	"/>
	<polygon class="st0" points="676.1,676.1 629.8,560.3 543.6,543.6 560.3,629.8 	"/>
	<polygon class="st0" points="752.4,550.2 708.6,485.2 664.9,550.2 708.6,659.6 	"/>
	<polygon class="st0" points="857,629.8 873.6,543.6 787.5,560.3 741.2,676.1 	"/>
	<path class="st0" d="M708.6,103.4c-334.4,0-605.2,270.7-605.2,604.9c0,334.3,270.8,605.6,605.2,605.6
		c334.2,0,605.4-271.4,605.4-605.6C1313.9,374.1,1042.8,103.4,708.6,103.4z M1112.4,601.5l-16.6,32.4l-66.2-33.9l-44.5,17.8
		l68.6,46.5l-20.4,30.1l-88.9-60.3L908,648.6l66.8,44.9c5,3.4,8,9,8,15.1c0,6.1-3,11.7-8,15.1L908,768.7l36.4,14.6l88.9-60.3
		l20.4,30.1l-68.6,46.5l44.5,17.8l66.2-33.9l16.6,32.4l-37.9,19.4l54.6,21.8l-13.5,33.8l-55.4-22.1l8.9,52.2l-35.8,6.1l-12.6-74.1
		l-48.5-19.4l13.8,81.6l-35.8,6.1l-17.6-103.5l-35.4-14.1l17.3,89.7c1.1,6-0.7,12-5,16.3c-4.2,4.2-10.2,6.1-16.3,5l-89.7-17.3
		l14.1,35.4l103.5,17.6L915,986l-81.6-13.8l19.4,48.5l74.1,12.6l-6.1,35.8l-52.2-8.9l22.1,55.4l-33.8,13.5l-21.8-54.6l-19.4,37.9
		l-32.4-16.6l33.8-66.2l-17.8-44.5l-46.5,68.6l-30.1-20.4l60.3-89L768.7,908l-44.9,66.9c-3.4,5-9,8-15.1,8c-6.1,0-11.7-3-15.1-8
		l-44.9-66.8l-14.5,36.4l60.3,89l-30.1,20.4l-46.5-68.6l-17.8,44.5l33.9,66.2l-32.4,16.6l-19.4-37.9l-21.8,54.6l-33.8-13.5
		l22.1-55.4l-52.2,8.9l-6.1-35.8l74-12.6l19.4-48.5L502.3,986l-6.1-35.9l103.5-17.6l14.1-35.4l-89.6,17.3c-5.9,1.2-12-0.7-16.3-5
		c-4.3-4.3-6.1-10.4-5-16.3l17.3-89.7l-35.4,14.1l-17.6,103.5l-35.8-6.1l13.8-81.6l-48.5,19.4l-12.6,74.1l-35.8-6.1l8.9-52.2
		l-55.4,22.1L288.2,857l54.6-21.8l-37.9-19.4l16.6-32.4l66.2,33.9l44.5-17.8L363.5,753l20.4-30.1l88.9,60.3l36.4-14.6l-66.8-44.9
		c-5-3.4-8-9-8-15.1c0-6.1,3-11.7,8-15.1l66.8-44.9l-36.4-14.5L384,694.4l-20.4-30.1l68.6-46.5l-44.5-17.8l-66.2,33.9l-16.6-32.4
		l37.9-19.4l-54.6-21.8l13.5-33.8l55.4,22.1l-8.9-52.2l35.8-6.1l12.6,74.1l48.5,19.4l-13.8-81.6l35.8-6.1l17.6,103.5l35.3,14.1
		l-17.3-89.6c-1.1-6,0.7-12.1,5-16.3c4.3-4.2,10.3-6,16.3-5l89.7,17.3l-14.1-35.4l-103.5-17.6l6.1-35.9l81.6,13.8l-19.4-48.5
		l-74-12.6l6.1-35.9l52.2,8.9l-22.1-55.4l33.8-13.5l21.8,54.6l19.4-37.9l32.4,16.6l-33.9,66.2l17.8,44.5l46.5-68.6l30.1,20.4
		l-60.3,88.9l14.5,36.4l44.9-66.9c6.7-10,23.4-10,30.2,0l44.9,66.8l14.5-36.4l-60.3-88.9l30.1-20.4l46.5,68.6l17.8-44.5l-33.8-66.2
		l32.4-16.6l19.4,37.9l21.8-54.6l33.8,13.5l-22.1,55.4l52.2-8.9l6.1,35.9l-74.1,12.6l-19.4,48.5l81.6-13.8l6.1,35.9l-103.5,17.6
		l-14.1,35.4l89.7-17.3c6.1-1.1,12.1,0.8,16.3,5c4.3,4.3,6.1,10.4,5,16.3l-17.3,89.7l35.4-14.1l17.6-103.5l35.8,6.1l-13.8,81.6
		l48.5-19.4l12.6-74.1l35.8,6.1l-8.9,52.2l55.4-22.1l13.5,33.8l-54.6,21.8L1112.4,601.5z"/>
	<polygon class="st0" points="560.3,787.5 543.6,873.7 629.8,857 676.1,741.2 	"/>
	<polygon class="st0" points="757.7,708.7 867.1,752.4 932.1,708.7 867.1,664.9 	"/>
	<polygon class="st0" points="741.2,741.2 787.5,857 873.6,873.7 857,787.5 	"/>
	<polygon class="st0" points="664.9,867.1 708.6,932.2 752.4,867.1 708.6,757.7 	"/>
</g>
</svg>
