<?xml version="1.0" encoding="iso-8859-1"?>
<!-- Generator: Adobe Illustrator 16.0.0, SVG Export Plug-In . SVG Version: 6.00 Build 0)  -->
<!DOCTYPE svg PUBLIC "-//W3C//DTD SVG 1.1//EN" "http://www.w3.org/Graphics/SVG/1.1/DTD/svg11.dtd">
<svg version="1.1" id="Capa_1" xmlns="http://www.w3.org/2000/svg" xmlns:xlink="http://www.w3.org/1999/xlink" x="0px" y="0px"
	 width="792px" height="792px" viewBox="0 0 792 792" style="enable-background:new 0 0 792 792;" xml:space="preserve" fill="#45184c">
<g>
	<g>
		<g>
			<path d="M197.961,24.75c-6.806,0-12.375-5.543-12.375-12.375S191.155,0,197.961,0h396.051c6.832,0,12.375,5.543,12.375,12.375
				s-5.567,12.375-12.375,12.375H197.961z"/>
			<path d="M198.012,792c-6.832,0-12.375-5.543-12.375-12.375s5.569-12.375,12.375-12.375h396c6.832,0,12.402,5.543,12.402,12.375
				S600.844,792,594.012,792H198.012z"/>
			<g>
				<path d="M405.268,387.931c4.537,5.104,4.074,12.916-1.03,17.454c-5.104,4.537-12.917,4.073-17.455-1.031l-37.125-41.792
					l-37.125-41.766l-37.125-41.791l-37.125-41.792c-2.114-2.32-3.146-5.259-3.146-8.173h-0.025V61.927
					c0-6.832,5.568-12.375,12.375-12.375h0.335h148.19h148.527c6.832,0,12.399,5.543,12.399,12.375v0.309v41.457v41.791v41.792
					v41.766c0,3.403-1.393,6.471-3.608,8.714l-36.688,41.275l-37.125,41.792l-37.125,41.792c-4.537,5.104-12.35,5.543-17.453,1.031
					c-5.104-4.538-5.543-12.349-1.03-17.454l37.125-41.766l37.125-41.766l33.979-38.233v-37.151v-41.792v-41.766V74.327H396.012
					H259.887v150.021l33.98,38.259l37.125,41.766l37.125,41.792L405.268,387.931L405.268,387.931z M553.33,237.755l-8.791,3.661
					C547.967,241.441,551.086,240.023,553.33,237.755z"/>
			</g>
			<path d="M349.658,429.696c4.538-5.104,12.349-5.543,17.454-1.031c5.104,4.537,5.568,12.349,1.031,17.454l-37.125,41.766
				l-37.151,41.816l-33.98,38.208V717.93h136.151h136.151v-29.39v-41.792v-41.766v-37.1l-33.98-38.232l-37.125-41.74l-37.125-41.766
				l-37.125-41.74c-4.538-5.104-4.074-12.916,1.031-17.454c5.104-4.538,12.917-4.073,17.456,1.031l37.125,41.74l37.125,41.792
				l37.125,41.739l36.686,41.276c2.217,2.241,3.609,5.311,3.609,8.714v41.791V646.8v41.792v41.456v0.335
				c0,6.832-5.568,12.375-12.4,12.375H396.012h-148.19h-0.335c-6.832,0-12.375-5.543-12.375-12.375V563.295h0.025
				c0-2.914,1.031-5.853,3.12-8.225l37.125-41.74l37.125-41.791L349.658,429.696z"/>
			<path d="M408.361,470.56c6.807,0,12.323,5.518,12.323,12.323c0,6.807-5.543,12.323-12.323,12.323l-24.75-0.052
				c-6.807,0-12.324-5.543-12.324-12.323c0-6.806,5.517-12.323,12.324-12.323L408.361,470.56z"/>
			<path d="M288.814,572.369l49.036-48.829c2.552-2.553,5.981-3.738,9.333-3.558l98.304,0.024c3.377,0,6.444,1.366,8.688,3.584
				h0.025l49.551,49.422c2.424,2.425,3.635,5.569,3.635,8.767h0.053v99.052c0,6.832-5.543,12.375-12.375,12.375h-0.311H296.909
				c-6.832,0-12.375-5.543-12.375-12.375v-0.335v-98.742C284.534,577.99,286.184,574.639,288.814,572.369L288.814,572.369z
				 M351.669,544.629l-42.384,42.204v81.571h173.38v-81.571l-42.281-42.179L351.669,544.629z"/>
			<path d="M296.909,198.077h198.13c6.832,0,12.375,5.543,12.375,12.375c0,3.48-1.445,6.626-3.766,8.869l-86.031,98.304
				c-2.604,2.965-6.316,4.383-9.978,4.202l-24.054-0.025c-3.687,0-6.987-1.625-9.255-4.203l0.025,0.026l-86.728-99.026
				c-4.486-5.13-3.97-12.942,1.16-17.428c2.346-2.037,5.234-3.042,8.121-3.042V198.077L296.909,198.077z M467.812,222.853H324.16
				l65.072,74.328l13.51,0.025L467.812,222.853z"/>
		</g>
	</g>
</g>
<g>
</g>
<g>
</g>
<g>
</g>
<g>
</g>
<g>
</g>
<g>
</g>
<g>
</g>
<g>
</g>
<g>
</g>
<g>
</g>
<g>
</g>
<g>
</g>
<g>
</g>
<g>
</g>
<g>
</g>
</svg>
